<svg id="Layer_1" data-name="Layer 1" xmlns="http://www.w3.org/2000/svg" xmlns:xlink="http://www.w3.org/1999/xlink" viewBox="0 0 141.73 141.73"><defs><style>.cls-1{fill:url(#linear-gradient);}.cls-2{fill:#fff;}</style><linearGradient id="linear-gradient" x1="70.87" y1="132.26" x2="70.87" y2="9.47" gradientUnits="userSpaceOnUse"><stop offset="0" stop-color="#623836"/><stop offset="1" stop-color="#a93d32"/></linearGradient></defs><circle class="cls-1" cx="70.87" cy="70.87" r="61.39"/><path class="cls-2" d="M67.57,117.91h-3.3v1.77h3V122h-3v4.15H61.54l0-10.55h6Z"/><path class="cls-2" d="M71.42,119v4A1.29,1.29,0,1,0,74,123v-4h2.53v4.54a2.55,2.55,0,0,1-1,2.18,5.93,5.93,0,0,1-5.72,0,2.55,2.55,0,0,1-1-2.18V119Z"/><path class="cls-2" d="M77.39,121.32h4v2.12h-4Z"/><path class="cls-2" d="M62.85,20.06h6.22A15.58,15.58,0,0,1,69,21.79a6.63,6.63,0,0,1-.32,1.46,5.85,5.85,0,0,1-.91,1.67,5.23,5.23,0,0,1-1.35,1.22,6.51,6.51,0,0,1-1.7.75,7.78,7.78,0,0,1-1.95.26,7,7,0,0,1-2.57-.46,5.71,5.71,0,0,1-3.3-3.32,7,7,0,0,1-.46-2.6,6.73,6.73,0,0,1,.45-2.58,5.52,5.52,0,0,1,1.29-2,5.81,5.81,0,0,1,2-1.3,7.17,7.17,0,0,1,2.64-.47,6.57,6.57,0,0,1,3.31.81,5.59,5.59,0,0,1,2.26,2.52l-3,1.24a3.07,3.07,0,0,0-1.08-1.42,2.73,2.73,0,0,0-1.52-.43,2.92,2.92,0,0,0-1.27.27,2.61,2.61,0,0,0-1,.75,3.81,3.81,0,0,0-.64,1.18,4.64,4.64,0,0,0-.22,1.53,4.71,4.71,0,0,0,.2,1.43,3.15,3.15,0,0,0,.6,1.13,2.69,2.69,0,0,0,1,.74,3.33,3.33,0,0,0,1.38.27,3.82,3.82,0,0,0,.9-.11,2.32,2.32,0,0,0,.77-.34,1.82,1.82,0,0,0,.57-.6,2.27,2.27,0,0,0,.3-.9H62.85Z"/><path class="cls-2" d="M77.12,18.58H80l0,8.21H77.13v-.91A3,3,0,0,1,74.62,27,4.11,4.11,0,0,1,73,26.72a4,4,0,0,1-1.31-.92,4.31,4.31,0,0,1-.87-1.39,4.87,4.87,0,0,1,0-3.42,4.43,4.43,0,0,1,.85-1.38,3.9,3.9,0,0,1,1.29-.94,4.12,4.12,0,0,1,1.67-.35,3.35,3.35,0,0,1,2.54,1.07Zm-3.64,4.08a2,2,0,0,0,.14.75A1.76,1.76,0,0,0,74,24a1.51,1.51,0,0,0,.59.4,1.85,1.85,0,0,0,.74.15,1.8,1.8,0,0,0,.73-.15,1.76,1.76,0,0,0,.59-.4,2,2,0,0,0,.4-.59,1.83,1.83,0,0,0,0-1.45,2.1,2.1,0,0,0-.4-.6,1.87,1.87,0,0,0-.59-.4,2,2,0,0,0-.73-.14,2,2,0,0,0-.75.14,1.87,1.87,0,0,0-.59.4,2.33,2.33,0,0,0-.39.59A1.87,1.87,0,0,0,73.48,22.66Z"/><path class="cls-2" d="M84.89,13.49l0,13.28H82l0-13.29Z"/><path class="cls-2" d="M91.33,93.63C86.18,82.69,90.51,62,90.51,62c1.13-6-.91-9.9-4.05-12.41A43.92,43.92,0,0,0,93,41c-4.94-4.84-13.49.6-13.49.6s1.91-9.95.55-10.53c-2.81-1.19-9.29,6.1-9.29,6.1a10.06,10.06,0,0,0-4.06-8.07c-6.93,3.25-7.1,12-5.63,17.47-5.76,1.9-11.6,6.12-9.85,15.42,0,0,4.33,20.68-.81,31.62l-6.5,11.68s8.12-2,11.91-5.84l1.62,8.27a30.47,30.47,0,0,0,5.42-7.29s4,7.11,8,9.54c4-2.43,8-9.54,8-9.54a30.28,30.28,0,0,0,5.41,7.29l1.62-8.27c3.79,3.89,11.91,5.84,11.91,5.84ZM70.88,70h0l5.44,4.74H65.44Zm0,5.65L76.33,75l-5.44,4.74h0L65.44,75ZM59.77,66.34a2.41,2.41,0,1,1,2.41-2.41A2.4,2.4,0,0,1,59.77,66.34ZM54.4,61.16c5.4-6.56,10.5,0,10.5,0C59.8,56.64,54.4,61.16,54.4,61.16Zm16.47,40.69h0c-11.69,0-5.76-10.76-5.76-10.76A26.41,26.41,0,0,0,68,80.81l1.69,1.54-.06-1.23,1.25.87,1.26-.87-.06,1.23,1.69-1.54a26.41,26.41,0,0,0,2.88,10.28S82.57,101.84,70.87,101.85ZM82,66.34a2.41,2.41,0,1,1,2.41-2.41A2.41,2.41,0,0,1,82,66.34Zm-5.13-5.18s5.11-6.56,10.51,0C87.39,61.16,82,56.64,76.88,61.16Zm-6,39.62h0c-8.47,0-4.18-9.26-4.18-9.26a26.33,26.33,0,0,0,2.09-8.86l1.37,1.45,0-1.06.76.62.74-.6,0,1.06L73,82.66A26.33,26.33,0,0,0,75,91.52S79.33,100.78,70.87,100.78Z"/></svg>