<svg id="Layer_1" data-name="Layer 1" xmlns="http://www.w3.org/2000/svg" xmlns:xlink="http://www.w3.org/1999/xlink" viewBox="0 0 141.73 141.73"><defs><style>.cls-1{fill:url(#linear-gradient);}.cls-2{fill:#fff;}</style><linearGradient id="linear-gradient" x1="70.87" y1="131.97" x2="70.87" y2="9.18" gradientUnits="userSpaceOnUse"><stop offset="0" stop-color="#58595b"/><stop offset="1" stop-color="#939598"/><stop offset="1" stop-color="#a93d32"/></linearGradient></defs><path class="cls-1" d="M132.26,70.58A61.4,61.4,0,1,1,70.87,9.18,61.39,61.39,0,0,1,132.26,70.58Z"/><path class="cls-2" d="M59.76,126.62l1.77-10.56h2.71l2.13,5.63,2.09-5.63h2.72L73,126.59H70.26l-.93-6.07-2.48,6.08H65.76l-2.38-6.07-.89,6.07Z"/><path class="cls-2" d="M76.38,123.42c0,1.1.52,1.64,1.55,1.64a1.37,1.37,0,0,0,1.24-.68h2.45c-.49,1.64-1.73,2.47-3.71,2.47a4.9,4.9,0,0,1-1.66-.27,3.74,3.74,0,0,1-1.3-.77,3.4,3.4,0,0,1-.83-1.21,3.91,3.91,0,0,1-.3-1.56,4.37,4.37,0,0,1,.28-1.62,3.43,3.43,0,0,1,.79-1.23,3.79,3.79,0,0,1,1.25-.78,4.82,4.82,0,0,1,1.66-.27,4.66,4.66,0,0,1,1.64.27,3.15,3.15,0,0,1,1.23.79,3.36,3.36,0,0,1,.78,1.26,5,5,0,0,1,.27,1.69v.26Zm3-1.47a1.52,1.52,0,0,0-.52-.85,1.42,1.42,0,0,0-1-.32,1.4,1.4,0,0,0-1,.31,1.33,1.33,0,0,0-.47.86Z"/><path class="cls-2" d="M82.29,121.78h4v2.11h-4Z"/><path class="cls-2" d="M64.75,20.52H71c0,.64,0,1.22-.08,1.74a6.63,6.63,0,0,1-.31,1.46,6.1,6.1,0,0,1-.91,1.67,5.58,5.58,0,0,1-1.35,1.22,6.58,6.58,0,0,1-1.71.75,7.65,7.65,0,0,1-2,.26,7.08,7.08,0,0,1-2.57-.46,5.92,5.92,0,0,1-2-1.3,5.81,5.81,0,0,1-1.3-2,7,7,0,0,1-.47-2.6,7.13,7.13,0,0,1,.45-2.58,5.62,5.62,0,0,1,3.32-3.31,7.12,7.12,0,0,1,2.63-.47,6.61,6.61,0,0,1,3.32.81,5.65,5.65,0,0,1,2.26,2.52l-3,1.24A3,3,0,0,0,66.25,18a2.67,2.67,0,0,0-1.51-.43,3,3,0,0,0-1.28.27,2.65,2.65,0,0,0-1,.75,3.61,3.61,0,0,0-.64,1.18,4.91,4.91,0,0,0-.23,1.53,5,5,0,0,0,.2,1.43,3.33,3.33,0,0,0,.61,1.13,2.53,2.53,0,0,0,1,.74,3.27,3.27,0,0,0,1.38.27,3.74,3.74,0,0,0,.89-.11,2.29,2.29,0,0,0,.78-.34,1.8,1.8,0,0,0,.56-.6,2.45,2.45,0,0,0,.31-.9H64.75Z"/><path class="cls-2" d="M79,19h2.91v8.21H79v-.91a3,3,0,0,1-2.51,1.17,3.93,3.93,0,0,1-3-1.24,4.17,4.17,0,0,1-.88-1.39,4.68,4.68,0,0,1-.31-1.74,4.51,4.51,0,0,1,.3-1.68,4.41,4.41,0,0,1,.84-1.38,3.94,3.94,0,0,1,1.3-.94,4.07,4.07,0,0,1,1.66-.35A3.39,3.39,0,0,1,79,19.85Zm-3.65,4.08a1.86,1.86,0,0,0,.15.75,1.9,1.9,0,0,0,.39.59,1.62,1.62,0,0,0,.6.4,1.78,1.78,0,0,0,.74.15,1.8,1.8,0,0,0,.73-.15,1.87,1.87,0,0,0,.59-.4,2.19,2.19,0,0,0,.4-.59,1.83,1.83,0,0,0,0-1.45,2.13,2.13,0,0,0-.41-.6,1.76,1.76,0,0,0-.59-.4,2,2,0,0,0-.73-.14,2,2,0,0,0-.74.14,1.76,1.76,0,0,0-.59.4,1.89,1.89,0,0,0-.39.59A1.71,1.71,0,0,0,75.37,23.12Z"/><path class="cls-2" d="M86.78,14l0,13.28H83.91l0-13.29Z"/><path class="cls-2" d="M91.33,93.63C86.18,82.69,90.51,62,90.51,62c1.13-6-.91-9.9-4.05-12.41A43.92,43.92,0,0,0,93,41c-4.94-4.84-13.49.6-13.49.6s1.91-9.95.55-10.53c-2.81-1.19-9.29,6.1-9.29,6.1a10.06,10.06,0,0,0-4.06-8.07c-6.93,3.25-7.1,12-5.63,17.47-5.76,1.9-11.6,6.12-9.85,15.42,0,0,4.33,20.68-.81,31.62l-6.5,11.68s8.12-2,11.91-5.84l1.62,8.27a30.47,30.47,0,0,0,5.42-7.29s4,7.11,8,9.54c4-2.43,8-9.54,8-9.54a30.28,30.28,0,0,0,5.41,7.29l1.62-8.27c3.79,3.89,11.91,5.84,11.91,5.84ZM70.88,70h0l5.44,4.74H65.44Zm0,5.65L76.33,75l-5.44,4.74h0L65.44,75ZM59.77,66.34a2.41,2.41,0,1,1,2.41-2.41A2.4,2.4,0,0,1,59.77,66.34ZM54.4,61.16c5.4-6.56,10.5,0,10.5,0C59.8,56.64,54.4,61.16,54.4,61.16Zm16.47,40.69h0c-11.69,0-5.76-10.76-5.76-10.76A26.41,26.41,0,0,0,68,80.81l1.69,1.54-.06-1.23,1.25.87,1.26-.87-.06,1.23,1.69-1.54a26.41,26.41,0,0,0,2.88,10.28S82.57,101.84,70.87,101.85ZM82,66.34a2.41,2.41,0,1,1,2.41-2.41A2.41,2.41,0,0,1,82,66.34Zm-5.13-5.18s5.11-6.56,10.51,0C87.39,61.16,82,56.64,76.88,61.16Zm-6,39.62h0c-8.47,0-4.18-9.26-4.18-9.26a26.33,26.33,0,0,0,2.09-8.86l1.37,1.45,0-1.06.76.62.74-.6,0,1.06L73,82.66A26.33,26.33,0,0,0,75,91.52S79.33,100.78,70.87,100.78Z"/></svg>