<svg id="Layer_1" data-name="Layer 1" xmlns="http://www.w3.org/2000/svg" xmlns:xlink="http://www.w3.org/1999/xlink" viewBox="0 0 141.73 141.73"><defs><style>.cls-1{fill:url(#linear-gradient);}.cls-2{fill:#fff;}</style><linearGradient id="linear-gradient" x1="70.87" y1="132.26" x2="70.87" y2="9.47" gradientUnits="userSpaceOnUse"><stop offset="0" stop-color="#006838"/><stop offset="1" stop-color="#93bd4e"/><stop offset="1" stop-color="#3c79b4"/><stop offset="1"/></linearGradient></defs><circle class="cls-1" cx="70.87" cy="70.87" r="61.39"/><path class="cls-2" d="M59.5,126.16l1.77-10.56H64l2.12,5.62,2.09-5.63h2.72l1.81,10.56H70l-.92-6.07-2.49,6.08H65.5l-2.37-6.07-.9,6.07Z"/><path class="cls-2" d="M79.38,118.94h2.55v7.18H79.39v-.8a2.64,2.64,0,0,1-2.2,1,3.59,3.59,0,0,1-1.44-.28,3.43,3.43,0,0,1-1.15-.81,3.6,3.6,0,0,1-.76-1.21,4,4,0,0,1-.28-1.53,4.19,4.19,0,0,1,.26-1.46,3.9,3.9,0,0,1,.74-1.21A3.64,3.64,0,0,1,75.7,119a3.42,3.42,0,0,1,1.45-.3,2.94,2.94,0,0,1,2.23.93Zm-3.19,3.58a1.57,1.57,0,0,0,.13.65,1.67,1.67,0,0,0,.34.52,1.54,1.54,0,0,0,.52.35,1.75,1.75,0,0,0,.65.13,1.64,1.64,0,0,0,1.16-.48,1.9,1.9,0,0,0,.35-.52,1.69,1.69,0,0,0,.13-.63,1.57,1.57,0,0,0-.14-.64,1.7,1.7,0,0,0-.35-.52,1.45,1.45,0,0,0-.52-.35,1.51,1.51,0,0,0-.63-.13,1.71,1.71,0,0,0-.65.13,1.6,1.6,0,0,0-.86.86A1.45,1.45,0,0,0,76.19,122.52Z"/><path class="cls-2" d="M82.78,121.32h4v2.11h-4Z"/><path class="cls-2" d="M64.86,20.06h6.23c0,.64,0,1.22-.08,1.74a6.1,6.1,0,0,1-.32,1.46,5.82,5.82,0,0,1-.9,1.67,5.58,5.58,0,0,1-1.35,1.22,6.58,6.58,0,0,1-1.71.75,7.78,7.78,0,0,1-2,.26,7.08,7.08,0,0,1-2.57-.46,5.92,5.92,0,0,1-2-1.3,5.81,5.81,0,0,1-1.3-2,7,7,0,0,1-.47-2.6,7.13,7.13,0,0,1,.45-2.58,5.52,5.52,0,0,1,1.29-2,5.85,5.85,0,0,1,2-1.3,7.08,7.08,0,0,1,2.63-.47,6.61,6.61,0,0,1,3.32.81,5.65,5.65,0,0,1,2.26,2.52l-3,1.24a2.94,2.94,0,0,0-1.08-1.42,2.69,2.69,0,0,0-1.51-.43,3,3,0,0,0-1.28.27,2.65,2.65,0,0,0-1,.75A3.61,3.61,0,0,0,62,19.33a4.64,4.64,0,0,0-.23,1.53,5,5,0,0,0,.2,1.43,3.49,3.49,0,0,0,.6,1.13,2.64,2.64,0,0,0,1,.74,3.25,3.25,0,0,0,1.37.27,3.82,3.82,0,0,0,.9-.11,2.29,2.29,0,0,0,.78-.34,1.9,1.9,0,0,0,.56-.6,2.27,2.27,0,0,0,.3-.9H64.87Z"/><path class="cls-2" d="M79.13,18.58h2.92v8.21H79.15v-.91A3,3,0,0,1,76.64,27a3.93,3.93,0,0,1-3-1.24,4.17,4.17,0,0,1-.88-1.39,4.68,4.68,0,0,1-.31-1.74,4.32,4.32,0,0,1,.3-1.68,4.41,4.41,0,0,1,.84-1.38,3.94,3.94,0,0,1,1.3-.94,4.07,4.07,0,0,1,1.66-.35,3.39,3.39,0,0,1,2.55,1.07Zm-3.64,4.08a1.86,1.86,0,0,0,.15.75A1.9,1.9,0,0,0,76,24a1.67,1.67,0,0,0,.59.4,1.86,1.86,0,0,0,.75.15,1.83,1.83,0,0,0,.73-.15,1.87,1.87,0,0,0,.59-.4,2.19,2.19,0,0,0,.4-.59,1.79,1.79,0,0,0,.15-.72,1.66,1.66,0,0,0-.16-.73,1.91,1.91,0,0,0-.4-.6,1.76,1.76,0,0,0-.59-.4,2,2,0,0,0-.73-.14,2,2,0,0,0-.74.14,1.76,1.76,0,0,0-.59.4,1.89,1.89,0,0,0-.39.59A1.71,1.71,0,0,0,75.49,22.66Z"/><path class="cls-2" d="M86.9,13.49l0,13.28H84l0-13.29Z"/><path class="cls-2" d="M91.33,93.63C86.18,82.69,90.51,62,90.51,62c1.13-6-.91-9.9-4.05-12.41A43.92,43.92,0,0,0,93,41c-4.94-4.84-13.49.6-13.49.6s1.91-9.95.55-10.53c-2.81-1.19-9.29,6.1-9.29,6.1a10.06,10.06,0,0,0-4.06-8.07c-6.93,3.25-7.1,12-5.63,17.47-5.76,1.9-11.6,6.12-9.85,15.42,0,0,4.33,20.68-.81,31.62l-6.5,11.68s8.12-2,11.91-5.84l1.62,8.27a30.47,30.47,0,0,0,5.42-7.29s4,7.11,8,9.54c4-2.43,8-9.54,8-9.54a30.28,30.28,0,0,0,5.41,7.29l1.62-8.27c3.79,3.89,11.91,5.84,11.91,5.84ZM70.88,70h0l5.44,4.74H65.44Zm0,5.65L76.33,75l-5.44,4.74h0L65.44,75ZM59.77,66.34a2.41,2.41,0,1,1,2.41-2.41A2.4,2.4,0,0,1,59.77,66.34ZM54.4,61.16c5.4-6.56,10.5,0,10.5,0C59.8,56.64,54.4,61.16,54.4,61.16Zm16.47,40.69h0c-11.69,0-5.76-10.76-5.76-10.76A26.41,26.41,0,0,0,68,80.81l1.69,1.54-.06-1.23,1.25.87,1.26-.87-.06,1.23,1.69-1.54a26.41,26.41,0,0,0,2.88,10.28S82.57,101.84,70.87,101.85ZM82,66.34a2.41,2.41,0,1,1,2.41-2.41A2.41,2.41,0,0,1,82,66.34Zm-5.13-5.18s5.11-6.56,10.51,0C87.39,61.16,82,56.64,76.88,61.16Zm-6,39.62h0c-8.47,0-4.18-9.26-4.18-9.26a26.33,26.33,0,0,0,2.09-8.86l1.37,1.45,0-1.06.76.62.74-.6,0,1.06L73,82.66A26.33,26.33,0,0,0,75,91.52S79.33,100.78,70.87,100.78Z"/></svg>