<svg height="46" viewBox="0 0 46 46" width="46" xmlns="http://www.w3.org/2000/svg" xmlns:xlink="http://www.w3.org/1999/xlink"><linearGradient id="a" x1="100%" x2="3.059879%" y1="100%" y2="3.059879%"><stop offset="0" stop-color="#00d3a7"/><stop offset="1" stop-color="#02c0d0"/></linearGradient><path d="m14.9140625 29.109375c0 .9924927-.8043823 1.796875-1.796875 1.796875h-4.671875c-.99249268 0-1.796875-.8043823-1.796875-1.796875s.80438232-1.796875 1.796875-1.796875h4.671875c.9924927 0 1.796875.8043823 1.796875 1.796875zm12.0390625-7.9960938v-19.3164062c0-.60012822.2997132-1.16059878.7984162-1.49400327.4990539-.33340459 1.1318206-.3955231 1.6859741-.16635137l8.8945312 3.68359375c.6713715.27830512 1.1090088.93318179 1.10936 1.65965278.0003507.72682183-.4372867 1.38204952-1.1083072 1.66035455l-7.7862243 3.23051456v10.7426452c0 .9924927-.8043823 1.796875-1.796875 1.796875s-1.796875-.8043823-1.796875-1.796875zm3.59375-14.63365166 2.4050751-.99775698-2.4050751-.99600215zm15.453125 11.57896416v14.4648438c0 2.9722137-2.4180603 5.390625-5.390625 5.390625h-15.5429688v6.2890625c0 .9924927-.8043823 1.796875-1.796875 1.796875-.9924926 0-1.796875-.8043823-1.796875-1.796875v-6.2890625h-16.08132934c-2.97256465 0-5.39062496-2.4177093-5.39062496-5.3899231l-.0007019-14.4655457c0-5.9440765 4.83506773-10.77984614 10.7787933-10.78124995h.000702 10.7830047c.9924927 0 1.796875.80438232 1.796875 1.796875 0 .99249265-.8043823 1.79687495-1.796875 1.79687495h-2.7528687c1.7108918 1.9088288 2.7528687 4.4286652 2.7528687 7.1875v16.2617188h19.046875c.9907379 0 1.796875-.8061371 1.796875-1.796875v-14.4648438c0-1.862854-.7436676-3.6506042-2.0941315-5.0337066-.6934814-.7099763-.6797943-1.8477631.0301819-2.5408936.7099763-.69348144 1.8477631-.67979428 2.5408936.0301819 2.009903 2.0583344 3.116806 4.737503 3.116806 7.5444183zm-28.03125 0c0-3.9633025-3.2241974-7.1875-7.1875-7.1875-3.96330259 0-7.1875 3.2241975-7.1875 7.1875l.00070186 14.4655457c0 .990387.80613715 1.7961731 1.796875 1.7961731h12.57742314z" fill="url(#a)"/></svg>