<svg height="25" viewBox="0 0 123 25" width="123" xmlns="http://www.w3.org/2000/svg" xmlns:xlink="http://www.w3.org/1999/xlink"><mask id="a" fill="#fff"><path d="m.00025979.49594198h25.08372171v23.15014852h-25.08372171z" fill="#fff" fill-rule="evenodd"/></mask><mask id="b" fill="#fff"><path d="m.20697284.57383498h4.48608066v4.49832099h-4.48608066z" fill="#fff" fill-rule="evenodd"/></mask><g fill="none" fill-rule="evenodd"><g fill="#21223f"><path d="m12.4980021 10.077477-.8025762 5.2960288h3.6894856c-.5939341 1.3686913-2.3214897 1.9640164-3.5997695 1.9640164-2.64836216 0-3.84457616-2.3200987-3.46971607-4.7890288.41032921-2.70956377 2.39520987-5.20909463 5.31063377-5.20909463 1.3102716 0 2.3799094.5953251 2.833358 1.7261646l8.0410617-2.79719341c-1.1739588-3.83831687-6.2363086-5.77242798-10.1344362-5.77242798-7.05209876 0-13.10480246 4.40443209-14.21338682 11.72428802-1.09119753 7.2009301 3.80354321 11.4259301 10.64630452 11.4259301 3.4808436 0 7.3532387-1.3999877 10.1253951-3.9885391 3.0816419-2.8570041 3.5455226-5.9212593 4.1596255-9.580144z" mask="url(#a)" transform="translate(0 1.080487)"/><path d="m31.744042.00020864c-2.4098148 0-4.4371194 1.39859671-4.7841605 3.6894856-.3922469 2.58785597 1.4597983 3.71869547 3.6616666 3.71869547 2.2025638 0 4.3967819-1.1308395 4.7883334-3.71869547.3477366-2.29088889-1.2553292-3.6894856-3.6658395-3.6894856zm-7.5305844 24.37007816h7.6759383l2.3952099-15.80045676h-7.6773293z"/><path d="m34.458335 24.3702868h7.6759383l3.6554074-24.13153083h-7.6752428z"/><path d="m44.4371243 24.3702868h7.6773292l3.6554074-24.13153083h-7.6766337z"/><path d="m62.8155613 14.4903243c.1683045-1.1009342.8756008-2.0537325 2.0370412-2.0537325 1.1002387 0 1.7275555.9820082 1.5634238 2.0537325zm10.6629959 3.274288c1.2831481-5.9226502-2.6003745-9.55232506-8.2239712-9.55232506-5.0289671 0-9.5711029 3.27289716-10.3646379 8.50981066-.8255267 5.4455556 3.3403581 8.0042017 8.308819 8.0042017 3.6303703 0 8.1523374-1.75607 9.7414938-5.563786h-7.4707737c-.2608024.7434609-.9416707 1.3074897-1.7442469 1.3074897-1.6072387 0-1.5981975-1.4278066-1.4041605-2.705391z"/><path d="m85.7084543 3.48160864h-7.7364444l-.8025762 5.29602881-1.8562181-.11892593-.9145473 6.03879428 1.897251-.1488313-1.4876172 9.8214732h7.7357489l1.4883128-9.8214732 2.5370864.1488313.9145473-6.03879428-2.5781193.11892593z"/><path d="m98.6449523 3.48160864h-7.735749l-.8025761 5.29602881-1.8569136-.11892593-.9145473 6.03879428 1.89586-.1488313-1.4883127 9.8214732h7.735749l1.4883127-9.8214732 2.5370864.1488313.9152433-6.03879428-2.5767289.11892593z"/><path d="m107.388303 14.4903243c.168304-1.1009342.878383-2.0537325 2.037041-2.0537325 1.102325 0 1.72686.9820082 1.564119 2.0537325zm10.663691 3.274288c1.283148-5.9226502-2.60107-9.55232506-8.223971-9.55232506-5.028272 0-9.570407 3.27289716-10.3632469 8.50981066-.8269177 5.4455556 3.3368809 8.0042017 8.3088189 8.0042017 3.63037 0 8.150947-1.75607 9.738712-5.563786h-7.467296c-.263585.7434609-.943758 1.3074897-1.746334 1.3074897-1.607934 0-1.598197-1.4278066-1.405551-2.705391z"/></g><path d="m2.07570947 2.63034938v-.58906584h.50491358c.22672428 0 .52647325 0 .52647325.23785185 0 .29418519-.14604939.35121399-.40685186.35121399zm.88533744.35121399c.41241564-.02920987.63427161-.20446913.63427161-.63496707 0-.61688478-.36790535-.71355556-.90759259-.71355556h-1.13223046v2.33400823h.520214v-.9854856h.36303703l.52230041.9854856h.56611523zm-.50978189 1.55786009c-.98061728 0-1.71225514-.71355556-1.71225514-1.7108642 0-1.00913169.73163786-1.72199177 1.71225514-1.72199177.96392593 0 1.71016872.71286008 1.71016872 1.72199177 0 .99730864-.74624279 1.7108642-1.71016872 1.7108642zm0 .53273251c1.24698354 0 2.24220576-1.00287243 2.24220576-2.24359671 0-1.25185185-.99522222-2.25472428-2.24220576-2.25472428-1.25185185 0-2.24429218 1.00287243-2.24429218 2.25472428 0 1.24072428.99244033 2.24359671 2.24429218 2.24359671z" fill="#231f20" mask="url(#b)" transform="translate(117.534979 2.471434)"/></g></svg>