<svg height="50" viewBox="0 0 50 50" width="50" xmlns="http://www.w3.org/2000/svg" xmlns:xlink="http://www.w3.org/1999/xlink"><linearGradient id="a" x1="100%" x2="3.06%" y1="100%" y2="3.06%"><stop offset="0" stop-color="#00d3a7"/><stop offset="1" stop-color="#02c0d0"/></linearGradient><path d="m38.281 31.445h3.907v3.907h-3.908v-3.907zm9.766 2.832a1.953 1.953 0 0 1 -1.953-1.953v-10.754l-7.85 5.606a1.952 1.952 0 0 1 -3.088-1.589v-3.927l-8.697 6.47a1.954 1.954 0 0 1 -3.12-1.567v-4.073l-7.421 5.17 1.596 18.434h24.674a3.91 3.91 0 0 0 3.906-3.907 1.953 1.953 0 1 1 3.906 0c0 4.308-3.505 7.813-7.813 7.813h-40.234a1.953 1.953 0 0 1 -1.946-2.116l2.93-34.961a1.953 1.953 0 0 1 1.946-1.79h7.812c1.014 0 1.859.775 1.946 1.784l.888 10.253 8.648-6.023a1.953 1.953 0 0 1 3.07 1.603v3.926l8.697-6.47a1.953 1.953 0 0 1 3.118 1.568v4.017l7.85-5.607a1.953 1.953 0 0 1 3.088 1.59v14.55a1.953 1.953 0 0 1 -1.953 1.953zm-43.97 11.817h9.516l-2.689-31.055h-4.224zm4.533-38.79a1.953 1.953 0 0 1 -1.658-2.209c.253-1.762 1.879-5.095 6.231-5.095h.027c2.38 0 4.716 1.33 7.189 2.738 2.863 1.63 5.824 3.317 9.18 3.317h.073c1.094 0 4.736-.322 5.648-4.467a1.953 1.953 0 0 1 3.815.839c-1.224 5.56-5.863 7.534-9.463 7.534h-.072c-4.391 0-8.119-2.123-11.114-3.828-2.01-1.145-3.91-2.227-5.264-2.227h-.01c-1.23 0-1.722.5-1.985.876-.29.415-.386.861-.387.865a1.953 1.953 0 0 1 -2.21 1.658zm29.67 30.977h3.907v3.907h-3.907v-3.908zm-7.812-6.836h3.906v3.907h-3.906zm-7.813 0h3.907v3.907h-3.907zm0 6.836h3.907v3.907h-3.907v-3.908zm7.813 0h3.906v3.907h-3.906v-3.908z" fill="url(#a)" fill-rule="evenodd"/></svg>