<svg height="50" viewBox="0 0 50 50" width="50" xmlns="http://www.w3.org/2000/svg" xmlns:xlink="http://www.w3.org/1999/xlink"><linearGradient id="a" x1="100%" x2="3.06%" y1="100%" y2="3.06%"><stop offset="0" stop-color="#00d3a7"/><stop offset="1" stop-color="#02c0d0"/></linearGradient><path d="m35.099 21.905c-3.2-1.638-6.901-2.833-10.999-3.552a1.95 1.95 0 0 0 -1.88.728l-4.181 5.411-4.182-5.411a1.95 1.95 0 0 0 -1.83-.736 34.472 34.472 0 0 0 -10.985 3.57 1.95 1.95 0 0 0 -1.042 1.726v8.913a1.95 1.95 0 0 0 2.496 1.87l3.84-1.122v10.85a5.855 5.855 0 0 0 5.846 5.848h11.794a5.855 5.855 0 0 0 5.848-5.848v-10.85l3.839 1.122a1.948 1.948 0 0 0 2.496-1.87v-8.914a1.95 1.95 0 0 0 -1.061-1.735zm-2.838 8.048-3.839-1.123a1.95 1.95 0 0 0 -2.496 1.872v13.45c0 1.075-.875 1.95-1.95 1.95h-11.792a1.952 1.952 0 0 1 -1.95-1.95v-13.45a1.95 1.95 0 0 0 -2.496-1.872l-3.838 1.123v-5.11a30.564 30.564 0 0 1 7.587-2.455l5.01 6.484a1.95 1.95 0 0 0 3.086 0l4.993-6.462c2.812.572 5.389 1.393 7.686 2.45v5.093zm17.642-24.538v8.912a1.95 1.95 0 0 1 -2.497 1.871l-3.839-1.122v17.478a1.95 1.95 0 1 1 -3.898 0v-20.078a1.95 1.95 0 0 1 2.496-1.871l3.839 1.122v-5.13c-2.284-1.124-4.82-1.941-7.569-2.439l-5.013 6.488a1.95 1.95 0 0 1 -3.085 0l-5.058-6.545c-2.295.322-4.823 1.161-7.54 2.504v5.122l3.839-1.123a1.95 1.95 0 0 1 1.094 3.743l-6.335 1.851a1.949 1.949 0 0 1 -2.497-1.87v-8.914c0-.721.398-1.383 1.035-1.722 4.064-2.159 7.707-3.334 11.135-3.589a1.949 1.949 0 0 1 1.687.752l4.182 5.411 4.182-5.411a1.95 1.95 0 0 1 1.826-.737c4.061.597 7.764 1.804 11.006 3.589a1.95 1.95 0 0 1 1.01 1.708z" fill="url(#a)"/></svg>