<svg height="50" viewBox="0 0 50 50" width="50" xmlns="http://www.w3.org/2000/svg" xmlns:xlink="http://www.w3.org/1999/xlink"><linearGradient id="a" x1="100%" x2="3.06%" y1="100%" y2="3.06%"><stop offset="0" stop-color="#00d3a7"/><stop offset="1" stop-color="#02c0d0"/></linearGradient><path d="m16.21 31.64a1.953 1.953 0 0 1 -1.952 1.954h-5.078a1.953 1.953 0 1 1 0-3.907h5.078c1.079 0 1.953.875 1.953 1.954zm13.087-8.69v-20.998a1.954 1.954 0 0 1 2.7-1.805l9.668 4.004a1.954 1.954 0 0 1 .001 3.609l-8.463 3.511v11.679a1.953 1.953 0 1 1 -3.906 0zm3.906-15.907 2.614-1.084-2.614-1.083zm16.797 12.587v15.723c0 3.23-2.628 5.859-5.86 5.859h-16.893v6.836a1.953 1.953 0 1 1 -3.906 0v-6.838h-17.481a5.865 5.865 0 0 1 -5.86-5.858v-15.722c0-6.462 5.256-11.718 11.716-11.72h11.722a1.953 1.953 0 1 1 0 3.906h-2.993a11.67 11.67 0 0 1 2.992 7.813v17.676h20.704a1.955 1.955 0 0 0 1.953-1.953v-15.723c0-2.025-.809-3.968-2.276-5.472a1.953 1.953 0 1 1 2.794-2.729c2.185 2.238 3.388 5.15 3.388 8.2zm-30.469 0c0-4.308-3.504-7.813-7.812-7.813s-7.813 3.505-7.813 7.813l.001 15.723c0 1.077.876 1.953 1.953 1.953h13.671v-17.677z" fill="url(#a)"/></svg>