<svg height="50" viewBox="0 0 50 50" width="50" xmlns="http://www.w3.org/2000/svg" xmlns:xlink="http://www.w3.org/1999/xlink"><linearGradient id="a" x1="100%" x2="3.06%" y1="100%" y2="3.06%"><stop offset="0" stop-color="#00d3a7"/><stop offset="1" stop-color="#02c0d0"/></linearGradient><path d="m13.252 8.48-1.462-2.377a1.95 1.95 0 0 1 3.32-2.045l1.462 2.376a1.95 1.95 0 1 1 -3.319 2.044zm-6.69 24.95a1.95 1.95 0 0 1 1.885 3.412l-2.473 1.366a1.949 1.949 0 0 1 -1.885-3.413zm18.388-26.558a1.95 1.95 0 0 1 -1.949-1.95v-2.922a1.95 1.95 0 1 1 3.899 0v2.924a1.95 1.95 0 0 1 -1.95 1.95zm-18.128 18.128a1.95 1.95 0 0 1 -1.949 1.95h-2.924a1.95 1.95 0 1 1 0-3.9h2.924a1.95 1.95 0 0 1 1.95 1.95zm16.38 11.172a1.95 1.95 0 0 1 -.597 3.852c-.15-.023-.3-.049-.447-.076-7.192-1.336-12.412-7.623-12.412-14.948a15.19 15.19 0 0 1 3.77-10.02 15.194 15.194 0 0 1 9.872-5.105 1.95 1.95 0 1 1 .396 3.879c-.138.014-.278.03-.415.05-5.544.775-9.724 5.588-9.724 11.196 0 5.447 3.88 10.122 9.225 11.115.11.02.221.04.333.057zm26.388-14.595c.737 1.604.47 3.446-.697 4.811l-.794.946a1.95 1.95 0 1 1 -2.986-2.506l.8-.953a2.23 2.23 0 0 1 .015-.017c.226-.264.19-.5.12-.653-.06-.13-.218-.35-.6-.35h-6.95a1.95 1.95 0 0 1 -1.67-2.952l7.77-12.933h-7.026l-10.789 18.51a1.918 1.918 0 0 0 .046 1.909c.17.287.675.954 1.676.954h4.678a1.95 1.95 0 0 1 1.835 2.608l-4.247 11.829 7.926-10.306a1.949 1.949 0 1 1 3.09 2.376l-10.654 13.856c-.051.066-.106.129-.165.188a3.676 3.676 0 0 1 -2.576 1.056h-.015c-1.144 0-2.154-.507-2.706-1.36-.499-.771-.564-1.725-.183-2.63l4.925-13.717h-1.907a5.797 5.797 0 0 1 -5.03-2.864 5.797 5.797 0 0 1 -.077-5.834l11.368-19.505c.349-.6.99-.968 1.684-.968h11.592a1.95 1.95 0 0 1 1.67 2.953l-7.77 12.933h3.504c1.813 0 3.4 1.004 4.142 2.62zm-40.92-8.891a1.95 1.95 0 1 1 -1.94 3.382l-2.38-1.365a1.95 1.95 0 1 1 1.94-3.382zm6.64 27.784a1.95 1.95 0 0 1 .702 2.666l-1.425 2.44a1.949 1.949 0 1 1 -3.367-1.965l1.424-2.44a1.95 1.95 0 0 1 2.667-.701z" fill="url(#a)" fill-rule="evenodd"/></svg>