<svg height="50" viewBox="0 0 58 50" width="58" xmlns="http://www.w3.org/2000/svg" xmlns:xlink="http://www.w3.org/1999/xlink"><linearGradient id="a" x1="100%" x2="3.059879%" y1="87.940296%" y2="14.381558%"><stop offset="0" stop-color="#00d3a7"/><stop offset="1" stop-color="#02c0d0"/></linearGradient><path d="m45.628139 32.6233184c2.7819507 0 5.0449552 2.2631166 5.0449552 5.044843v1.2331839c0 5.5243273-3.0158072 11.0986547-9.7533633 11.0986547-2.6517937 0-4.8467488-.9450673-6.5236547-2.8089686-1.344843-1.494731-2.1640134-3.3544843-2.8867713-4.9954036-1.1223094-2.5480942-1.725-3.5745516-2.6783632-3.8029148-.8700673.2255605-1.4476457 1.2310538-2.5406951 3.7216368-.7262331 1.6548206-1.5492152 3.5304932-2.9030269 5.0419282-1.6901345 1.8868834-3.9007847 2.843722-6.5706278 2.843722-2.9946188 0-5.6741031-1.5951794-7.54495513-4.491704-1.4530269-2.2497758-2.32051569-5.1807175-2.32051569-7.8401346 0-2.7817264 2.26311659-5.044843 5.04484302-5.044843.1377803 0 .2754485.0126681.4109866.0380045l1.0350897.1930493c3.5659192.6650224 7.2134529 1.00213 10.8411435 1.00213h4.0803811.896861 4.0804933c3.6276906 0 7.2753363-.3372197 10.8415919-1.0022421l1.0345292-.1929372c.1355381-.0253364.2732062-.0380045.4110986-.0380045zm-23.4441704 7.6890134c.2904709-.6616592.585426-1.3339686.9141256-1.9826233-3.5106503-.0659193-7.0300449-.423991-10.478139-1.0670403l-.7521301-.1402467c-.2475336.0580718-.4323991.2807175-.4323991.5457399 0 3.2767938 2.0471973 7.8475337 5.3811659 7.8475337 2.9406951 0 3.9089686-1.880157 5.3673767-5.2033633zm24.0048206-1.4109865v-1.2331839c0-.2650224-.1848654-.4876681-.4323991-.5457399l-.7515695.1401346c-3.4060538.6352017-6.8813901.9923766-10.3491031 1.0645739.3465247.6736548.6544843 1.3729821.9575112 2.0609866 1.4422646 3.2747758 2.3998879 5.1275785 5.3065022 5.1275785 4.8890135 0 5.2690583-5.0626682 5.2690583-6.6143498zm11.138453-14.6857623c.3093049 1.1980941-.409305 2.4200672-1.6070628 2.7306053-.3820628.0991032-9.5519059 2.426009-26.4596413 2.426009-16.8774664 0-27.09529146-2.3132287-27.52208519-2.4116592-1.20661434-.2784753-1.95908071-1.482287-1.68049327-2.6889013.27813902-1.2061659 1.48161435-1.9589686 2.68755606-1.6808296.04114349.009417 1.77242152.3992152 4.92914798.8550448.34327354-1.5505605 1.42600897-6.1720852 3.10773542-10.8618834 1.2160314-3.39103138 2.5004484-6.11973093 3.8176009-8.11065021 1.9636771-2.96827355 4.1428251-4.47331839 6.4766816-4.47331839 1.5626682 0 3.3034754.61670404 5.321861 1.88553812 1.4552691.9147982 3.3493274.91894618 4.8252242.01109865 2.073991-1.27623318 3.7788117-1.89663677 5.2116592-1.89663677 2.6029148 0 5.0073991 1.87376682 7.1465247 5.56939462 1.3848654 2.39226457 2.7180493 5.61031388 3.9630045 9.56446188.3717488 1.1811659-.2841929 2.4401345-1.4653588 2.8119955-1.181278.3716368-2.4402466-.2843049-2.8119955-1.4653587-2.9811659-9.46961886-5.6973094-11.99618837-6.8321749-11.99618837-.0880045 0-.9164798.03452915-2.8616592 1.23150224-2.9188341 1.79596413-6.6720852 1.78273543-9.5617713-.03374439-1.6578475-1.04215247-2.5506726-1.19775785-2.9353139-1.19775785-.9753363 0-3.35213 2.02477579-6.0733184 9.61334077-1.4553811 4.0587444-2.4561659 8.1536996-2.8575112 9.9085202 4.3943946.4727579 10.1948431.8817265 17.1146861.8817265 16.2680493 0 25.2475336-2.2602018 25.3363229-2.2830718 1.1991031-.3079596 2.4211883.4126682 2.7303812 1.6107624z" fill="url(#a)"/></svg>