<svg height="50" viewBox="0 0 50 50" width="50" xmlns="http://www.w3.org/2000/svg" xmlns:xlink="http://www.w3.org/1999/xlink"><linearGradient id="a" x1="100%" x2="3.059879%" y1="100%" y2="3.059879%"><stop offset="0" stop-color="#00d3a7"/><stop offset="1" stop-color="#02c0d0"/></linearGradient><path d="m1.953125 18.359375c-1.07871094 0-1.953125-.8744141-1.953125-1.953125s.87441406-1.953125 1.953125-1.953125h3.90625c1.07871094 0 1.953125.8744141 1.953125 1.953125s-.87441406 1.953125-1.953125 1.953125zm6.91972656-8.1892578-2.734375-2.73437501c-.76279297-.76279297-.76279297-1.99941407 0-2.76210938s1.99941407-.76279297 2.76210938 0l2.73437496 2.734375c.762793.76279297.762793 1.99941406 0 2.76210939-.3813476.3813476-.8811523.5720703-1.3810547.5720703-.49990229 0-.99970698-.1907227-1.38105464-.5720703zm10.26777344-2.3576172c-1.0787109 0-1.953125-.87441406-1.953125-1.953125v-3.90625c0-1.07871094.8744141-1.953125 1.953125-1.953125s1.953125.87441406 1.953125 1.953125v3.90625c0 1.07871094-.8744141 1.953125-1.953125 1.953125zm14.453125 34.375c1.0787109 0 1.953125.8744141 1.953125 1.953125v3.90625c0 1.0787109-.8744141 1.953125-1.953125 1.953125s-1.953125-.8744141-1.953125-1.953125v-3.90625c0-1.0787109.8744141-1.953125 1.953125-1.953125zm11.44375-20.8665039c-.3180664.6945312-1.0119141 1.1399414-1.7757812 1.1398437h-7.5557618c-.6753906 0-1.2705078-.342871-1.621289-.8639648l-5.090918-4.8944336c-1.1512695.5333984-2.3157227 1.0666016-3.4514648 1.5866211-7.8441407 3.5917969-15.95556645 7.3060547-19.80654301 11.1102539-1.17978516 1.1818359-1.82949219 2.7521484-1.82949219 4.4223633v8.3657226c0 2.1539063 1.75234375 3.90625 3.90625 3.90625h8.512207c.8142578 0 1.6042969-.1554687 2.3375977-.4504882l-10.27773439-10.2777344c-.76279297-.7626953-.76269531-1.9994141 0-2.762207.76269532-.762793 1.99931639-.762793 2.76210939 0l10.6256836 10.6256835c2.8696289-3.1875 5.5285156-8.6456054 7.9908203-14.1443359.2161133-.4827148.4318359-.968457.6473633-1.455957.4360351-.9867188 1.5891601-1.4330078 2.5758789-.997168.9867187.4360352 1.4330078 1.5892578.9970703 2.5758789-.2180664.4936524-.4364258.9852539-.6552734 1.4738281-3.3483399 7.4774415-6.3060547 13.1256836-9.8475586 16.3736329-1.9163086 1.8996093-4.4557618 2.9452148-7.1558594 2.9452148h-8.5123047c-4.3078125 0-7.8125-3.5046875-7.8125-7.8125v-8.3657227c0-2.7154296 1.05742188-5.2682617 2.97744141-7.1884765.00263672-.0025391.00527343-.0051758.00791015-.0078125 4.34091797-4.2916016 12.39921874-7.981543 20.93076174-11.8879883 1.1290039-.5169922 2.2862305-1.046875 3.4276367-1.5756836v-6.3258789c0-.7609375.4419922-1.45263672 1.1326172-1.77236328l10.546875-4.8828125c.6047851-.28007813 1.3105469-.23222656 1.872168.1265625.5616211.35888672.9014648.97929687.9014648 1.64580078v6.15234375h6.25c.6650391 0 1.284375.33837891 1.6435547.89804688.3592773.55966796.409082 1.26367187.1322266 1.86826167zm-8.4810547-2.7663086h5.4515625l2.9962891-6.5429687h-5.1605469c-1.0787109 0-1.953125-.8744141-1.953125-1.953125v-5.04892583l-6.640625 3.07431641v5.29492182c0 .0239258-.0027344.047168-.0036133.0708008zm11.4904297 10.3515625c1.0787109 0 1.953125.8744141 1.953125 1.953125s-.8744141 1.953125-1.953125 1.953125h-3.90625c-1.0787109 0-1.953125-.8744141-1.953125-1.953125s.8744141-1.953125 1.953125-1.953125zm-5.4548828 9.4587891 2.734375 2.7342773c.762793.762793.762793 1.9995117 0 2.762207-.3813477.3814454-.8811524.5720704-1.3810547.5720704s-.999707-.190625-1.3810547-.5719727l-2.734375-2.734375c-.762793-.762793-.762793-1.9995117 0-2.762207.762793-.7626954 1.9994141-.762793 2.7621094 0z" fill="url(#a)" fill-rule="evenodd"/></svg>