<svg height="25" viewBox="0 0 35 25" width="35" xmlns="http://www.w3.org/2000/svg" xmlns:xlink="http://www.w3.org/1999/xlink"><linearGradient id="a" x1="100%" x2="3.059879%" y1="75.148613%" y2="26.390421%"><stop offset="0" stop-color="#00d3a7"/><stop offset="1" stop-color="#02c0d0"/></linearGradient><path d="m0 1c0-.55228475.44771525-1 1-1h11c.5522847 0 1 .44771525 1 1v11.5857864c0 .2652165-.1053568.5195704-.2928932.7071068l-11.00000002 11c-.18753638.1875364-.44189029.2928932-.70710678.2928932-.55228475 0-1-.4477152-1-1zm21.6666667 0c0-.55228475.4477152-1 1-1h11c.5522847 0 1 .44771525 1 1v11.5857864c0 .2652165-.1053569.5195704-.2928933.7071068l-11 11c-.1875363.1875364-.4418902.2928932-.7071067.2928932-.5522848 0-1-.4477152-1-1z" fill="url(#a)" fill-rule="evenodd"/></svg>