<svg height="22" viewBox="0 0 19 22" width="19" xmlns="http://www.w3.org/2000/svg"><g fill="#fff" fill-rule="evenodd"><path d="m9.27826087 11.8517598h.07287785.02732919.04554865c1.33457554-.0227743 2.41407864-.4919254 3.21118014-1.3892339 1.7536232-1.97681161 1.4621118-5.36563149 1.4302277-5.68902694-.1138716-2.42774327-1.2616977-3.58923395-2.2091097-4.13126293-.7060041-.40538303-1.5304348-.62401657-2.4505176-.64223603h-.03188406c-.00455486 0-.01366459 0-.01821946 0h-.02732919c-.50559006 0-1.49855073.08198758-2.4505176.62401656-.95652174.54202899-2.12256729 1.70351967-2.23643892 4.1494824-.03188406.32339545-.32339545 3.71221533 1.43022774 5.68902694.79254658.8973085 1.87204969 1.3664596 3.20662526 1.3892339zm-3.42070393-6.9643892c0-.0136646.00455486-.02732919.00455486-.03643892.15031056-3.26583851 2.46873706-3.61656315 3.46169772-3.61656315h.01821947.03643892c1.22981369.02732919 3.32049689.52836439 3.46169769 3.61656315 0 .01366459 0 .02732919.0045549.03643892.0045549.03188406.3233954 3.12919255-1.1250518 4.75983437-.573913.64679093-1.3391304.96563143-2.34575566.97474123-.00910973 0-.01366459 0-.02277432 0-.00910973 0-.0136646 0-.02277433 0-1.00207039-.0091098-1.77184265-.3279503-2.34120083-.97474123-1.44389234-1.62153209-1.13416149-4.73250518-1.12960662-4.75983437z" fill-rule="nonzero"/><path d="m18.7113872 17.4724638c0-.0045549 0-.0091098 0-.0136646 0-.036439-.0045549-.0728779-.0045549-.1138717-.0273292-.9018633-.0865424-3.010766-2.063354-3.6848861-.0136646-.0045549-.0318841-.0091097-.0455487-.0136646-2.0542443-.5238095-3.7623188-1.7080745-3.7805383-1.7217391-.2778468-.1958592-.6604555-.1275363-.8563147.1503105s-.1275362.6604555.1503106.8563147c.0774327.0546584 1.8902691 1.3163561 4.1585921 1.8993789 1.0612836.3780539 1.1797101 1.5122153 1.2115942 2.5507247 0 .0409937 0 .0774327.0045549.1138716.0045548.4099379-.0227744 1.0430642-.0956522 1.4074534-.7378882.4190476-3.6302278 1.8674948-8.03022775 1.8674948-4.38178054 0-7.29233955-1.453002-8.03478261-1.8720497-.07287785-.3643892-.10476191-.9975155-.09565218-1.4074534 0-.0364389.00455487-.0728778.00455487-.1138716.03188406-1.0385093.15031056-2.1726708 1.2115942-2.5507246 2.26832298-.5830228 4.08115942-1.8492754 4.15859214-1.8993789.27784679-.1958592.34616977-.5784679.15031055-.8563147-.19585921-.2778468-.5784679-.3461698-.8563147-.1503106-.01821946.0136646-1.71718426 1.1979296-3.7805383 1.7217391-.01821946.0045549-.03188406.0091098-.04554865.0136646-1.9768116.678675-2.03602485 2.7875777-2.06335404 3.6848862 0 .0409938 0 .0774327-.00455486.1138716v.0136646c-.00455487.236853-.00910974 1.4530021.23229813 2.063354.04554866.1184265.12753623.2186336.236853.2869566.13664597.0910973 3.41159421 2.1772256 8.89109731 2.1772256 5.47950309 0 8.75445139-2.0906832 8.89109729-2.1772256.1047619-.068323.1913044-.1685301.236853-.2869566.2277433-.6057971.2231884-1.8219461.2186336-2.0587991z"/></g></svg>