<svg height="22" viewBox="0 0 21 22" width="21" xmlns="http://www.w3.org/2000/svg"><path d="m5.83063244 14.4725216h12.11129366c1.3733059 0 2.4936345-1.1203286 2.4936345-2.4936345v-5.09568792c0-.00451746 0-.01355236 0-.01806982 0-.01355236 0-.02258727 0-.03613963 0-.0090349 0-.01806981-.0045175-.02710472 0-.00903491-.0045174-.02258727-.0045174-.03162218 0-.0090349-.0045175-.01806981-.0045175-.02710472-.0045174-.00903491-.0045174-.01806981-.0090349-.03162218-.0045174-.0090349-.0045174-.01806981-.0090349-.02710472s-.0045175-.01806981-.0090349-.02710472c-.0045175-.00903491-.0090349-.01806982-.0135524-.03162218-.0045174-.00903491-.0090349-.01806981-.0135523-.02258727-.0045175-.0090349-.0090349-.01806981-.0135524-.02710472-.0045174-.00903491-.0090349-.01355236-.0135524-.02258727-.0045174-.00903491-.0135523-.01806981-.0180698-.02710472-.0045174-.00903491-.0090349-.01355236-.0180698-.02258727-.0045174-.00903491-.0135523-.01355236-.0180698-.02258727s-.0135524-.01355236-.0180698-.02258727c-.0045175-.00903491-.0135524-.01355236-.0180698-.01806981-.0090349-.00903491-.0135524-.01355237-.0225873-.02258727-.0090349-.00451746-.0135524-.01355236-.0225873-.01806982-.0090349-.00451745-.0180698-.01355236-.0271047-.01806981-.0090349-.00451746-.0135524-.00903491-.0225873-.01355236-.0090349-.00451746-.0180698-.00903491-.0271047-.01806982-.0090349-.00451745-.0180698-.00903491-.0271047-.01355236s-.0180698-.00903491-.0271047-.01355236c-.0090349-.00451746-.0180698-.00903491-.0271048-.01355236-.0090349-.00451746-.0180698-.00451746-.0271047-.00903491-.0090349-.00451746-.0225872-.00903491-.0316222-.00903491-.0090349 0-.0180698-.00451745-.0225872-.00451745-.0135524-.00451746-.0225873-.00451746-.0361397-.00451746-.0045174 0-.0090349-.00451745-.0180698-.00451745l-15.35030797-2.11868583v-2.1412731c0-.02258727 0-.04517454-.00451746-.06324436 0-.00451745 0-.0090349-.00451745-.01806981 0-.01355236-.00451746-.02710472-.00451746-.04065709-.00451745-.01355236-.00451745-.02258726-.0090349-.03613963 0-.0090349-.00451746-.01355236-.00451746-.02258726-.00451745-.01355237-.0090349-.02710473-.01355236-.04065709 0-.00451745-.00451745-.01355236-.00451745-.01806981-.00451746-.01355237-.00903491-.02258727-.01806982-.03613963-.00451745-.00451746-.00451745-.01355237-.0090349-.01806982-.00451746-.00903491-.00903491-.01806981-.01806982-.02710472-.00451745-.00903491-.00903491-.01355236-.01355236-.02258727-.00451746-.00903491-.00903491-.01355236-.01355236-.02258727-.00451746-.00903491-.01355236-.01806982-.01806982-.02710472-.00451745-.00451746-.00903491-.00903491-.01355236-.01355236-.00903491-.00903491-.01806981-.01806982-.02710472-.02710473-.00451746-.00451745-.00903491-.0090349-.01355236-.01355236-.00903491-.00903491-.01806982-.01806981-.03162218-.02710472-.00451745-.00451746-.01355236-.00903491-.01806982-.01355236-.0090349-.00903491-.01806981-.01355236-.02710472-.02258727-.01355236-.00903491-.02710472-.01806982-.03613963-.02258727-.00451745-.00451745-.00903491-.00451745-.01355236-.00903491-.01806982-.00903491-.04065708-.01806981-.0587269-.02710472l-3.32936345-1.40041068c-.31170431-.13100616-.66858316.01355236-.79958932.32525668-.13100616.31170431.01355236.66858316.32525667.79958932l2.95441479 1.24681725v2.76468172.43819302 3.36098563 3.0041068 3.7946612c0 1.264887.94866529 2.3129363 2.17289527 2.4710472-.22135523.3704312-.35236139.8041068-.35236139 1.2648871 0 1.3597535 1.10677618 2.4620123 2.46201232 2.4620123s2.46201235-1.1067762 2.46201235-2.4620123c0-.4517454-.12197128-.8809035-.33880907-1.2422998h5.48418887c-.2168377.3659137-.338809.7905544-.338809 1.2422998 0 1.3597535 1.1067762 2.4620123 2.4620123 2.4620123 1.3552362 0 2.4620124-1.1067762 2.4620124-2.4620123 0-1.3552362-1.1067762-2.4620124-2.4620124-2.4620124h-11.51950716c-.70472279 0-1.27392197-.5737166-1.27392197-1.2739219v-1.6533881c.37043121.2168378.80862423.3433265 1.27392197.3433265zm3.03572896 5.0414784c0 .686653-.56016427 1.2422998-1.2422998 1.2422998-.68213552 0-1.24229979-.5601643-1.24229979-1.2422998s.56016427-1.2422998 1.24229979-1.2422998c.68213553 0 1.2422998.5556468 1.2422998 1.2422998zm9.7305955 0c0 .686653-.5601643 1.2422998-1.2422998 1.2422998s-1.2422998-.5601643-1.2422998-1.2422998.5601643-1.2422998 1.2422998-1.2422998 1.2422998.5556468 1.2422998 1.2422998zm-.6550308-6.261191h-12.11129366c-.70472279 0-1.27392197-.5737166-1.27392197-1.2739219v-3.00410681-3.36098563-.22587269l14.65913753 2.01930185v4.56714578c0 .7092403-.5737166 1.2784394-1.2739219 1.2784394z" fill="#6c6d8b"/></svg>