<svg height="60" viewBox="0 0 78 60" width="78" xmlns="http://www.w3.org/2000/svg" xmlns:xlink="http://www.w3.org/1999/xlink"><linearGradient id="a" x1="100%" x2="3.06%" y1="100%" y2="3.06%"><stop offset="0" stop-color="#00d3a7"/><stop offset="1" stop-color="#02c0d0"/></linearGradient><g fill="none" fill-rule="evenodd"><path d="m.609 53.308h3.618v-14.421h-3.617v14.42zm1.81-20.359c.634 0 1.178.229 1.632.689.453.459.68 1.016.68 1.67 0 .644-.224 1.195-.674 1.65a2.185 2.185 0 0 1 -1.612.682 2.216 2.216 0 0 1 -1.646-.695 2.328 2.328 0 0 1 -.68-1.69c0-.637.224-1.18.674-1.63a2.21 2.21 0 0 1 1.626-.676zm4.552 5.937h3.619v1.479c.82-.692 1.564-1.173 2.23-1.444a5.396 5.396 0 0 1 2.045-.405c1.43 0 2.642.499 3.64 1.497.838.849 1.257 2.103 1.257 3.765v9.53h-3.579v-6.316c0-1.72-.077-2.863-.231-3.429-.155-.564-.423-.995-.807-1.29-.384-.296-.857-.444-1.421-.444-.732 0-1.36.245-1.884.735-.525.49-.889 1.167-1.091 2.032-.106.45-.16 1.425-.16 2.926v5.785h-3.617v-14.42zm22.587 2.969c-1.119 0-2.048.395-2.788 1.186-.74.792-1.11 1.805-1.11 3.043 0 1.245.377 2.27 1.13 3.075.753.804 1.68 1.206 2.781 1.206 1.136 0 2.078-.396 2.827-1.187.748-.79 1.123-1.827 1.123-3.108 0-1.254-.375-2.27-1.123-3.048-.75-.778-1.696-1.167-2.84-1.167zm3.803-8.535h3.62v19.987h-3.62v-1.524c-.705.672-1.414 1.155-2.124 1.451a5.942 5.942 0 0 1 -2.31.444c-1.863 0-3.473-.722-4.833-2.167-1.359-1.444-2.038-3.24-2.038-5.388 0-2.226.657-4.051 1.972-5.474 1.316-1.422 2.913-2.133 4.793-2.133.864 0 1.677.163 2.435.49.76.327 1.461.817 2.105 1.471zm6.337 19.988h3.618v-14.421h-3.618v14.42zm1.809-20.359c.634 0 1.178.229 1.632.689.454.459.68 1.016.68 1.67 0 .644-.223 1.195-.673 1.65s-.987.682-1.613.682a2.218 2.218 0 0 1 -1.645-.695 2.325 2.325 0 0 1 -.68-1.69c0-.637.224-1.18.673-1.63a2.21 2.21 0 0 1 1.626-.676zm28.763 8.973c-1.124 0-2.06.39-2.809 1.173-.747.782-1.121 1.783-1.121 3.002 0 1.255.37 2.27 1.109 3.048.738.777 1.674 1.167 2.807 1.167s2.076-.393 2.828-1.18c.753-.787 1.129-1.798 1.129-3.035s-.37-2.242-1.109-3.016c-.74-.773-1.684-1.16-2.834-1.16m-.06-3.406c1.36 0 2.64.341 3.837 1.021a7.376 7.376 0 0 1 2.804 2.77 7.44 7.44 0 0 1 1.007 3.778c0 1.36-.338 2.633-1.014 3.817a7.304 7.304 0 0 1 -2.764 2.776c-1.166.667-2.452 1.002-3.857 1.002-2.067 0-3.833-.736-5.295-2.207-1.462-1.472-2.194-3.259-2.194-5.362 0-2.253.826-4.13 2.48-5.633 1.448-1.308 3.114-1.962 4.996-1.962m-17.233 3.407c-1.125 0-2.06.39-2.809 1.173-.748.782-1.122 1.783-1.122 3.002 0 1.255.37 2.27 1.11 3.048.737.777 1.674 1.167 2.807 1.167s2.075-.393 2.828-1.18c.752-.787 1.128-1.798 1.128-3.035s-.37-2.242-1.108-3.016c-.74-.773-1.684-1.16-2.834-1.16m-.06-3.406c1.36 0 2.64.341 3.837 1.021a7.376 7.376 0 0 1 2.803 2.77 7.44 7.44 0 0 1 1.008 3.778c0 1.36-.339 2.633-1.014 3.817a7.304 7.304 0 0 1 -2.764 2.776c-1.167.667-2.452 1.002-3.857 1.002-2.067 0-3.833-.736-5.295-2.207-1.463-1.472-2.195-3.259-2.195-5.362 0-2.253.826-4.13 2.479-5.633 1.449-1.308 3.115-1.962 4.996-1.962m2.875 16.762c-.751.786-1.694 1.18-2.827 1.18s-2.07-.39-2.808-1.167a3.863 3.863 0 0 1 -.5-.66h-3.855c.351 1.107.958 2.104 1.835 2.985 1.462 1.472 3.227 2.207 5.295 2.207 1.405 0 2.69-.333 3.856-1a7.315 7.315 0 0 0 2.765-2.777c.26-.457.455-.932.616-1.415h-3.874a3.97 3.97 0 0 1 -.502.647" fill="#6c6d8b"/><path d="m54.662 42.223-1.1-3.185 6.702-1.57.682 2.585z" fill="#6c6d8b"/><path d="m36.563 22.037v-9.85h9.86v-7.996h-17.846v17.846h7.985zm13.124 3.265v.01h-13.124v-.01h-11.25v-24.375h24.375v24.375z" fill="url(#a)"/></g></svg>