<svg height="20" viewBox="0 0 20 20" width="20" xmlns="http://www.w3.org/2000/svg"><path d="m19.8226164 18.9800443-4.8603104-4.8603104c1.3037694-1.4988913 2.0931264-3.4545454 2.0931264-5.59201771 0-4.70509978-3.827051-8.52771619-8.52771621-8.52771619-4.70509978 0-8.52771619 3.827051-8.52771619 8.52771619 0 4.70066521 3.827051 8.52771621 8.52771619 8.52771621 2.13747231 0 4.09312641-.789357 5.59201771-2.0931264l4.8603104 4.8603104c.1152994.1152993.27051.1773836.4212861.1773836.150776 0 .3059867-.0576497.421286-.1773836.2305987-.2305987.2305987-.6119734 0-.8425721zm-18.62971174-10.45232811c0-4.0443459 3.29046563-7.33037694 7.33037694-7.33037694 4.0443459 0 7.3303769 3.29046563 7.3303769 7.33037694s-3.286031 7.33481151-7.3303769 7.33481151c-4.03991131 0-7.33037694-3.2904656-7.33037694-7.33481151z" fill="#fff"/></svg>