<?xml version="1.0" encoding="UTF-8"?>
<svg width="21px" height="22px" viewBox="0 0 21 22" version="1.1" xmlns="http://www.w3.org/2000/svg" xmlns:xlink="http://www.w3.org/1999/xlink">
    <!-- Generator: Sketch 54.1 (76490) - https://sketchapp.com -->
    <title>Shape</title>
    <desc>Created with Sketch.</desc>
    <g id="Crypto-currency-Info" stroke="none" stroke-width="1" fill="none" fill-rule="evenodd">
        <g id="shop" transform="translate(-895.000000, -1627.000000)" fill="#FFFFFF" fill-rule="nonzero">
            <g id="Group-5" transform="translate(404.000000, 1170.000000)">
                <g id="Group-Copy" transform="translate(381.000000, 110.000000)">
                    <g id="Bitmap">
                        <g id="Group-2" transform="translate(110.000000, 347.000000)">
                            <g id="shopping-cart-(4)" transform="translate(-0.000000, 0.000000)">
                                <path d="M5.83063244,14.4725216 L17.9419261,14.4725216 C19.315232,14.4725216 20.4355606,13.352193 20.4355606,11.9788871 L20.4355606,6.88319918 C20.4355606,6.87868172 20.4355606,6.86964682 20.4355606,6.86512936 C20.4355606,6.851577 20.4355606,6.84254209 20.4355606,6.82898973 C20.4355606,6.81995483 20.4355606,6.81091992 20.4310431,6.80188501 C20.4310431,6.7928501 20.4265257,6.77929774 20.4265257,6.77026283 C20.4265257,6.76122793 20.4220082,6.75219302 20.4220082,6.74315811 C20.4174908,6.7341232 20.4174908,6.7250883 20.4129733,6.71153593 C20.4084559,6.70250103 20.4084559,6.69346612 20.4039384,6.68443121 C20.3994209,6.6753963 20.3994209,6.6663614 20.3949035,6.65732649 C20.390386,6.64829158 20.3858686,6.63925667 20.3813511,6.62570431 C20.3768337,6.6166694 20.3723162,6.6076345 20.3677988,6.60311704 C20.3632813,6.59408214 20.3587639,6.58504723 20.3542464,6.57601232 C20.349729,6.56697741 20.3452115,6.56245996 20.340694,6.55342505 C20.3361766,6.54439014 20.3271417,6.53535524 20.3226242,6.52632033 C20.3181068,6.51728542 20.3135893,6.51276797 20.3045544,6.50373306 C20.300037,6.49469815 20.2910021,6.4901807 20.2864846,6.48114579 C20.2819671,6.47211088 20.2729322,6.46759343 20.2684148,6.45855852 C20.2638973,6.44952361 20.2548624,6.44500616 20.250345,6.44048871 C20.2413101,6.4314538 20.2367926,6.42693634 20.2277577,6.41790144 C20.2187228,6.41338398 20.2142053,6.40434908 20.2051704,6.39983162 C20.1961355,6.39531417 20.1871006,6.38627926 20.1780657,6.38176181 C20.1690308,6.37724435 20.1645133,6.3727269 20.1554784,6.36820945 C20.1464435,6.36369199 20.1374086,6.35917454 20.1283737,6.35013963 C20.1193388,6.34562218 20.1103039,6.34110472 20.101269,6.33658727 C20.0922341,6.33206982 20.0831992,6.32755236 20.0741643,6.32303491 C20.0651294,6.31851745 20.0560945,6.314 20.0470595,6.30948255 C20.0380246,6.30496509 20.0289897,6.30496509 20.0199548,6.30044764 C20.0109199,6.29593018 19.9973676,6.29141273 19.9883326,6.29141273 C19.9792977,6.29141273 19.9702628,6.28689528 19.9657454,6.28689528 C19.952193,6.28237782 19.9431581,6.28237782 19.9296057,6.28237782 C19.9250883,6.28237782 19.9205708,6.27786037 19.9115359,6.27786037 L4.56122793,4.15917454 L4.56122793,2.01790144 C4.56122793,1.99531417 4.56122793,1.9727269 4.55671047,1.95465708 C4.55671047,1.95013963 4.55671047,1.94562218 4.55219302,1.93658727 C4.55219302,1.92303491 4.54767556,1.90948255 4.54767556,1.89593018 C4.54315811,1.88237782 4.54315811,1.87334292 4.53864066,1.85979055 C4.53864066,1.85075565 4.5341232,1.84623819 4.5341232,1.83720329 C4.52960575,1.82365092 4.5250883,1.81009856 4.52057084,1.7965462 C4.52057084,1.79202875 4.51605339,1.78299384 4.51605339,1.77847639 C4.51153593,1.76492402 4.50701848,1.75588912 4.49798357,1.74233676 C4.49346612,1.7378193 4.49346612,1.72878439 4.48894867,1.72426694 C4.48443121,1.71523203 4.47991376,1.70619713 4.47087885,1.69716222 C4.4663614,1.68812731 4.46184394,1.68360986 4.45732649,1.67457495 C4.45280903,1.66554004 4.44829158,1.66102259 4.44377413,1.65198768 C4.43925667,1.64295277 4.43022177,1.63391786 4.42570431,1.62488296 C4.42118686,1.6203655 4.4166694,1.61584805 4.41215195,1.6113306 C4.40311704,1.60229569 4.39408214,1.59326078 4.38504723,1.58422587 C4.38052977,1.57970842 4.37601232,1.57519097 4.37149487,1.57067351 C4.36245996,1.5616386 4.35342505,1.5526037 4.33987269,1.54356879 C4.33535524,1.53905133 4.32632033,1.53453388 4.32180287,1.53001643 C4.31276797,1.52098152 4.30373306,1.51646407 4.29469815,1.50742916 C4.28114579,1.49839425 4.26759343,1.48935934 4.25855852,1.48484189 C4.25404107,1.48032444 4.24952361,1.48032444 4.24500616,1.47580698 C4.22693634,1.46677207 4.20434908,1.45773717 4.18627926,1.44870226 L0.856915811,0.0482915811 C0.545211499,-0.0827145791 0.188332649,0.0618439425 0.0573264887,0.373548255 C-0.0736796715,0.685252567 0.0708788501,1.04213142 0.382583162,1.17313758 L3.33699795,2.41995483 L3.33699795,5.18463655 L3.33699795,5.62282957 L3.33699795,8.9838152 L3.33699795,11.987922 L3.33699795,15.7825832 C3.33699795,17.0474702 4.28566324,18.0955195 5.50989322,18.2536304 C5.28853799,18.6240616 5.15753183,19.0577372 5.15753183,19.5185175 C5.15753183,20.878271 6.26430801,21.9805298 7.61954415,21.9805298 C8.97478029,21.9805298 10.0815565,20.8737536 10.0815565,19.5185175 C10.0815565,19.0667721 9.95958522,18.637614 9.74274743,18.2762177 L15.2269363,18.2762177 C15.0100986,18.6421314 14.8881273,19.0667721 14.8881273,19.5185175 C14.8881273,20.878271 15.9949035,21.9805298 17.3501396,21.9805298 C18.7053758,21.9805298 19.812152,20.8737536 19.812152,19.5185175 C19.812152,18.1632813 18.7053758,17.0565051 17.3501396,17.0565051 L5.83063244,17.0565051 C5.12590965,17.0565051 4.55671047,16.4827885 4.55671047,15.7825832 L4.55671047,14.1291951 C4.92714168,14.3460329 5.3653347,14.4725216 5.83063244,14.4725216 Z M8.8663614,19.514 C8.8663614,20.200653 8.30619713,20.7562998 7.6240616,20.7562998 C6.94192608,20.7562998 6.38176181,20.1961355 6.38176181,19.514 C6.38176181,18.8318645 6.94192608,18.2717002 7.6240616,18.2717002 C8.30619713,18.2717002 8.8663614,18.827347 8.8663614,19.514 Z M18.5969569,19.514 C18.5969569,20.200653 18.0367926,20.7562998 17.3546571,20.7562998 C16.6725216,20.7562998 16.1123573,20.1961355 16.1123573,19.514 C16.1123573,18.8318645 16.6725216,18.2717002 17.3546571,18.2717002 C18.0367926,18.2717002 18.5969569,18.827347 18.5969569,19.514 Z M17.9419261,13.252809 L5.83063244,13.252809 C5.12590965,13.252809 4.55671047,12.6790924 4.55671047,11.9788871 L4.55671047,8.97478029 L4.55671047,5.61379466 L4.55671047,5.38792197 L19.215848,7.40722382 L19.215848,11.9743696 C19.215848,12.6836099 18.6421314,13.252809 17.9419261,13.252809 Z" id="Shape"></path>
                            </g>
                        </g>
                    </g>
                </g>
            </g>
        </g>
    </g>
</svg>