<?xml version="1.0" encoding="UTF-8"?>
<svg width="78px" height="60px" viewBox="0 0 78 60" version="1.1" xmlns="http://www.w3.org/2000/svg" xmlns:xlink="http://www.w3.org/1999/xlink">
    <!-- Generator: Sketch 54.1 (76490) - https://sketchapp.com -->
    <title>Group 12</title>
    <desc>Created with Sketch.</desc>
    <g id="Crypto-currency-Info" stroke="none" stroke-width="1" fill="none" fill-rule="evenodd">
        <g id="home" transform="translate(-922.000000, -14.000000)" fill="#FFFFFF">
            <g id="Group-12" transform="translate(922.000000, 14.000000)">
                <path d="M0.608938953,53.3075581 L4.22725291,53.3075581 L4.22725291,38.8866279 L0.608938953,38.8866279 L0.608938953,53.3075581 Z M2.41875,32.9489826 C3.0525436,32.9489826 3.59672965,33.177907 4.05065407,33.637718 C4.50392442,34.096875 4.7315407,34.6541424 4.7315407,35.3075581 C4.7315407,35.9524709 4.5065407,36.5025436 4.0565407,36.9584302 C3.60784884,37.4130087 3.07020349,37.6399709 2.44491279,37.6399709 C1.80130814,37.6399709 1.2525436,37.4084302 0.799273256,36.9446948 C0.346002907,36.4809593 0.119040698,35.9178052 0.119040698,35.2545785 C0.119040698,34.6181686 0.343386628,34.0746366 0.792732558,33.6246366 C1.24207849,33.1733285 1.78364826,32.9489826 2.41875,32.9489826 L2.41875,32.9489826 Z" id="Fill-1"></path>
                <path d="M6.97140262,38.8864971 L10.5897166,38.8864971 L10.5897166,40.3646948 C11.4105741,39.672689 12.1542515,39.1919477 12.8200945,38.9211628 C13.4859375,38.651032 14.1681323,38.5156395 14.8647166,38.5156395 C16.2945131,38.5156395 17.5071584,39.0146948 18.5046148,40.0134593 C19.3431323,40.8617878 19.762391,42.1156395 19.762391,43.7776308 L19.762391,53.3074273 L16.1833212,53.3074273 L16.1833212,46.9923837 C16.1833212,45.2715262 16.106141,44.1288663 15.9517805,43.5630959 C15.7974201,42.9986337 15.5285974,42.5682558 15.1453125,42.2726163 C14.7613735,41.9769767 14.2884811,41.829157 13.7240189,41.829157 C12.9921148,41.829157 12.3642078,42.0737791 11.8396439,42.5636773 C11.3150799,43.0535756 10.9514172,43.7311919 10.7486555,44.5958721 C10.6426962,45.0465262 10.5897166,46.0210901 10.5897166,47.5215262 L10.5897166,53.3074273 L6.97140262,53.3074273 L6.97140262,38.8864971 Z" id="Fill-3"></path>
                <path d="M29.5578706,41.8553198 C28.4394113,41.8553198 27.5099782,42.2503779 26.7702253,43.0411483 C26.0304724,43.8325727 25.660923,44.8463808 25.660923,46.0838808 C25.660923,47.3292297 26.0370131,48.354811 26.7905015,49.1586628 C27.5433358,49.9631686 28.4701526,50.3647674 29.570952,50.3647674 C30.7070712,50.3647674 31.6489317,49.9690552 32.3978416,49.1782849 C33.1460974,48.3875145 33.5208794,47.351468 33.5208794,46.0701453 C33.5208794,44.8156395 33.1460974,43.7998692 32.3978416,43.0215262 C31.6489317,42.2444913 30.7024927,41.8553198 29.5578706,41.8553198 L29.5578706,41.8553198 Z M33.3612863,33.3197093 L36.9802544,33.3197093 L36.9802544,53.3074273 L33.3612863,53.3074273 L33.3612863,51.7827907 C32.6555451,52.4545203 31.9471875,52.9378779 31.2368677,53.2341715 C30.5258939,53.5304651 29.7567078,53.6782849 28.9266933,53.6782849 C27.0639026,53.6782849 25.4535828,52.9561919 24.0944259,51.5113517 C22.7352689,50.0665116 22.0556904,48.270436 22.0556904,46.123125 C22.0556904,43.8966715 22.7130305,42.0718169 24.0283648,40.6492151 C25.3436991,39.2266134 26.9409375,38.5156395 28.820734,38.5156395 C29.6854142,38.5156395 30.4977689,38.679157 31.2564898,39.0061919 C32.0158648,39.3332267 32.7170276,39.823125 33.3612863,40.4771948 L33.3612863,33.3197093 Z" id="Fill-4"></path>
                <path d="M39.6981105,53.3075581 L43.3164244,53.3075581 L43.3164244,38.8866279 L39.6981105,38.8866279 L39.6981105,53.3075581 Z M41.5066134,32.9489826 C42.141061,32.9489826 42.6852471,33.177907 43.1391715,33.637718 C43.5930959,34.096875 43.8194041,34.6541424 43.8194041,35.3075581 C43.8194041,35.9524709 43.5957122,36.5025436 43.1457122,36.9584302 C42.6963663,37.4130087 42.1587209,37.6399709 41.5334302,37.6399709 C40.8904797,37.6399709 40.3417151,37.4084302 39.8877907,36.9446948 C39.4338663,36.4809593 39.2075581,35.9178052 39.2075581,35.2545785 C39.2075581,34.6181686 39.4319041,34.0746366 39.88125,33.6246366 C40.3305959,33.1733285 40.8728198,32.9489826 41.5066134,32.9489826 L41.5066134,32.9489826 Z" id="Fill-5"></path>
                <path d="M70.2699201,41.9217733 C69.1455741,41.9217733 68.2096003,42.312907 67.4613445,43.0945203 C66.7137427,43.8767878 66.3396148,44.8775145 66.3396148,46.0967006 C66.3396148,47.3518605 66.7091642,48.3676308 67.4489172,49.1453198 C68.1867078,49.9223547 69.1233358,50.3115262 70.2561846,50.3115262 C71.3890334,50.3115262 72.331548,49.9190843 73.0843823,49.1315843 C73.8365625,48.3453924 74.2126526,47.3335465 74.2126526,46.0967006 C74.2126526,44.8598547 73.8431032,43.8545494 73.1040044,43.081439 C72.3649055,42.3083285 71.4204288,41.9217733 70.2699201,41.9217733 M70.2097456,38.5153779 C71.5702108,38.5153779 72.8495712,38.8561483 74.047173,39.5363808 C75.2441206,40.2166134 76.1787863,41.1401599 76.850516,42.3063663 C77.5222456,43.4725727 77.8577834,44.731657 77.8577834,46.0836192 C77.8577834,47.4440843 77.5196294,48.7169041 76.8439753,49.9007703 C76.1683212,51.0852907 75.2467369,52.0107994 74.0798765,52.6772965 C72.9136701,53.3444477 71.628423,53.6786773 70.2234811,53.6786773 C68.1559666,53.6786773 66.3899782,52.9428488 64.9281323,51.4718459 C63.4656323,50.000189 62.7343823,48.2132703 62.7343823,46.109782 C62.7343823,43.8565116 63.5604724,41.9793314 65.2133067,40.4769331 C66.6620712,39.1694477 68.3279869,38.5153779 70.2097456,38.5153779" id="Fill-6"></path>
                <path d="M52.9766424,41.9217733 C51.8522965,41.9217733 50.9163227,42.312907 50.1680669,43.0945203 C49.4204651,43.8767878 49.0463372,44.8775145 49.0463372,46.0967006 C49.0463372,47.3518605 49.4158866,48.3676308 50.1556395,49.1453198 C50.8934302,49.9223547 51.8300581,50.3115262 52.962907,50.3115262 C54.0957558,50.3115262 55.0382703,49.9190843 55.7911047,49.1315843 C56.5432849,48.3453924 56.919375,47.3335465 56.919375,46.0967006 C56.919375,44.8598547 56.5498256,43.8545494 55.8107267,43.081439 C55.0716279,42.3083285 54.1271512,41.9217733 52.9766424,41.9217733 M52.916468,38.5153779 C54.2769331,38.5153779 55.5562936,38.8561483 56.7538953,39.5363808 C57.950843,40.2166134 58.8855087,41.1401599 59.5572384,42.3063663 C60.228968,43.4725727 60.5645058,44.731657 60.5645058,46.0836192 C60.5645058,47.4440843 60.2263517,48.7169041 59.5506977,49.9007703 C58.8750436,51.0852907 57.9534593,52.0107994 56.7865988,52.6772965 C55.6203924,53.3444477 54.3351453,53.6786773 52.9302035,53.6786773 C50.862689,53.6786773 49.0967006,52.9428488 47.6348547,51.4718459 C46.1723547,50.000189 45.4411047,48.2132703 45.4411047,46.109782 C45.4411047,43.8565116 46.2671948,41.9793314 47.9200291,40.4769331 C49.3687936,39.1694477 51.0347093,38.5153779 52.916468,38.5153779" id="Fill-7"></path>
                <path d="M55.7909084,55.2765044 C55.0387282,56.0626962 54.0955596,56.4564462 52.9633648,56.4564462 C51.8298619,56.4564462 50.8938881,56.0672747 50.1554433,55.2902398 C49.9624927,55.0868241 49.7970131,54.8650945 49.6544259,54.6296294 L45.7999927,54.6296294 C46.1512282,55.7369695 46.7582049,56.7344259 47.6346584,57.6154578 C49.0971584,59.0871148 50.8624927,59.8222892 52.9300073,59.8222892 C54.3349491,59.8222892 55.6201962,59.4887137 56.7864026,58.8222166 C57.9539172,58.1544113 58.8748474,57.2289026 59.5505015,56.0450363 C59.8114753,55.5878416 60.0063881,55.1129869 60.1666352,54.6296294 L56.2925799,54.6296294 C56.1493387,54.8592078 55.9832049,55.0757049 55.7909084,55.2765044" id="Fill-8"></path>
                <polygon id="Fill-9" points="54.662311 42.223234 53.5615116 39.0379142 60.2637645 37.4674927 60.9459593 40.0530305"></polygon>
                <path d="M28.5771255,22.0369731 L46.4228745,22.0369731 L46.4228745,4.19139902 L28.5771255,4.19139902 L28.5771255,22.0369731 Z M25.3125,25.301686 L49.6875,25.301686 L49.6875,0.926686047 L25.3125,0.926686047 L25.3125,25.301686 Z" id="Fill-10"></path>
                <polygon id="Fill-11" points="36.5625 25.3125 49.6875 25.3125 49.6875 12.1875 36.5625 12.1875"></polygon>
            </g>
        </g>
    </g>
</svg>