<svg height="50" viewBox="0 0 53 50" width="53" xmlns="http://www.w3.org/2000/svg" xmlns:xlink="http://www.w3.org/1999/xlink"><linearGradient id="a" x1="100%" x2="3.06%" y1="100%" y2="3.06%"><stop offset="0" stop-color="#00d3a7"/><stop offset="1" stop-color="#02c0d0"/></linearGradient><path d="m45.814 28.753-1.164-5.921c-.318-1.662-.869-2.932-1.68-3.88-1.048-1.222-2.518-1.869-4.25-1.869h-4.777v-8.14c0-1.122-.91-2.032-2.032-2.032h-4.472a2.033 2.033 0 0 0 0 4.065h2.439v17.693h-19.715c-1.123 0-2.033.91-2.033 2.032 0 1.123.91 2.023 2.033 2.023h34.334c1.922.22 3.47 1.79 3.47 3.77v5.285h-4.414a6.107 6.107 0 0 0 -5.748-4.065c-2.65 0-4.91 1.699-5.748 4.065h-12.59a6.107 6.107 0 0 0 -5.747-4.065 6.108 6.108 0 0 0 -5.747 4.06 4.07 4.07 0 0 1 -3.908-4.06v-17.694a2.033 2.033 0 0 0 -4.065 0v17.694c0 4.429 3.56 8.04 7.97 8.126a6.107 6.107 0 0 0 5.75 4.069c2.65 0 4.909-1.7 5.747-4.065h12.59a6.107 6.107 0 0 0 5.748 4.065c2.65 0 4.909-1.7 5.748-4.065h6.447c1.123 0 2.033-.91 2.033-2.033v-7.317c0-3.784-2.667-6.958-6.22-7.741zm-11.87-7.604h4.776c.62 0 1.47 0 1.939 2.452 0 .004 0 .007.002.01l.994 5.058h-7.712v-7.52zm-20.224 24.695a2.035 2.035 0 0 1 -2.033-2.033c0-1.12.912-2.032 2.033-2.032 1.12 0 2.032.911 2.032 2.032 0 1.12-.912 2.033-2.032 2.033zm24.085 0a2.035 2.035 0 0 1 -2.033-2.033c0-1.12.912-2.032 2.033-2.032 1.12 0 2.032.911 2.032 2.032 0 1.12-.911 2.033-2.032 2.033zm-37.176-34.21a2.032 2.032 0 0 1 2.815-2.931l6.486 6.227c.315.3.682.325.87.312.185-.013.528-.081.801-.399l10.019-13.993a2.032 2.032 0 1 1 3.305 2.366l-10.059 14.05a5.24 5.24 0 0 1 -4.14 2.042 5.24 5.24 0 0 1 -3.605-1.44l-6.492-6.233z" fill="url(#a)"/></svg>