<svg height="50" viewBox="0 0 50 50" width="50" xmlns="http://www.w3.org/2000/svg" xmlns:xlink="http://www.w3.org/1999/xlink"><linearGradient id="a" x1="100%" x2="3.06%" y1="100%" y2="3.06%"><stop offset="0" stop-color="#00d3a7"/><stop offset="1" stop-color="#02c0d0"/></linearGradient><path d="m48.88 8.763a1.95 1.95 0 0 0 -2.642.788l-5.348 9.893h-31.878l-5.348-9.893a1.95 1.95 0 0 0 -3.43 1.853l5.39 9.97-4.077 7.212-.024.044a3.801 3.801 0 0 0 .1 3.771 3.8 3.8 0 0 0 3.283 1.858h.942v7.894c0 4.3 3.498 7.798 7.798 7.798h22.611c4.3 0 7.797-3.498 7.797-7.798a1.95 1.95 0 0 0 -3.898 0 3.903 3.903 0 0 1 -3.899 3.899h-9.356v-8.967a1.95 1.95 0 1 0 -3.9 0v8.967h-9.355a3.903 3.903 0 0 1 -3.899-3.899v-7.893h6.735a6.523 6.523 0 0 0 5.77-3.468l2.65-4.986 2.65 4.986a6.523 6.523 0 0 0 5.771 3.468h11.577a3.8 3.8 0 0 0 3.284-1.858 3.8 3.8 0 0 0 .074-3.815l-4.026-7.123 5.437-10.059c.512-.947.159-2.13-.788-2.641zm-30.07 20.197a2.63 2.63 0 0 1 -2.328 1.4h-11.46l3.968-7.018h12.806zm14.513 1.4c-.977 0-1.87-.537-2.328-1.4l-2.987-5.618h12.807l3.967 7.017h-11.459zm-16.94-20.628a1.95 1.95 0 0 1 2.712-2.8l5.11 4.951a.576.576 0 0 0 .817-.033l7.898-10.989a1.949 1.949 0 1 1 3.166 2.275l-7.941 11.05c-.022.029-.043.058-.066.086a4.485 4.485 0 0 1 -3.48 1.663 4.488 4.488 0 0 1 -3.097-1.24l-5.12-4.962z" fill="url(#a)"/></svg>