<svg height="50" viewBox="0 0 44 50" width="44" xmlns="http://www.w3.org/2000/svg" xmlns:xlink="http://www.w3.org/1999/xlink"><linearGradient id="a" x1="100%" x2="3.06%" y1="100%" y2="3.06%"><stop offset="0" stop-color="#00d3a7"/><stop offset="1" stop-color="#02c0d0"/></linearGradient><path d="m42.833 9.037a1.949 1.949 0 0 1 1.167 1.783v15.4c0 4.29-1.23 8.61-3.556 12.496a1.973 1.973 0 0 1 -2.692.68 1.941 1.941 0 0 1 -.686-2.672c1.966-3.282 3.005-6.915 3.005-10.505v-14.133l-18.165-8.002-17.977 7.996v14.137c0 10.406 8.613 19.883 18.071 19.883 3.343 0 6.611-1.084 9.451-3.135a1.974 1.974 0 0 1 2.744.429 1.94 1.94 0 0 1 -.432 2.723c-3.516 2.541-7.584 3.883-11.763 3.883-2.985 0-5.904-.697-8.677-2.073-2.589-1.284-4.932-3.096-6.965-5.386-4.04-4.553-6.358-10.503-6.358-16.323v-15.4c0-.767.455-1.464 1.16-1.778l19.939-8.87a1.978 1.978 0 0 1 1.6-.002l20.135 8.87zm-12.118 7.464a1.974 1.974 0 0 1 2.74-.45 1.94 1.94 0 0 1 .455 2.72l-9.722 13.475c-.021.03-.043.058-.066.087a5.075 5.075 0 0 1 -7.419.49l-.017-.016-6.268-6.07a1.939 1.939 0 0 1 -.034-2.757 1.975 1.975 0 0 1 2.777-.034l6.258 6.06c.309.287.658.31.841.298.178-.012.509-.077.773-.382l9.682-13.42z" fill="url(#a)" fill-rule="evenodd"/></svg>