<svg height="60" viewBox="0 0 78 60" width="78" xmlns="http://www.w3.org/2000/svg"><g fill="#fff" fill-rule="evenodd"><path d="m.60893895 53.3075581h3.61831396v-14.4209302h-3.61831396zm1.80981105-20.3585755c.6337936 0 1.17797965.2289244 1.63190407.6887354.45327035.459157.68088663 1.0164244.68088663 1.6698401 0 .6449128-.225 1.1949855-.675 1.6508721-.44869186.4545785-.98633721.6815407-1.61162791.6815407-.64360465 0-1.19236919-.2315407-1.64563953-.6952761-.45327035-.4637355-.68023256-1.0268896-.68023256-1.6901163 0-.6364099.22434593-1.1799419.67369186-1.6299419.44934593-.4513081.9909157-.675654 1.62601744-.675654z"/><path d="m6.97140262 38.8864971h3.61831398v1.4781977c.8208575-.6920058 1.5645349-1.1727471 2.2303779-1.443532.665843-.2701308 1.3480378-.4055233 2.0446221-.4055233 1.4297965 0 2.6424418.4990553 3.6398982 1.4978198.8385175.8483285 1.2577762 2.1021802 1.2577762 3.7641715v9.5297965h-3.5790698v-6.3150436c0-1.7208575-.0771802-2.8635174-.2315407-3.4292878-.1543604-.5644622-.4231831-.9948401-.806468-1.2904796-.383939-.2956396-.8568314-.4434593-1.4212936-.4434593-.7319041 0-1.3598111.2446221-1.884375.7345203-.524564.4898983-.8882267 1.1675146-1.0909884 2.0321948-.1059593.4506541-.1589389 1.425218-.1589389 2.9256541v5.7859011h-3.61831398z"/><path d="m29.5578706 41.8553198c-1.1184593 0-2.0478924.3950581-2.7876453 1.1858285-.7397529.7914244-1.1093023 1.8052325-1.1093023 3.0427325 0 1.2453489.3760901 2.2709302 1.1295785 3.074782.7528343.8045058 1.6796511 1.2061046 2.7804505 1.2061046 1.1361192 0 2.0779797-.3957122 2.8268896-1.1864825.7482558-.7907704 1.1230378-1.8268169 1.1230378-3.1081396 0-1.2545058-.374782-2.2702761-1.1230378-3.0486191-.7489099-.7770349-1.6953489-1.1662064-2.839971-1.1662064zm3.8034157-8.5356105h3.6189681v19.987718h-3.6189681v-1.5246366c-.7057412.6717296-1.4140988 1.1550872-2.1244186 1.4513808-.7109738.2962936-1.4801599.4441134-2.3101744.4441134-1.8627907 0-3.4731105-.722093-4.8322674-2.1669332-1.359157-1.4448401-2.0387355-3.2409157-2.0387355-5.3882267 0-2.2264535.6573401-4.0513081 1.9726744-5.4739099 1.3153343-1.4226017 2.9125727-2.1335756 4.7923692-2.1335756.8646802 0 1.6770349.1635175 2.4357558.4905524.759375.3270348 1.4605378.8169331 2.1047965 1.4710029z"/><path d="m39.6981105 53.3075581h3.6183139v-14.4209302h-3.6183139zm1.8085029-20.3585755c.6344476 0 1.1786337.2289244 1.6325581.6887354.4539244.459157.6802326 1.0164244.6802326 1.6698401 0 .6449128-.2236919 1.1949855-.6736919 1.6508721-.4493459.4545785-.9869913.6815407-1.612282.6815407-.6429505 0-1.1917151-.2315407-1.6456395-.6952761-.4539244-.4637355-.6802326-1.0268896-.6802326-1.6901163 0-.6364099.224346-1.1799419.6736919-1.6299419.4493459-.4513081.9915698-.675654 1.6253634-.675654z"/><path d="m70.2699201 41.9217733c-1.124346 0-2.0603198.3911337-2.8085756 1.172747-.7476018.7822675-1.1217297 1.7829942-1.1217297 3.0021803 0 1.2551599.3695494 2.2709302 1.1093024 3.0486192.7377906.7770349 1.6744186 1.1662064 2.8072674 1.1662064s2.0753634-.3924419 2.8281977-1.1799419c.7521802-.7861919 1.1282703-1.7980378 1.1282703-3.0348837s-.3695494-2.2421512-1.1086482-3.0152616c-.7390989-.7731105-1.6835756-1.1596657-2.8340843-1.1596657m-.0601745-3.4063954c1.3604652 0 2.6398256.3407704 3.8374274 1.0210029 1.1969476.6802326 2.1316133 1.6037791 2.803343 2.7699855.6717296 1.1662064 1.0072674 2.4252907 1.0072674 3.7772529 0 1.3604651-.338154 2.6332849-1.0138081 3.8171511-.6756541 1.1845204-1.5972384 2.1100291-2.7640988 2.7765262-1.1662064.6671512-2.4514535 1.0013808-3.8563954 1.0013808-2.0675145 0-3.8335029-.7358285-5.2953488-2.2068314-1.4625-1.4716569-2.19375-3.2585756-2.19375-5.3620639 0-2.2532704.8260901-4.1304506 2.4789244-5.6328489 1.4487645-1.3074854 3.1146802-1.9615552 4.9964389-1.9615552"/><path d="m52.9766424 41.9217733c-1.1243459 0-2.0603197.3911337-2.8085755 1.172747-.7476018.7822675-1.1217297 1.7829942-1.1217297 3.0021803 0 1.2551599.3695494 2.2709302 1.1093023 3.0486192.7377907.7770349 1.6744186 1.1662064 2.8072675 1.1662064 1.1328488 0 2.0753633-.3924419 2.8281977-1.1799419.7521802-.7861919 1.1282703-1.7980378 1.1282703-3.0348837s-.3695494-2.2421512-1.1086483-3.0152616c-.7390988-.7731105-1.6835755-1.1596657-2.8340843-1.1596657m-.0601744-3.4063954c1.3604651 0 2.6398256.3407704 3.8374273 1.0210029 1.1969477.6802326 2.1316134 1.6037791 2.8033431 2.7699855.6717296 1.1662064 1.0072674 2.4252907 1.0072674 3.7772529 0 1.3604651-.3381541 2.6332849-1.0138081 3.8171511-.6756541 1.1845204-1.5972384 2.1100291-2.7640989 2.7765262-1.1662064.6671512-2.4514535 1.0013808-3.8563953 1.0013808-2.0675145 0-3.8335029-.7358285-5.2953488-2.2068314-1.4625-1.4716569-2.19375-3.2585756-2.19375-5.3620639 0-2.2532704.8260901-4.1304506 2.4789244-5.6328489 1.4487645-1.3074854 3.1146802-1.9615552 4.9964389-1.9615552"/><path d="m55.7909084 55.2765044c-.7521802.7861918-1.6953488 1.1799418-2.8275436 1.1799418-1.1335029 0-2.0694767-.3891715-2.8079215-1.1662064-.1929506-.2034157-.3584302-.4251453-.5010174-.6606104h-3.8544332c.3512355 1.1073401.9582122 2.1047965 1.8346657 2.9858284 1.4625 1.471657 3.2278343 2.2068314 5.2953489 2.2068314 1.4049418 0 2.6901889-.3335755 3.8563953-1.0000726 1.1675146-.6678053 2.0884448-1.593314 2.7640989-2.7771803.2609738-.4571947.4558866-.9320494.6161337-1.4154069h-3.8740553c-.1432412.2295784-.309375.4460755-.5016715.646875"/><path d="m54.662311 42.223234-1.1007994-3.1853198 6.7022529-1.5704215.6821948 2.5855378z"/><g transform="translate(25)"><path d="m3.57712552 22.0369731h17.84574898v-17.84557408h-17.84574898zm-3.26462552 3.2647129h24.375v-24.37499995h-24.375z"/><path d="m11.5625 25.3125h13.125v-13.125h-13.125z"/></g></g></svg>