<svg height="50" viewBox="0 0 50 50" width="50" xmlns="http://www.w3.org/2000/svg" xmlns:xlink="http://www.w3.org/1999/xlink"><linearGradient id="a" x1="100%" x2="3.06%" y1="100%" y2="3.06%"><stop offset="0" stop-color="#00d3a7"/><stop offset="1" stop-color="#02c0d0"/></linearGradient><path d="m48.231 4.482-2.779-2.772a5.866 5.866 0 0 0 -8.285.008l-6.024 6.027-14.009 3.394a11.763 11.763 0 0 0 -8.46 8.008l-8.544 28.336a1.953 1.953 0 0 0 2.435 2.433l28.236-8.536a11.762 11.762 0 0 0 8.003-8.476l1.295-5.382a1.953 1.953 0 1 0 -3.798-.914l-1.295 5.382a7.841 7.841 0 0 1 -5.335 5.65l-20.781 6.284 8.488-8.49a59.98 59.98 0 0 0 3.162-.814c3.785-1.093 4.957-1.92 5.556-2.519a5.768 5.768 0 0 0 0-8.148 5.769 5.769 0 0 0 -8.149 0c-.598.598-1.426 1.77-2.518 5.555a59.944 59.944 0 0 0 -.814 3.164l-8.503 8.506 6.301-20.904a7.842 7.842 0 0 1 5.64-5.338l13.542-3.281 7.504 7.5c.366.365.863.57 1.38.57h.001c.518 0 1.015-.205 1.381-.572l6.38-6.383a5.82 5.82 0 0 0 1.712-4.145 5.822 5.822 0 0 0 -1.722-4.142zm-27.52 22.23a1.858 1.858 0 0 1 2.622.002c.724.723.724 1.9.003 2.622-.425.399-2.162 1.05-4.268 1.643.594-2.105 1.244-3.84 1.643-4.267zm24.765-16.702-4.997 5-5.54-5.537 4.992-4.995c.76-.762 2-.764 2.762-.003l2.78 2.773c.369.369.572.86.573 1.38a1.94 1.94 0 0 1 -.57 1.382z" fill="url(#a)"/></svg>