<svg height="50" viewBox="0 0 50 50" width="50" xmlns="http://www.w3.org/2000/svg" xmlns:xlink="http://www.w3.org/1999/xlink"><linearGradient id="a" x1="100%" x2="3.06%" y1="100%" y2="3.06%"><stop offset="0" stop-color="#00d3a7"/><stop offset="1" stop-color="#02c0d0"/></linearGradient><path d="m26.754 14.773a5.855 5.855 0 0 1 8.27 0 5.855 5.855 0 0 1 0 8.27 5.83 5.83 0 0 1 -4.135 1.71 5.83 5.83 0 0 1 -4.135-1.71 5.855 5.855 0 0 1 0-8.27zm5.513 5.514c.76-.76.76-1.997 0-2.757-.38-.38-.879-.57-1.378-.57-.5 0-.998.19-1.378.57-.76.76-.76 1.997 0 2.757s1.996.76 2.756 0zm16.038-18.611a5.592 5.592 0 0 1 1.554 4.619c-.413 3.346-1.404 8.35-3.775 13.18a1.95 1.95 0 0 1 -3.5-1.718c2.132-4.344 3.03-8.891 3.406-11.94a1.713 1.713 0 0 0 -.473-1.416 1.634 1.634 0 0 0 -1.351-.494c-4.483.45-12.863 2.047-18.641 7.702l-.525.53a1.94 1.94 0 0 1 -.338.34l-12.641 12.738 12.583 12.57 12.216-12.353a1.949 1.949 0 0 1 2.153-.42c.033.008.066.015.098.025a1.95 1.95 0 0 1 1.29 2.436l-6.477 21.053a1.95 1.95 0 0 1 -3.241.806l-9.504-9.495a9.68 9.68 0 0 1 -2.743 5.463c-1.566 1.566-4.732 2.774-9.68 3.693a72.837 72.837 0 0 1 -6.575.902 1.95 1.95 0 0 1 -2.103-2.103c.01-.127.263-3.137.901-6.574.92-4.949 2.128-8.115 3.694-9.681a9.68 9.68 0 0 1 5.453-2.742l-9.514-9.506a1.95 1.95 0 0 1 .777-3.234l21.023-6.805.396-.399.019-.019c2.907-2.849 6.61-5.078 11.004-6.628 3.859-1.36 7.56-1.935 9.986-2.178a5.528 5.528 0 0 1 4.528 1.648zm-13.83 31.673-7.113 7.194 3.748 3.744 3.366-10.938zm-20.954.939c-.295.35-.65 1.573-.917 3.026 1.46-.259 2.69-.607 3.044-.9.28-.284.433-.658.433-1.056 0-.293-.084-.572-.239-.812l-.454-.454a1.493 1.493 0 0 0 -.81-.238c-.4 0-.774.154-1.057.434zm-.002 6.82a33.61 33.61 0 0 1 -3.033.407 1.952 1.952 0 0 1 -1.537-.57 1.95 1.95 0 0 1 -.56-1.54c.005-.059.126-1.443.423-3.018.324-1.711.7-2.822 1.064-3.568-.93.27-1.782.772-2.486 1.475-1.473 1.474-2.652 6.971-3.218 11.469 4.497-.566 9.995-1.745 11.468-3.219a5.796 5.796 0 0 0 1.473-2.487c-.75.363-1.868.736-3.594 1.051zm-4.257-18.646 7.119-7.173-10.8 3.496zm29.238-9.109a1.95 1.95 0 1 1 0-3.899 1.95 1.95 0 0 1 0 3.899z" fill="url(#a)"/></svg>