<svg height="50" viewBox="0 0 52 50" width="52" xmlns="http://www.w3.org/2000/svg" xmlns:xlink="http://www.w3.org/1999/xlink"><linearGradient id="a" x1="100%" x2="3.059879%" y1="96.346864%" y2="6.489452%"><stop offset="0" stop-color="#00d3a7"/><stop offset="1" stop-color="#02c0d0"/></linearGradient><path d="m36.7501012 25.7689271-7.5027328 2.3771255 4.6645749 6.2194332c.670749.894332.4894737 2.1632591-.4048583 2.8340081-.3640688.273077-.7903846.4049595-1.2130567.4049595-.6154858 0-1.2232793-.2795546-1.6209514-.8098178l-4.740587-6.320749-4.559413 6.2038462c-.3966599.5397773-1.0106275.8256073-1.6327935.8256073-.4161943 0-.8361336-.1279352-1.197166-.3933199-.9008097-.6621457-1.0944332-1.9291498-.4322874-2.8299595l4.5067813-6.132085-7.4399797-2.3807692c-1.0647773-.3406883-1.6517207-1.480162-1.3110324-2.5449393.3407895-1.0647773 1.4801619-1.6518219 2.5449393-1.3110324l7.4801619 2.3936235v-7.7531377c0-1.1180161.9062753-2.0242915 2.0242915-2.0242915s2.0242915.9062754 2.0242915 2.0242915v7.7615385l7.5869433-2.4038461c1.0655871-.3378543 2.2034413.2525303 2.5410931 1.3183198.3378543 1.0657895-.2524291 2.2035425-1.3182186 2.5411943zm14.8948381-7.0653846c-.7643725-2.3524291-2.8466599-3.8724696-5.3048583-3.8724696h-10.3566802c-.6867409 0-1.2589069-.3953442-1.4564777-1.0035425l-3.2015182-9.91720651c-.7612349-2.34271255-2.8447369-3.85657895-5.3080972-3.85657895s-4.5468624 1.5138664-5.3093117 3.86022267l-3.1991903 9.90991899c-.1987855.6118421-.7709514 1.0071863-1.4576923 1.0071863h-10.35678142c-2.45819838 0-4.54048583 1.5200405-5.3048583 3.8724696-.7674089 2.3616397.02722673 4.825 2.0242915 6.2759109l8.37874492 6.0875506c.5388664.391498.7626518 1.080162.5567814 1.713664l-3.20040486 9.8497976c-.76123482 2.3427125.03461538 4.7921053 2.02742916 6.2399797 1.9928138 1.4479758 4.5682186 1.4479758 6.5612348 0l8.3788462-6.0875506c.5386639-.3914979 1.262753-.3915992 1.8016194 0l8.3788461 6.0875506c.9964575.7238867 2.1384616 1.0859312 3.2805668 1.0859312 1.1421053 0 2.2841094-.3619433 3.2805669-1.0859312 1.9928137-1.4478744 2.7886639-3.8971659 2.0274291-6.2399797l-2.1908907-6.7431174c-.3454453-1.0632591-1.4876518-1.6450405-2.5507085-1.2996964-1.0632591.3454454-1.6451417 1.4874494-1.2996963 2.5507085l2.1908906 6.7431174c.3192308.9826923-.3454453 1.5600203-.5567813 1.7135628-.2113361.1535425-.9659919.6071862-1.8017207 0l-8.3787449-6.0875506c-1.962247-1.4257085-4.5989879-1.4256073-6.5611336 0l-8.378745 6.0875506c-.8359311.6072874-1.5904858.1534413-1.8017206 0-.211336-.1535425-.8760122-.7308705-.5567814-1.7135628l3.2004049-9.8497975c.7494939-2.3066802-.0652834-4.8143725-2.0274292-6.240081l-8.37884613-6.0874494c-.8423077-.6119433-.63663968-1.4938259-.55354251-1.7495951.0819838-.2522268.42894737-1.075 1.45445344-1.075h10.3567814c2.4355263 0 4.5686235-1.5289474 5.3093117-3.8082996l3.1991903-9.91002028c.319332-.9825911 1.1964575-1.0590081 1.4576923-1.0590081s1.1383603.076417 1.4564777 1.05536437l3.2015183 9.91730771c.7394736 2.2757085 2.8725708 3.8046559 5.3080971 3.8046559h10.356579c1.0254048 0 1.3724696.8227732 1.4544534 1.075.0830972.255668.2887652 1.1376518-.5535425 1.7495951l-5.7131579 4.1509109c-.9044534.657085-1.1049595 1.923077-.4477733 2.8275304.6571863.9043522 1.9229757 1.1050607 2.8275304.4477733l5.7131579-4.150911c1.9969636-1.4508097 2.791498-3.9142712 2.0241903-6.2759109z" fill="url(#a)"/></svg>