<svg height="70" viewBox="0 0 70 70" width="70" xmlns="http://www.w3.org/2000/svg"><path d="m1149 2870c-19.299 0-35 15.701-35 35s15.701 35 35 35 35-15.701 35-35-15.701-35-35-35zm18.15683 35.96367-25.66666 17.5c-.19717.13416-.427.203-.65684.203-.18666 0-.3745-.04434-.54483-.13534-.38267-.20183-.62183-.5985-.62183-1.03133v-35c0-.43283.23916-.8295.62183-1.03133.38267-.203.84467-.175 1.20283.06766l25.66667 17.5c.31733.217.50867.5775.50867.96367s-.19134.74667-.50984.96367z" fill="#fff" transform="translate(-1114 -2870)"/></svg>