<svg height="50" viewBox="0 0 50 50" width="50" xmlns="http://www.w3.org/2000/svg"><path d="m49.246 25.802a1.954 1.954 0 0 0 -1.68-.352c-9.972 2.53-16.698 9.734-20.613 15.401v-12.377c2.022-.271 4.461-.961 6.639-2.28 3.898-2.36 5.959-6.082 5.959-10.765 0-7.229-4.05-12.504-4.222-12.725a1.952 1.952 0 0 0 -3.233.228c-.015.026-1.045 1.817-2.216 3.837-1.411-3.325-3.05-5.745-3.171-5.92a1.95 1.95 0 0 0 -1.661-.849 1.95 1.95 0 0 0 -1.66.848c-.12.176-1.785 2.634-3.204 6-1.182-2.042-2.271-3.903-2.288-3.93a1.953 1.953 0 0 0 -3.21-.234c-.177.222-4.334 5.502-4.334 12.744 0 4.685 2.08 8.41 6.014 10.77 2.196 1.317 4.65 2.006 6.68 2.276v12.376c-3.913-5.666-10.639-12.87-20.612-15.4a1.953 1.953 0 0 0 -2.434 1.893c0 4.917.8 9.076 2.38 12.362 1.44 2.998 3.565 5.36 6.314 7.022 4.76 2.876 10.65 3.273 16.306 3.273 4.939 0 10.124-.286 14.592-2.362a1.953 1.953 0 1 0 -1.645-3.542c-2.865 1.33-6.243 1.792-9.666 1.937 2.788-4.795 8.55-12.672 17.721-16.017-.256 3.581-1.045 6.555-2.355 8.865a1.953 1.953 0 1 0 3.398 1.927c1.96-3.458 2.955-7.988 2.955-13.465 0-.602-.278-1.171-.754-1.541zm-38.531 17.582c-4.052-2.449-6.263-6.836-6.72-13.37 9.172 3.345 14.935 11.22 17.723 16.017-4.001-.173-7.908-.776-11.003-2.647zm7.66-20.535c-2.732-1.64-4.117-4.136-4.117-7.42 0-3.128.99-5.851 1.914-7.712.725 1.248 1.566 2.7 2.25 3.896.046.082.1.157.156.23-.258 1.214-.414 2.455-.414 3.684a1.953 1.953 0 1 0 3.906 0c0-3.5 1.667-7.336 2.98-9.817 1.314 2.476 2.977 6.305 2.977 9.817a1.953 1.953 0 1 0 3.907 0c0-1.264-.166-2.541-.437-3.788.024-.035.049-.07.07-.107a825.63 825.63 0 0 0 2.244-3.856c.892 1.862 1.834 4.56 1.834 7.653 0 3.289-1.372 5.786-4.076 7.424-2.417 1.463-5.267 1.853-6.569 1.853-1.31 0-4.18-.39-6.625-1.857z" fill="#a8a9c4"/></svg>