<svg height="50" viewBox="0 0 51 50" width="51" xmlns="http://www.w3.org/2000/svg" xmlns:xlink="http://www.w3.org/1999/xlink"><linearGradient id="a" x1="100%" x2="3.06%" y1="100%" y2="3.06%"><stop offset="0" stop-color="#00d3a7"/><stop offset="1" stop-color="#02c0d0"/></linearGradient><path d="m44.599 13.777c-5.353-5.344-13.455-6.31-19.802-2.898-1.452-2.744-3.363-5.081-5.69-6.954a21.446 21.446 0 0 0 -6.055-3.43c-.74-.272-1.454-.404-2.131-.397-1.8.024-3.535.912-4.64 2.376a30.654 30.654 0 0 0 -6.116 20.498 30.713 30.713 0 0 0 8.97 19.694 25.064 25.064 0 0 0 17.733 7.334 25.058 25.058 0 0 0 15.26-5.166 1.972 1.972 0 1 0 -2.402-3.13 20.988 20.988 0 0 1 -10.91 4.254c-.507-1.249-.809-2.74-.9-4.446a1.972 1.972 0 1 0 -3.94.21c.082 1.52.306 2.924.667 4.204a21.107 21.107 0 0 1 -12.72-6.05 26.582 26.582 0 0 1 -6.054-9.336 12.582 12.582 0 0 1 6.077-3.166 1.972 1.972 0 1 0 -.816-3.86 16.432 16.432 0 0 0 -6.472 2.901c-1.531-7.347.007-15.253 4.772-21.565.376-.498.953-.8 1.543-.807.133 0 .361.023.718.155 3.013 1.107 7.156 3.564 9.85 8.973-.218.195-.431.397-.64.606a13.89 13.89 0 0 0 -1.953 2.445c-2.479-1.778-5.185-2.988-7.606-3.632a1.952 1.952 0 0 0 -2.372 1.337 1.952 1.952 0 0 0 1.353 2.475c2.254.598 4.796 1.8 7.004 3.537a13.839 13.839 0 0 0 -.47 3.585c0 2.496.66 4.89 1.898 6.985a24.177 24.177 0 0 0 -4.412 4.25 1.973 1.973 0 0 0 3.072 2.474 20.187 20.187 0 0 1 3.816-3.646 11.407 11.407 0 0 0 7.755 3.022c1.37 0 2.74-.243 4.038-.73.451.769 1.096 1.745 1.957 2.768a1.968 1.968 0 0 0 2.78.238c.833-.702.94-1.947.237-2.78a16.154 16.154 0 0 1 -1.577-2.232c.222-.19.44-.391.65-.602a9.473 9.473 0 0 0 2.771-6.495c.068-2.653-.916-5.134-2.77-6.986a7.967 7.967 0 0 0 -6.184-2.332 1.97 1.97 0 0 0 -.251.005c-1.574.14-3 .887-4.013 2.1a5.879 5.879 0 0 0 -1.353 4.321c.172 1.911 1.24 3.57 2.933 4.548a1.972 1.972 0 0 0 1.975-3.414c-.333-.193-.903-.642-.979-1.486a1.96 1.96 0 0 1 .451-1.44c.282-.338.66-.565 1.083-.659.035-.003.07-.004.105-.009a4.063 4.063 0 0 1 3.445 1.157c1.081 1.08 1.655 2.534 1.615 4.094a5.545 5.545 0 0 1 -1.615 3.804c-2.921 2.917-7.675 2.917-10.596 0a9.765 9.765 0 0 1 -2.887-6.955 9.765 9.765 0 0 1 2.887-6.956c4.997-4.989 13.127-4.989 18.125 0a16.473 16.473 0 0 1 4.712 9.678c-.839.23-1.686.327-2.144.28a1.973 1.973 0 0 0 -.397 3.926c.2.02.415.03.64.03.581 0 1.232-.067 1.894-.19a16.384 16.384 0 0 1 -1.484 5.048 1.972 1.972 0 0 0 3.557 1.705c3.74-7.8 2.137-17.15-3.991-23.268z" fill="url(#a)" fill-rule="evenodd"/></svg>