<svg height="50" viewBox="0 0 50 50" width="50" xmlns="http://www.w3.org/2000/svg" xmlns:xlink="http://www.w3.org/1999/xlink"><linearGradient id="a" x1="100%" x2="3.059879%" y1="99.997694%" y2="3.062044%"><stop offset="0" stop-color="#00d3a7"/><stop offset="1" stop-color="#02c0d0"/></linearGradient><path d="m18.5059546 13.8142666c1.0351943 1.449805 1.669484 2.4004781 1.669484 3.6275584v2.4107578c0 1.797408 1.2541119 3.3054642 2.9285453 3.688094.0464487 1.0294834.8044743 1.8491867 1.8472832 1.8491867 1.0443317 0 1.9885325-.821607 2.0441185-1.8537554 1.6748142-.3902444 2.9266417-1.8929703 2.9266417-3.6835253v-2.4107578c0-1.1547423.5703277-2.0269858 1.5008224-3.3545778 1.0557535-1.506914 2.3669743-3.3774215 2.3970517-6.16281367.0003807-.01522905.0007614-.03045809.0007614-.04606794v-.05215945c0-.01522904-.0003807-.03007739-.0007614-.04530643-.048733-4.62924883-3.5658809-7.73216677-8.7825903-7.73216677-2.4157072 0-4.540159.65979835-6.1437774 1.90819932-1.7878898 1.3919347-2.7838694 3.45585098-2.8112817 5.82092164-.0003807.01599054-.0003807.03198099-.0003807.04835224v.05215945c0 .01789416.0003807.03578831.0007614.05330166.0342654 2.53639745 1.3028449 4.31286545 2.4233219 5.88259935zm7.5174372 3.9732578v1.9493177h-1.9493177v-1.9493177zm-.9860807-13.84015598c1.4646534 0 4.8675835.38110682 4.8843355 3.9047271-.0076145 1.59486169-.7515534 2.65594538-1.6915662 3.99762428-.4408808.6289595-.9065089 1.2940881-1.2959917 2.0391691h-3.7581476c-.4397386-.8581567-.9837963-1.6211318-1.4970151-2.3399427-.9057474-1.2689602-1.688901-2.36545146-1.6984192-3.69875429.0171327-2.87676657 2.6201571-3.90282349 5.0568043-3.90282349zm19.1014102 20.93955598c-.0003807-.0030458-.0007614-.0064724-.0011422-.0095182l5.3358767-6.6497624c.405854-.505985.533778-1.1806317.3407499-1.8000731-.1930282-.6194415-.6818806-1.1022022-1.3036063-1.2876157l-10.4288499-3.1128168c-1.031387-.3080075-2.1175986.2786914-2.4256061 1.3104593-.3076267 1.031387.2790722 2.1175986 1.3104593 2.4252253l7.6529758 2.2843567-4.5100816 5.6202791-14.7565638 4.2104502c-.1347771.0057109-.2687927.02627-.4012853.0605354-.1305891-.0338846-.2634625-.0544438-.3967166-.0605354l-14.78854475-4.2431926-4.4834308-5.5875367 7.65259505-2.2843567c1.0317678-.3076267 1.6184667-1.3934575 1.3104592-2.4252253-.3076267-1.0313871-1.3938383-1.6184668-2.4252253-1.3104593l-10.4288499 3.1128168c-.62172573.1854135-1.11057807.6681742-1.30360624 1.2876157-.19302817.6194414-.06548489 1.2940881.3407499 1.8000731l5.38232515 6.707252-5.41392544 7.1211014c-.38262973.50332-.49722836 1.1612147-.30762671 1.7642849.18960166.6030701.65979835 1.0770741 1.26172642 1.2708637l4.49637544 1.4490437v2.6140655c0 3.464227 2.32661735 6.5477278 5.65797088 7.4980202l9.6563566 2.7549343c1.2685794.3620704 2.5725664.5429154 3.8769341.5429154 1.3112208 0 2.6224415-.1827486 3.8971126-.5486264l9.5687896-2.745416c3.3248811-.9540997 5.6469298-4.0360776 5.6469298-7.4949744v-2.6608948l4.3958637-1.4079253c.6000244-.1926475 1.0702212-.6632248 1.2621071-1.26363.191886-.6004051.0814755-1.2563962-.2962048-1.7608583zm-35.31843923 2.5318286 12.38235553 3.5529362-3.8133528 5.1923429-12.22283139-3.9393732zm3.75510173 15.4845121c-1.6656768-.4751462-2.82879511-2.0167062-2.82879511-3.7490101v-1.3572886l7.78394551 2.5086044c.1972162.0635812.3986203.0940393.5977401.0940393.6087811 0 1.1970029-.2859253 1.5712567-.7953368l3.3024183-4.4963755v10.7372381c-.2581323-.0525403-.5151224-.1142179-.7698282-.1865559zm27.6780275-3.742157c0 1.7296387-1.1612146 3.2704373-2.8234649 3.7474872l-9.5687896 2.745416c-.3175256.0913743-.638097.1656159-.960572.2253899v-10.70678l3.1961958 4.4198496c.3734923.5166453.9659021.8071393 1.5796327.8071393.1983582 0 .3986202-.0300774.5946941-.0928971l7.9823039-2.5573374zm-7.8258254-2.9985989-3.7463451-5.1801597 12.4840096-3.5620736 3.587963 4.7937226z" fill="url(#a)"/></svg>