<svg height="46" viewBox="0 0 46 46" width="46" xmlns="http://www.w3.org/2000/svg" xmlns:xlink="http://www.w3.org/1999/xlink"><linearGradient id="a" x1="99.992658%" x2="3.066772%" y1="100%" y2="3.059879%"><stop offset="0" stop-color="#00d3a7"/><stop offset="1" stop-color="#02c0d0"/></linearGradient><path d="m43.8055708 33.7364157-3.8007584-3.8000579c-.7001858-.7001858-1.8357548-.7001858-2.5359406.0003503-.700536.7005361-.700536 1.8361051 0 2.5362908l.8826755.8823252-5.0834399 5.0890442-5.3359833-5.3345821 3.4841162-1.7208668c1.8956505-.9362665 3.0795565-2.8953156 3.0158077-4.9913195-.0409814-1.3527351-.6098167-2.6459247-1.6017757-3.640686l-2.894615-2.9033716c-.2406342-.2409845-.3464151-.4977309-.345014-.6448435.0017513-.135904.1103344-.389498.345014-.6248781l8.0607182-8.0848867c1.2042215-1.2080745 1.349933-3.01931051.3541209-4.4046205-.9933601-1.38145712-2.751005-1.81964245-4.2750213-1.06516506l-12.6996679 6.28520956-7.0981818-7.09678066c-.9394188-.94081989-2.1026589-1.65886939-3.3643244-2.07708938-.0539412-.01786369-.108583-.03327548-.1639254-.04588513l-8.5556469-1.95974966c-.60141028-.13765531-1.2315424.04343324-1.66797641.47986725-.43643392.43608367-.61822305 1.06621588-.48056774 1.66762607l1.95624694 8.56545441c.01260973.0553424.02802144.1099842.04588513.1639255.41751949 1.2623659 1.13451818 2.4266569 2.07814021 3.3713298l1.87323352 1.8630757c.34956745.3481663.80701754.5218993 1.26446754.5218993.46060249 0 .92120497-.1765351 1.271473-.5289048.69878466-.7022874.69563227-1.837506-.00665511-2.5359405l-1.49004025-1.481984 5.08238917-5.08869396 5.8620858 5.86103496-3.5408595 1.752391c-1.9450385.9625365-3.1429551 2.948206-3.0518855 5.0585708.0560429 1.2977432.6392393 2.5660637 1.6417063 3.5716831l2.8974172 2.9061739c.1950993.1954496.3078856.4420383.301931.6595548-.005254.1979014-.1180403.4262761-.3015808.6105171l-8.01483301 8.0386513c-1.2038712 1.2073739-1.34993304 3.0179094-.3548215 4.4032195.66761083.9296113 1.6816368 1.4322459 2.73804521 1.4322459.5134929 0 1.0367933-.1183906 1.5348744-.364629l12.7042216-6.2750518 9.1118725 9.1101212c1.3569384 1.3562379 3.1601182 2.1030093 5.0785362 2.1030093h.0017513c1.9184181-.0003502 3.7222984-.7481725 5.0788865-2.1051108 2.8000427-2.8014438 2.7989918-7.3584308-.0021016-10.1584735zm-34.96200355-28.39868115-3.59865371 3.60320726-1.06691646-4.67187505zm2.35975575 32.03411305 7.2656097-7.2873264c.8385417-.8409936 1.3170078-1.9226212 1.3471309-3.0459308.0322246-1.1989674-.4585009-2.3975847-1.3471309-3.2886666l-2.8974171-2.906524c-.3632279-.3639286-.5814449-.7993117-.5982578-1.1937135-.0297728-.6823221.3961532-1.3611416 1.0592105-1.6889925l18.6734893-9.24147172-7.3104441 7.33216072c-.8721674.8749695-1.3793555 2.011239-1.3916149 3.118086-.0122594 1.1446759.4949287 2.3170231 1.3916149 3.2165114l2.894615 2.9033717c.3457146.3467653.543616.7789961.5569262 1.2171814.0210161.6963328-.37899 1.3502832-1.01928 1.6665752zm30.067358 3.9874513c-.6791696.67952-1.5821607 1.0536062-2.5429458 1.0539565 0 0-.0003504 0-.0007006 0-.9604349 0-1.8634259-.3740863-2.5425957-1.0529058l-.3800408-.3800408 5.0837903-5.0890442.3814419.3814419c1.4028234 1.4021229 1.4031736 3.6837688.0010507 5.0865924z" fill="url(#a)"/></svg>