<svg height="50" viewBox="0 0 51 50" width="51" xmlns="http://www.w3.org/2000/svg" xmlns:xlink="http://www.w3.org/1999/xlink"><linearGradient id="a" x1="100%" x2="3.059879%" y1="99.804878%" y2="3.24306%"><stop offset="0" stop-color="#00d3a7"/><stop offset="1" stop-color="#02c0d0"/></linearGradient><path d="m50.0978474 24.9510763c0 1.891206-1.5334516 3.4246576-3.4246576 3.4246576-1.8912059 0-3.4246575-1.5334516-3.4246575-3.4246576 0-1.0403925.4643927-1.9718536 1.1967191-2.5998348-1.1588797-8.690833-8.0429764-15.59556939-16.7238718-16.7865552-.627599.78277887-1.5911662 1.28462877-2.6724559 1.28462877s-2.044857-.5018499-2.672456-1.28462877c-8.6808953 1.19098581-15.56537426 8.0957222-16.72387171 16.7865552.73232632.6279812 1.19671908 1.5594423 1.19671908 2.5998348 0 1.891206-1.53345157 3.4246576-3.42465754 3.4246576-1.89120596 0-3.42465753-1.5334516-3.42465753-3.4246576 0-1.2846287.70748229-2.4029935 1.75360812-2.9893132.64900323-5.140044 2.96714472-9.892903 6.68993092-13.61607142 1.1172181-1.11683591 2.32693246-2.10715822 3.61194346-2.96408698h-5.82115334c-.61880812.88674168-1.64620538 1.46771037-2.80967163 1.46771037-1.89120596 0-3.42465753-1.53345157-3.42465753-3.42465754 0-1.89120596 1.53345157-3.42465753 3.42465753-3.42465753 1.16346625 0 2.19086351.58096869 2.80967163 1.46771037h16.00492294c.6188081-.88674168 1.6462053-1.46771037 2.8096716-1.46771037 1.1634662 0 2.1908635.58096869 2.8096716 1.46771037h16.0049229c.6188081-.88674168 1.6462054-1.46771037 2.8096716-1.46771037 1.891206 0 3.4246576 1.53345157 3.4246576 3.42465753 0 1.89120597-1.5334516 3.42465754-3.4246576 3.42465754-1.1634662 0-2.1908635-.58096869-2.8096716-1.46771037h-5.8211533c1.2850109.85692876 2.4947253 1.84725107 3.6119434 2.96408698 3.7227862 3.72316842 6.0409277 8.47602742 6.6899309 13.61607142 1.0461259.5863197 1.7536082 1.7046845 1.7536082 2.9893132zm-15.0990705 1.3171172c1.2838644 2.3957314 1.1993945 5.3246544-.2197744 7.6427959-.5641511.9219057-1.7688967 1.2116256-2.6904201.6474744-.9219055-.5641512-1.2116255-1.7688968-.6474743-2.6908024.6956336-1.1363288.7376774-2.5715508.1104605-3.7464835l-4.7406281-8.7110904.0007645 7.5529751c.5381605 1.062179.9769447 2.1201535.9769447 2.7466059 0 1.6213613-1.3144417 2.9354207-2.9354207 2.9354207-1.6209791 0-2.9354208-1.3140594-2.9354208-2.9354207 0-.6279812.4406953-1.6890135.9800025-2.7531035l-.0007645-7.1260397-4.5449333 8.3365185c-.6260702 1.1699639-.5874663 2.5994527.0997584 3.7342527l3.8645885 6.1609436h6.546982c1.0805253 0 1.956565.8760396 1.9569471 1.956565l.0015289 5.4137108c.0026755 2.513454-2.0410347 4.5617508-4.5560176 4.5644264l-2.6174168.0030577c-.0019111 0-.0038221 0-.0053511 0-1.2165942 0-2.3605675-.4731838-3.2217007-1.3324059-.862662-.8607509-1.338139-2.0054885-1.3396679-3.2239939l-.0015289-5.1744435-3.9509692-6.2993059c-.0042044-.00688-.0084088-.0137598-.0126132-.0206396-1.4142001-2.3185238-1.4948477-5.2451536-.2106011-7.6378272.0022932-.0038223.0042043-.0076444.0061154-.0114666l8.3418695-15.2997339c.3428479-.6291279 1.0017888-1.02013516 1.718062-1.02013516h.0007644c.7166555 0 1.3755963.39215386 1.7180621 1.02128176l8.3021189 15.2553969c.0019112.0038221.0038223.0076443.0057333.0114665zm-8.0919001 15.7083231h-3.9119833l.0007645 3.4644081c.0003822.2320052.1192515.3852739.1903438.4559839.0707099.07071.2243608.1891971.4571305.1891971h.0007645l2.6174168-.0026756c.3569899-.0003822.6470921-.2912487.6467099-.6482387z" fill="url(#a)"/></svg>