<svg height="42" viewBox="0 0 127 42" width="127" xmlns="http://www.w3.org/2000/svg" xmlns:xlink="http://www.w3.org/1999/xlink"><linearGradient id="a" x1="50%" x2="50%" y1="0%" y2="100%"><stop offset="0" stop-color="#454773"/><stop offset="1" stop-color="#21223f"/></linearGradient><path d="m3.700025 17.6687c3.64-6.7351667 9.9289167-14.08166667 17.3553333-16.53458333 1.5254167-.38033334 3.5530834-.80791667 4.9058334.2345 1.2028333.89191666 1.3644166 2.41616666 1.092 3.78875-.357 1.62283333-1.4694167 3.6785-3.3290834 3.93983333-.3348333-.00058333-.6189166-.119-.8359166-.35408333-.48475-.47075-.4485834-1.15733334-.3459167-1.77683334.30625-1.288 1.49975-2.6565 2.8735-2.83616666.2350833-.1505.1353333-.43516667.0688333-.63583334-.1825833-.28583333-.3995833-.504-.7344166-.57166666-1.48925-.17325-2.6145.76066666-3.7566667 1.5435-4.3324167 3.48483333-7.4789167 7.96191663-10.1231667 12.42383333-2.15774997 4.0115833-3.9975833 8.1579167-4.5330833 12.845-.26308333 3.3985.81433333 6.7345833 3.8395 8.3696667 3.276 1.736 7.5168333.56175 10.8021667-.3313334l3.017-.9275 5.8006666-1.7214166c5.4979167-1.60475 12.38125-1.9658334 17.7496667.1621666 3.2439167 1.351 6.587 3.2048334 8.7021667 6.3939167 0 .0834167 0 .1843333-.1009167.1668333-4.60075-1.2553333-10.591-2.4978333-15.1538333-.3208333l-.2175834-.0501667c-1.3825-2.2155-3.72225-3.4463333-6.1150833-3.9235-7.7338333-.7466666-14.0933333 2.9149167-21.364 3.8278334-3.6855.3389166-7.637.2251666-10.206-2.597-4.05533333-4.0500834-3.57816667-11.1988334-1.652-16.0819167.62533333-1.7225833 1.40116667-3.3944167 2.261-5.033zm41.3574 6.17225c-.2543333.8365-.6428333 1.7389167-.3774167 2.6611667.0828334.1843333.2829167.3190833.46725.3698333.7536667.01925 1.25825-.6655833 1.7453334-1.1999167 2.205-3.0566666 3.89025-6.3495833 5.40925-9.6938333.25375-.70175.6574166-1.3533333.6434166-2.1408333-.01575-.168-.1831666-.28525-.31675-.3698334-.33425-.1516666-.6533333.0816667-.9216666.2146667-2.9715 2.28375-4.5739167 5.5609167-6.0585 8.6700833zm-22.68-7.7985833c.063 1.0050833.9980833 1.8795 1.88475 2.21725.217.0676666.5681667.23625.7536667-.0315.3365833-.6346667.5401666-1.3375834.7099166-2.0405.1703334-.9199167.3085834-2.1583334-.5763333-2.7644167-.3015833-.1685833-.7530833-.18725-1.0715833-.0373333-1.0068334.49875-1.7301667 1.5178333-1.7004167 2.6565zm-2.8775833 3.8750833c-.9444167 1.90575-1.9051667 3.8278333-1.9465834 6.08825.0991667.4194167.34825.9059167.8166667 1.0249167.50225.1359166.92225-.13125 1.3078333-.3809167 1.8474167-1.5510833 3.1278334-3.6726667 4.1731667-5.7125833.084-.2000834.2356667-.4509167.119-.6690834-1.1036667-.4386666-2.1729167-1.197-3.0234167-2.1536666l-.18375-.0344167c-.168.0326667-.2356666.2000833-.3529166.31675zm-5.1245834.1668333c1.9215-3.5268333 4.86675-7.8370833 8.9401667-9.1291666 1.0896667-.2473334 2.261-.1429167 3.0963333.5804166 1.7523334 1.7470834 1.0721667 4.7425.4783334 6.7999167 0 .11725.09975.2514167.217.2683333 1.5575-.0443333 2.81575-.777 3.9415833-1.8450833 2.4208333-2.70375 5.012-6.2451667 8.9454167-5.8298333.73675.1201666 1.4554166.54075 1.8380833 1.2290833.9980833 1.97925.01925 4.1696667-1.34225 5.6886667-.5215.5010833-1.1754167.88375-1.9285.6463333-.301-.1015-.55125-.4036667-.6673333-.70525-.28-1.3906667.5290833-2.6780833 1.6525833-3.41075.32025-.31675 1.2903333-.09625 1.0249167-.8166667-.2000834-.2858333-.5016667-.32025-.8195834-.3214166-1.9115833.7974166-3.1575833 2.7521666-4.2688333 4.3895833-1.3970833 2.18925-2.5275833 4.5120833-3.2725 6.9714167-.2041667.88725-.4590833 2.0416666.0571667 2.8635833.3826666.5203333 1.0190833.74025 1.6724166.5751667 1.8946667-.7466667 3.5583334-2.2650834 5.00325-3.8336667 3.3133334-3.9736667 5.0715-8.89175 9.5036667-12.1245833 1.3760833-.9496667 3.3215-1.68 4.9764167-.8038334.2671666.1015.4835833.4538334.8195833.3214167.2683333-.2665833.4544167-.8359167.9899167-.7 1.2226666.0215833 2.6296666-.0408333 3.8844166.0810833l.0834167.11725-.3540833.85225-6.881 13.9760834c-.0670834.1499166-.0845834.3511666-.0519167.5185833.1166667.2018333.3680833.1849167.5518333.1195833.9905-.5664166 1.764-1.61875 2.4540834-2.5036666.6055-.8353334 1.1445-1.7039167 1.5831666-2.6238334.1849167-.26775.4036667-.6008333.7723334-.5495.385.0513334.8703333-.1143333 1.155.1545834-.4398334 1.17075-1.1299167 2.2394166-1.7365834 3.3430833-1.869 2.8735-4.3085 6.2148333-7.7443333 7.0729167-.5699167.0653333-1.2728333.1131666-1.7068333-.3068334-.6685-.5045833-.6988334-1.3084166-.8808334-2.0294166-.0665-.084-.18375-.1015-.2840833-.06825-1.4618333 1.3183333-2.97325 2.6355-5.0318333 2.3776666-.6358334-.1365-1.23725-.6241666-1.5195834-1.2279166-.5325833-1.02375-.2770833-2.345-.3068333-3.48425-.049-.1341667-.217-.084-.2840833-.0338334-2.23475 2.2026667-4.65325 4.1865834-7.6189167 4.746-1.37375.16275-2.5614167-.2438333-3.479-1.218-2.21725-2.905-.462-6.7165.7029167-9.54275.0501666-.1335833.0344166-.3179166-.1324167-.3523333-.8044167.0641667-1.575.1954167-2.3455833.30975l-.2689167.301c-1.8036667 3.3425-3.7584167 6.88625-6.9988333 9.3700833-1.3428334.9665834-3.3384167 1.6298334-4.9093334.73675-1.6374166-1.1275833-1.7809166-3.13775-1.5738333-4.9956666.3925833-2.10875 1.15325-4.06525 2.0638333-5.9540834zm44.9960584-4.8349583c.6574166-1.30375 1.2145-2.65825 2.0399166-3.8943333.3354167-.3675.8545834-.3488334 1.30725-.39725l3.29875.0443333.1335834.13475c-.5570834 1.3206667-1.1649167 2.6244167-1.8561667 3.8949167-.168.33425-.5209167.6515833-.9065.7005833-1.3393333.0285833-2.76325.1073333-4.0355-.014-.1335833-.1341667-.0151667-.3179167.0186667-.469zm21.4181333-.2272667c.049.4526667.231.9385834.7 1.10775.903.2543334 1.6251667-.413 2.2971667-.9298333 2.42025-2.55325 3.8873333-5.5125 4.2676666-8.91041667.0011667-.50225.1715-1.13808333-.112-1.57441666-.20125-.03441667-.4188333.049-.5868333.16508333-1.6280833 1.08266667-3.1575833 2.66816667-4.26825 4.27175-1.1614167 1.7885-2.2225 3.6265833-2.29775 5.8700833zm-18.109 6.9206667c2.29425-4.74775 5.05575-9.3269167 8.9710833-13.36591667 3.7986667-3.78758333 7.9111667-6.85475 12.8881667-7.79216666 1.3568333-.19658334 2.8805-.0735 3.9159167.85108333.2000833.168.434.336.71925.23683333 3.5711666-1.428 8.5300833-1.93025 12.1070833-.14291666 2.073167 1.01266666 4.044833 2.30825 6.033417 3.55483333.25025.13475.132416.40191667-.00175.55241667-1.143334 1.26875-2.102917 2.57191666-3.129 3.89083333-.11725.11666667-.301584.06591667-.41825-.00116667l-5.2622503-3.61841666c-2.4564167-1.66658334-5.2820834-2.83208334-8.48225-2.30708334-.3523334.18316667-.1866667.61891667-.238.95375.0723333 3.28241667-1.0925834 6.14191667-2.6751667 8.74883337-1.2635 1.8211666-2.7259167 3.7245833-4.8714167 4.3370833-.9391666.19775-1.8421666-.0904167-2.4085833-.8458333-1.56625-2.3835-.1831667-5.292.9630833-7.41533337 1.3136667-2.30591666 3.34775-4.47591666 5.5475-6.14308333.05075-.08341667.1510834-.16625.0845834-.26716667-.217-.21816666-.58625-.08575-.854-.03675-3.5711667 1.1935-6.4289167 4.34816667-9.0679167 7.33658337-4.70925 5.79425-8.2804167 12.0785-10.3139167 18.9880833-.6288333 2.5929167-1.4799166 6.5759167 1.1596667 8.393 2.3228333 1.24775 4.5564167-.3529167 6.3029167-1.85325 2.65475-2.7043333 4.4409166-5.82925 5.173-9.3601667.12075-1.0540833.4100833-2.4931666-.55825-3.2170833-.8691667-.3885-1.5919167.329-2.1799167.9304167-1.3626667 1.63625-1.9378333 3.5933333-2.1799167 5.7026666-.6043333.5005-1.3259166.8160834-1.9640833 1.2996667-1.2086667.833-2.401 1.9506667-3.3594167 3.0695-.11725.0326667-.1341666-.1015-.1668333-.168-.1376667-3.8855833 1.2465833-7.2135 3.3845-10.2036667 1.6980833-1.9699166 3.8809167-3.654 6.524-3.0245833 1.1544167.3045 1.9203333 1.5300833 2.135 2.6191667.4223333 3.65225-1.1124167 6.846-2.7638333 9.8204166-2.6605834 4.17725-6.8611667 8.3988334-12.1846667 7.8948334-2.04225-.1236667-3.9468333-1.5370834-4.81075-3.4154167-2.0125-4.00925-.62125-9.1624167.7315-13.04275zm45.352475 13.0844c-.035583.4853333-.155167 1.0879167.212917 1.45775.1995.20125.518.2193333.769416.1365.989917-.5150833 1.629834-1.5685833 2.235334-2.4371667 2.020666-3.14125 3.505833-6.5018333 4.890666-9.9131666.051334-.3015834.1365-.7198334-.147583-.9216667-.819-.3879167-1.458333.5145-2.06325.9479167-2.671083 2.653-4.089167 5.8630833-5.423833 9.0900833zm-18.4566667-8.939c.063 1.0214167.8808334 1.9786667 1.8176667 2.317.18375.0676667.518.1528333.65275-.0810833.5745833-1.3043334 1.1153333-2.793.819-4.3009167-.1160833-.3523333-.4165-.7046667-.7845833-.8236667-.3680834-.1015-.7536667.0145834-1.0721667.1639167-.93975.6165833-1.3953333 1.63625-1.4326667 2.72475zm-4.8550833 9.3945833c.0309167.5693334.3138333 1.1561667.8995 1.3428334.3844167.13475.8038333-.0309167 1.13925-.19775 1.9308333-1.4326667 3.0770833-3.6394167 4.1224167-5.6455.1009166-.2006667.1860833-.518-.0816667-.67025-1.00275-.50575-1.9710833-1.2961667-2.772-2.1863334-.09975-.1009166-.2846667-.1184166-.4013333-.0513333-.7239167.9683333-1.1964167 2.03875-1.70275 3.1085833-.574 1.3545-1.1981667 2.6915-1.2034167 4.29975zm-.5378333-9.0953333c1.9343333-2.555 4.50625-5.34275 7.756-5.5498333.8195833.0204166 1.5388333.3575833 2.03875 1.0459166 1.3830833 2.0480834.2181666 4.6730834-.2916667 6.7474167-.0501667.1843333.0834167.3185.217.3686667.6696667.10325 1.44025.0058333 2.0270833-.294l.2525834-.3173334c2.3345-6.6564166 5.8047503-12.8403333 9.9277503-18.73724997 2.57425-3.40725 5.868333-6.92941666 9.692083-8.57441666.905917-.31441667 2.213167-.69533334 3.081167-.02216667.968333.78983333.695916 2.16241667.441 3.2165-.10325.93741667-1.142167 1.03366667-1.829334 1.25008333-.03325-.0175-.067083-.00058333-.100333-.03441666.01925-.60258334.338917-1.1375.457917-1.72316667.034416-.3185.08575-.58625-.04725-.88783333-.16625-.30158334-.534917-.20241667-.786334-.11958334-1.292083.63116667-2.333916 1.78325-3.326166 2.90208334-3.698917 4.29041666-6.377584 9.05391663-8.83925 13.86816663-.809084 1.6718334-1.653167 3.32675-2.311167 5.0656667-.018083.1009167.01575.168.099167.2350833.569333-.0145833.9065-.5996666 1.342833-.8989166 3.259083-2.9534167 5.899833-6.3431667 8.339333-9.78425.520917-.25025 1.122917-.2473334 1.726084-.29575l.11725.03325c-.035.4695833-.438084.8365-.657417 1.2541666-2.7265 3.9258334-5.8205 7.6825-9.583583 11.1025834l-2.720667 2.23475c-.571083.5005-.58975 1.2705-.877333 1.90575-.524417 1.7231666-1.0500003 3.479-1.1235003 5.3719166.01575.3179167.1318333.6195.399.7880834.7192503.3208333 1.2903333-.364 1.7943333-.8306667 3.682583-4.25775 5.308333-9.4768333 9.80875-13.2959167 1.478167-1.1666666 3.424167-2.1653333 5.329917-1.2874166.33425.1184166.583916.5541666.987.3546666.28525-.2000833.303333-.6515833.70525-.6340833 1.323-.01225 2.73-.0571667 4.00225.0478333.116666.1009167.032083.26775-.00175.385l-.910584 1.8386667-5.632083 11.368c-.253167.518-.58975 1.06925-.55825 1.6555.082833.2514167.350583.2695.568167.2199167 1.057583-.58275 1.8305-1.5510834 2.520583-2.5369167.690083-.9689167 1.246-1.9885833 1.902833-2.9738333.352334-.16625.837667-.0974167 1.222667-.0460834.233333.2181667-.068833.5016667-.119583.7530834-1.653167 3.4270833-3.96025 7.1703333-7.567 9.06675-.838834.4159166-1.995584.7968333-2.914917.2910833-.735-.5045833-.665-1.4256667-.996917-2.1303333-.067083-.1003334-.235083-.084-.3185-.0344167-1.495083 1.3346667-3.107416 2.8361667-5.198666 2.25925-1.304334-.6066667-1.450167-2.1145833-1.546417-3.4043333-.0665-.05075-.032667-.1505-.116083-.20125l-.167417.0665c-1.463 1.7529166-3.31275 3.9404166-5.7738333 3.731-.9374167-.0705834-1.7546667-.9776667-2.0364167-1.8153334-.8615833-2.7329166.0530833-5.7271666.665-8.3539166.0005833-.1510834-.1668333-.3021667-.2998333-.3196667l-2.0603334.02625-.336.3844167c-1.5178333 2.975-3.1855833 5.8496666-5.8065 8.3358333-1.37725 1.218-3.0718333 2.2335833-4.9624166 1.6741667-1.5715-.6755-1.9845-2.3846667-1.9786667-3.9923334.3325-4.0506666 2.1525-7.47775 4.3744167-10.7525833zm27.7540663-16.33135 1.782667-2.30475.268917-.23391667c5.158416-.09858333 9.188083-3.16575 12.817-6.78766666-.018084.48591666-.237417.93683333-.406584 1.372-2.380583 5.60175-8.157333 10.52158333-14.40425 10.60091663l-1.4735-.0221666c-.26775-.0676667-.082833-.3354167-.015166-.469zm7.397367 29.4637h.309167c.219333 0 .415333-.0151667.415333-.2776667 0-.21175-.191917-.25025-.372167-.25025h-.352333zm0 .2193333v.7396667h-.257833v-1.70625h.649833c.403083 0 .602583.14875.602583.4853333 0 .3050834-.191916.4386667-.44275.4695834l.485917.7513333h-.289917l-.450333-.7396667zm.313833 1.3661667c-.814333 0-1.503833-.6265-1.503833-1.4834167 0-.8493333.6895-1.4758333 1.503833-1.4758333.805584 0 1.4945.6265 1.4945 1.4758333 0 .8569167-.688916 1.4834167-1.4945 1.4834167zm-1.20575-1.4834167c0 .71225.527917 1.2366667 1.20575 1.2366667.669084 0 1.197-.5244167 1.197-1.2366667 0-.7005833-.527916-1.2296666-1.197-1.2296666-.677833 0-1.20575.5290833-1.20575 1.2296666z" fill="url(#a)" fill-rule="evenodd"/></svg>