<svg height="50" viewBox="0 0 121 50" width="121" xmlns="http://www.w3.org/2000/svg"><g fill="#21223f" fill-rule="evenodd" transform="translate(.740741)"><path d="m60.4212179 7.44762821c-3.0525641-.26538462-5.3532051 2.03525641-7.5205128 4.24679489-.1326923.3544872-.9294872.7525641-.3102564 1.150641 2.9205128.2653846 5.7070513-.575 7.8307692-2.5217949.6198718-.57499997 1.0621795-1.32692305.7525642-2.12371792-.1326924-.30961538-.4429488-.61923077-.7525642-.75192307m-7.2115384-.4423077c-1.1942308.22115385-2.5435898.74102564-3.273718 1.5923077-.7301282.85192307-1.1942307 1.68141029-.751923 2.56666669 1.5480769-1.1506411 2.300641-2.74358977 4.025641-3.71666669 0-.17692308.2660256-.30961539 0-.4423077m7.1230769-1.59294872c.8410257.04423077 1.5929487.35384616 2.2121795.88525642.8403846.79615384 1.0621795 2.12307692.6641026 3.18525641-1.548718 3.18525638-5.2282052 5.31282048-7.7423077 6.01730768-1.5044872.3538462-3.4070513.3538462-4.7788462-.1775641-.6634615.3980769-1.2237179 1.6852564-2.0352564 1.150641-1.1737179-.9173077-.1570513-2.351282-.8352564-3.3698718-.1397436-.2096153-.4916667-.225-.6685897-.5679487-.9288462-2.0352564.2211538-3.98141024 1.5038461-5.53012819 2.1391026-2.38589743 8.273718-5.04358974 11.6801282-1.59294872"/><path d="m86.8785256 20.6321154c1.4160257 3.450641 2.6102565 8.8923077 0 12.2108974-.7076923.7961539-1.9467948 1.5301282-2.7429487.9288462-2.9198718-2.3448718-4.1589743-5.7070513-5.9730769-8.7160257-.2653846-.1326923-.2653846.2211539-.3980769.3538462-.6634616 3.0532051.575641 7.0352564-1.5038462 9.4237179-.7967948.1326923-1.5416666-.276282-1.8141025-1.0615384-1.0173077-3.1410257.0442307-6.4153846.3096153-9.5564103.6192308-1.5929487.8852565-3.450641 2.2557693-4.6455128 2.2128205.8852564 3.2743589 3.3628205 4.5576923 5.176282.9288461 1.3717949 1.6814102 2.9205129 2.7429487 4.1589744.9288462-.3980769.4717949-1.6108974.4423077-2.3448718-.3538462-2.875641-1.15-5.5301282-1.9019231-8.2730769-.0448718-.7083333-.4429487-1.9025641.3089744-2.3448718 1.9916666.8846154 2.8320513 2.9641026 3.7166666 4.6897436"/><path d="m73.5171795 19.5701282c0 .6634615-.5307692 1.4929487-.973718 1.5923077-4.2474359.6641026-8.9807692.2653846-12.9628205 1.5929487-.1326923.4871795.4429487.575641.7525641.7083333 3.4064103.5307693 6.9897436.6634616 10.3083334 1.5038462 1.7551282.4461538 2.3891025 2.5217949 2.5217948 4.2474359.0807693 1.3602564-.4423077 3.0089744-1.7698718 3.9378205-3.2737179 2.0788462-8.2730769 1.9903846-11.5916666.0884616-1.2679487-.7121795-2.4775641-1.8589744-2.5653846-3.274359.0070512-1.124359.4865384-2.0096154 1.2826923-2.4333334 3.1852564-1.2833333 7.1230769-.575 9.8660256 1.0621795.1769231.8846154-.7820513.8365385-1.2384615 1.15-3.0525641 1.7698718-5.3538462-1.9910256-8.1852564-.6192307-.398077.2653846-.6858975 1.0064102-.2211539 1.2384615 3.4948718 1.5487179 7.3891026.4429487 10.8391026-.5307692.3987179-.1326923.8852564-.5307693.9294872-.9288462-.1326924-1.4160256-1.7256411-1.725641-2.7435898-2.1237179-3.0083333-.7519231-6.326282-.7519231-9.5557692-1.0621795-.6192308-.1326923-1.4083334-.5641026-1.5929487-1.0615385-.3538462-1.0615384-.3538462-2.5217949.4423077-3.4064102 4.1147435-3.6282052 10.3532051-3.3185898 15.5737179-2.3448718.3538462.1320512.7519231.2653846.8846154.6634615"/><path d="m54.1834615 21.2515385c.398077 4.2467948.6192308 8.1846153.5307693 12.6532051-.0884616.575-.7519231.7076923-1.1948718.9288461-.7076923.1326924-1.6217949-.0179487-1.9019231-.3980769-1.0179487-1.6371795-.6641026-3.849359-.7525641-5.8397436.1326923-3.1416666.0884615-6.5480769.9737179-9.4679487.1692308-.424359.6634616-.7967949 1.0621795-.5314102 1.0615385.5314102 1.2384616 1.5929487 1.2826923 2.6551282"/><path d="m103.336795 20.6321154c.214102.3570513.435256.9102564 0 1.15-1.990385.8852564-4.6891027.4871795-6.9903847.7525641-.6192308.5307692-1.1057693 1.4153846-.8846154 2.2115384.2211538.1326924.4205128.3352565.6634615.3096154 1.4160257.0884616 3.5391026-.6634615 4.4685896.6641026.228846.3942308-.029487 1.8692308-.6634614 1.9019231-1.725641.2217948-4.5647436-.2173077-5.3974359.2217948-1.0621795.7076924-.9737179 2.0788462-1.3717949 3.1852565.7519231.4871794 1.5410257-.0115385 2.4333334-.1326924 1.6371795-.2653846 3.451282-.751923 5.0878208-.3980769.309615.575.751923 1.1942308.442948 1.9019231-2.7878201 2.2128205-6.385897 4.4801282-10.2205124 2.8762821-1.4378205-.6455129-2.0794872-2.8314103-1.5929487-4.6903847.3096154-1.326923 1.6814102-2.6102564.8410256-4.025641-.1326923-.6192308.2205128-1.150641.7519231-1.2833333 1.4602564 0 1.15-1.8134616 1.9025641-2.6544872-.8403846-.9288462-2.9647436-.8846154-2.7429487-2.7423077 1.0173077-.5314102 2.2557692-.3544872 3.4064102-.5314102 2.6102564-.5307693 5.5301282-.8403847 8.1852568-.5307693.530769.1070513 1.239102 1.15 1.680769 1.8141026"/><path d="m18.4794231 22.4015385c-3.0525641.0442307-6.2826923.3538461-9.11410259 1.4153846-.575.2217948-1.2826923.8410256-.84038461 1.5929487 1.15 1.5487179 2.7948718 2.8205128 4.3352564 3.7166667 1.5416667.8955128 3.5839744 2.0352564 5.4423077 2.300641.4423077-2.8762821.4423077-5.7076923.3980769-8.6717949-.1769231-.0878205 0-.2653846-.2211538-.3538461m21.6788461-11.8570513c4.0826923 3.3371795 9.3794872 9.025641 8.7160257 15.5730769-.7967949 5.1769231-6.2826923 9.0705128-10.9282052 10.3089744-4.5121794 1.3275641-10.175641 1.1948718-14.776923.1326923-.3096154.8403846-.6192308 1.8583333-1.5929488 2.2121795-.6192307.2211538-1.4153846.0884615-1.9025641-.3096154-1.3711538-1.2833334-.2653846-3.7608975-2.2557692-4.5570513-3.8935897-1.6371795-8.09679486-4.8666667-10.0878205-8.848718-.26538461-.7961538.04423077-1.5923077.53076923-2.2121794 3.05320517-2.4333334 6.90192307-3.4064103 10.75128207-4.1583334.2211538.0878205.1326923-.2217949.3096154-.3102564.2211538-2.6544872.3096154-5.3532051 1.150641-7.7423077.1916667-.3352564.6634615-.4423077.9730769-.2211538 2.4333334 1.8583333 1.2826923 5.3532051 2.3448718 7.875641 4.6455128.2211538 9.2910257.4416667 12.9628205 3.0525641 1.2391026 1.0173077 1.5416667 2.9602564 1.1506411 4.0698718-.3910257 1.1096154-1.6814103 1.9025641-2.8756411 1.9910256-.7961538 0-2.300641.0769231-2.2121795-.5307692.0884616-.6083333 2.7057693-1.6044872 1.9019231-2.4333333-1.1551282-1.1929487-6.9384615-1.9019231-10.5217949-2.3448718-.4423076-.0884616-.8480769.0442307-.8480769.5307692-.0884615 3.3621795-.3544872 7.0788462.2211539 10.3083333.0442307.2217949.3096154.4871795.5314102.5307693 6.3262821 1.0179487 13.0070513.4429487 17.9621795-3.1846154 2.300641-1.8589744 3.0525641-4.4692308 2.6544872-7.3442308-1.9910257-8.0083333-10.3532051-12.8307692-17.2108974-15.92820511-6.6801283-2.9198718-14.0685898-4.42371795-21.98846158-4.02564103-1.26089744.0923077-3.25897436.52692308-3.27371795.97307693-.01474359.44679487 2.26410256.30641025 1.99102564 1.15064102-.27307693.84423077-2.58846154.34294872-3.27435898.13269231-.68525641-.21025641-.61923077-1.19487179-.44230769-1.81410256 1.72564103-3.05256411 6.54102564-3.29935898 8.71602564-3.40641026 12.03397432-.31025641 23.66987182 4.27307692 31.32371792 10.5294872"/><path d="m117.051859 23.1536538c-.530769-.0884615-.751923.6192308-1.194231.7525641-2.035256 2.3006411-4.070513 4.6012821-5.088461 7.3442308 1.371795.1762821 2.522436-.7083333 3.717307-1.1948718 2.034616-1.2826923 3.317949-3.4070513 3.185257-5.8397436-.088462-.3987179-.442949-.7083333-.619872-1.0621795m-7.122436-4.7782051c-.132692 3.849359-3.716667 6.2378205-3.716667 10.0871795.132693.1326923.221154.3102564.398077.2211539 2.875641-3.1410257 5.707052-7.6096154 9.910257-8.9365385 1.105769-.0884615 2.108974.8737179 2.521795 1.5923077 1.460256 2.9205128 1.10641 7.0346154-.928847 9.6891025-2.101282 2.6070513-5.751282 5.2211539-9.910256 4.7782052-1.725641 4.2474359-2.919872 8.7160256-3.583974 13.3615384-.353205.9288462-1.194872.0884616-1.725-.0891025-3.5839747-2.8314103-.641667-10.3262821-.398077-11.2814103.242948-.9551282 1.201282-3.2038461 1.901923-5.0878205-1.680769-3.0083333-.619231-6.6358974.752564-9.4237179 1.061538-1.8583334 2.521154-3.7160257 4.247436-5.1320513.220513 0 .398077.0442307.530769.2211538"/></g></svg>