<svg height="42" viewBox="0 0 135 42" width="135" xmlns="http://www.w3.org/2000/svg"><path d="m36.2127 33.9436091c-.2937273 2.1818182-1.7620909 4.0699091-3.8181818 4.9088182-1.0069091.4197272-2.0978182.5454545-3.1887273.4197272-1.0489091-.126-2.0978182-.4614545-3.1887273-1.090909-1.5103636-.8391819-3.0207272-2.1398182-4.7830909-4.0699091 2.769-3.3987273 4.4473637-6.5031819 5.0768182-9.2727273.2937273-1.3003636.3357273-2.4752727.2097273-3.5661818-.1677273-1.0489091-.5454546-2.0140909-1.1326364-2.853-1.3006363-1.8883637-3.4824545-2.979-5.916-2.979-2.4338182 0-4.6153636 1.1329091-5.9162727 2.979-.5871818.8389091-.9649091 1.8040909-1.1326364 2.853-.168 1.0909091-.126 2.3075454.2097273 3.5661818.6294545 2.7695454 2.3495455 5.9162727 5.0768182 9.3147273-1.7200909 1.9300909-3.2727273 3.2307272-4.7830909 4.0696363-1.0909091.6294546-2.1398182.9651818-3.1887273 1.0909091-1.13290909.126-2.22381818-.0417273-3.189-.4194545-2.05581818-.8391818-3.52418182-2.7272728-3.81790909-4.9090909-.126-1.0486364-.042-2.0978182.37745454-3.2727273.126-.4194546.33572728-.8389091.54545455-1.3426364.29372727-.6709091.62945455-1.3843636.96518182-2.0975454l.042-.0842728c2.895-6.2514545 5.99972728-12.628909 9.23045458-18.83863632l.126-.25172727c.3357272-.62945455.6711818-1.30063636 1.0069091-1.93009091.3357272-.67145455.7131818-1.30063636 1.174909-1.84609091.8809091-1.00690909 2.0558182-1.55236364 3.3564546-1.55236364s2.4755454.54545455 3.3567273 1.55236364c.4614545.54545455.8391818 1.17463636 1.1749091 1.84609091.3354545.62945455.6711818 1.30063636 1.0066363 1.93009091l.126.25172727c3.1887273 6.25172732 6.2937273 12.62918182 9.1887273 18.88090912v.0417272c.3357273.6714546.6291818 1.4269091.9649091 2.0978182.2097273.5037273.4197273.9231818.5454545 1.3426364.3357273 1.0909091.4617273 2.1400909.2937273 3.231zm-16.7408182-1.9718182c-2.2658182-2.8532727-3.7344545-5.5385454-4.2379091-7.8043636-.2097272-.9651818-.2517272-1.8040909-.1257272-2.5592728.0837272-.6714545.3357272-1.258909.6711818-1.7623636.7971818-1.1329091 2.1398182-1.8460909 3.6924545-1.8460909 1.5523637 0 2.937.6711818 3.6921818 1.8460909.3357273.5034546.5874546 1.0909091.6711819 1.7623636.126.7551819.084 1.6363637-.1257273 2.5592728-.5034546 2.2238182-1.9720909 4.9090909-4.2376364 7.8043636zm18.9226364-2.1818182c-.2097273-.5037272-.4197273-1.0491818-.6294546-1.5109091-.3354545-.7549091-.6711818-1.4680909-.9649091-2.1395454l-.042-.0422727c-2.895-6.2934546-6-12.6709091-9.2727272-18.96463641l-.1257273-.25145454c-.3354545-.62945455-.6711818-1.3009091-1.0069091-1.97209091-.4194545-.75518182-.8391818-1.55236364-1.5103636-2.30781819-1.3426364-1.6780909-3.2727273-2.60127272-5.3285455-2.60127272-2.0980909 0-3.9861818.92318182-5.3708182 2.51754545-.6291818.75518182-1.0906363 1.55236364-1.5103636 2.30754546-.3357273.67118181-.6711818 1.34263636-1.0069091 1.97209091l-.126.25172727c-3.23072726 6.29345458-6.37745454 12.67118178-9.27245454 18.96463638l-.042.0837273c-.29372727.6714545-.62945454 1.384909-.96518181 2.1400909-.20972728.4617272-.41945455.9649091-.62918182 1.5103636-.54545455 1.5526364-.71345455 3.021-.50345455 4.5313636.46145455 3.147 2.55927273 5.7902728 5.45454546 6.9651819 1.09063636.4614545 2.22354545.6711818 3.39818181.6711818.33572728 0 .75545455-.042 1.09090905-.0837273 1.3849091-.168 2.8112728-.6297273 4.1959091-1.4269091 1.7203637-.9649091 3.3564546-2.3495454 5.2028182-4.3633636 1.8460909 2.0138182 3.5244546 3.3984545 5.2028182 4.3633636 1.3843636.7971818 2.811 1.2589091 4.1956364 1.4269091.3354545.0417273.7551818.0837273 1.0909091.0837273 1.1746363 0 2.3495454-.2097273 3.3984545-.6711818 2.937-1.1749091 4.9928182-3.8601819 5.4545455-6.9651819.3354545-1.4683636.1677272-2.937-.3777273-4.4890909zm41.8314545-14.7692727c1.2169091 0 1.8463637.2097273 1.8463637.2097273v3.7344545s-3.3567273-1.1329091-5.4545455 1.2586364v11.0345454h-4.0279091v-15.8176363h3.3984546c.3357272 0 .5874545.2934545.5874545.5874545v.6711818c.7551818-.8811818 2.3915455-1.6783636 3.6501818-1.6783636zm10.9090909 12.7969091c-1.5523636 0-2.7692727-.7971818-3.3987272-1.7203636v-5.622c.6294545-.8391819 1.9720909-1.7203637 3.3987272-1.7203637 2.6852728 0 4.7410909 1.6783637 4.7410909 4.5316364 0 2.853-2.0558181 4.5310909-4.7410909 4.5310909zm.6711819-12.7969091c-2.769 0-4.0699091 1.6783636-4.0699091 1.6783636v-8.85299996h-4.0276364v23.37027276h3.3984545c.3354546 0 .5874546-.2937273.5874546-.5874546v-.7134545s1.3006364 1.7203636 4.0699091 1.7203636c4.5730909 0 8.1398182-3.5244545 8.1398182-8.3075454.0417272-4.783091-3.5244546-8.3075455-8.0980909-8.3075455zm24.2094545 6.8389091v9.3984545h-4.027909v-8.9367272c0-2.6012728-.839182-3.6504546-3.104727-3.6504546-1.216637 0-2.475546.6294546-3.272728 1.5526364v10.9928182h-4.027909v-15.7759091h3.188728c.335727 0 .587454.2934545.587454.5874545v.6711818c1.174636-1.2166363 2.727273-1.6783636 4.279636-1.6783636 1.762091 0 3.230728.5034545 4.405364 1.5103636 1.426909 1.1749091 1.972091 2.6852728 1.972091 5.3285455zm9.524455 5.958c-1.552637 0-2.769273-.7971818-3.398455-1.7203636v-5.622c.629182-.8391819 1.971818-1.7203637 3.398455-1.7203637 2.685 0 4.74109 1.6783637 4.74109 4.5316364 0 2.853-2.05609 4.5310909-4.74109 4.5310909zm.671454-12.7969091c-2.769545 0-4.069909 1.6783636-4.069909 1.6783636v-8.85299996h-4.028182v23.37027276h3.398727c.335728 0 .587182-.2937273.587182-.5874546v-.7134545s1.300909 1.7203636 4.069909 1.7203636c4.573637 0 8.139819-3.5244545 8.139819-8.3075454 0-4.783091-3.566182-8.3075455-8.097546-8.3075455zm-60.1671817 16.1956364h4.0279091v-15.7759091h-4.0279091zm-6.5031818-5.0768182c-.6294546.9231818-1.8883637 1.7200909-3.3987273 1.7200909-2.6852727 0-4.7410909-1.6780909-4.7410909-4.5313636 0-2.853 2.0558182-4.5313637 4.7410909-4.5313637 1.4683636 0 2.8112727.8391818 3.3987273 1.7203637zm0-10.1116364v.6711818s-1.3009091-1.6783636-4.0699091-1.6783636c-4.5733637 0-8.1398182 3.4824545-8.1398182 8.3075455 0 4.7830909 3.5244545 8.3075454 8.1398182 8.3075454 2.811 0 4.0699091-1.7203636 4.0699091-1.7203636v.7134545c0 .3357273.2514545.5874546.5871818.5874546h3.3984545v-15.7759091h-3.3984545c-.3357273 0-.5871818.2934545-.5871818.5874545zm11.2442727-5.4965454c0 1.5103636-1.2166364 2.7272727-2.727 2.7272727-1.5106364 0-2.7272727-1.2169091-2.7272727-2.7272727 0-1.51036367 1.174909-2.72727276 2.7272727-2.72727276 1.5520909.042 2.727 1.25890909 2.727 2.72727276z" fill="#21223f" fill-rule="evenodd"/></svg>