<svg height="23" viewBox="0 0 156 23" width="156" xmlns="http://www.w3.org/2000/svg"><g fill="none" fill-rule="evenodd"><g fill="#21223f"><path d="m22.0710794.7679232-6.5185477 11.82336-.4421908-11.82336h-9.68566152l-5.42503384 21.166848h7.10163692l3.25927384-11.380992.2560985 11.380992h5.051963l6.5424739-11.380992-2.9101292 11.380992h7.0316307l5.4480739-21.166848z"/><path d="m33.4790695.7679232-.8604553 3.450624h6.5424738l.8843815-3.450624z"/><path d="m32.0594511 6.2567424-4.0275693 15.677952 6.5885539.019968 4.0275692-15.69792z"/></g><g transform="translate(37.218462 .251443)"><g fill="#21223f"><path d="m22.3604086 6.0052224h5.8902646l-.5121969 1.936896c.8152615-.86784 1.7926892-1.412352 3.0262154-1.775616 1.0013538-.282624 1.9557415-.423936 3.0740677-.423936l-1.5135508 5.104896c-.3721846 0-4.9358769-.766464-6.3563815 5.266944l-1.4665846 5.588736h-6.2163693z"/><path d="m18.9144222 15.8924544c0 .120576-2.0718277 6.415872-11.1752862 6.25536-12.19968-.22272-9.03345231-17.171712 4.8197908-16.566528 7.8690461.342528 7.4729354 6.012672 7.4038154 6.25536h-6.7985724c.0930462-.221952.3252185-2.562816-1.8396553-2.522112-4.02756927.100608-6.8916185 8.756736-2.4448985 8.837376 2.0496738.060672 3.0040615-1.997568 3.1901538-2.259456z"/><path d="m81.2177723 9.072c-4.40064-.766464-7.68384 8.39424-3.4923323 9.140736 4.6558523.847872 7.776-8.39424 3.4923323-9.140736m-3.8884431 13.13664c-13.2471138-.484608-9.2665107-17.393664 4.3306339-16.829184 12.7818831.544512 9.1495384 17.292288-4.3306339 16.829184"/><path d="m102.148017 3.6847104c-1.815729 0-2.1648736.605184-2.4679382 1.795584l-.1160862.524544h3.8414774l.954387-3.793152h6.006351l-.930462 3.793152h3.096222l-.908308 3.611904h-3.096221l-1.699643 6.88128c-.070006.383232-.232173.72576-.070006 1.149696.256098.625152 2.840123.362496 2.840123.362496l-1.001354 3.591936s-5.261096.525312-7.030745-.544512c-.791335-.463872-1.6517906-1.43232-1.11744-3.510528l2.025748-7.9104-3.6084186-.019968-3.0501416 12.066816h-6.4724676l3.0262153-12.066816h-3.32928l.9322339-3.611904h3.2353477c.5822031-2.017536 1.0944-3.389952 2.5379446-4.43904 1.9787815-1.392384 7.1237903-.847104 7.1237903-.847104z"/><path d="m42.2434855 9.0517248c-4.3536738-.746496-7.6129477 8.373504-3.4462523 9.140736 4.6097723.827904 7.70688-8.39424 3.4462523-9.140736zm1.7918031 7.263744 12.2936123-.0192s-1.0474338 2.360064 2.8170831 2.380032c2.6779569 0 3.7245046-2.642688.1169723-3.187968-1.6535631-.261888-8.0560246-1.1904-7.3338092-5.46816.6043569-3.510528 4.8189046-4.741632 9.4286769-4.68096 9.4295631.100608 7.6599138 4.902912 7.7768862 5.22624h-6.2863754s.6752492-2.018304-2.1648739-2.018304c-2.5849107 0-3.2131938 2.018304-.2330584 2.562816 3.6323446.685824 7.79904.847104 8.0312123 4.902912.0700061 1.130496-.6982893 6.41664-10.1969723 6.25536-8.7082339-.16128-9.3125908-3.712512-9.0804185-5.366784-1.5826708 2.885376-5.5402338 5.447424-10.8261415 5.286912-13.2471139-.364032-9.2195447-17.373696 4.35456-16.78848 6.169403.261888 8.5212553 4.317696 7.776 8.312832-.1169723.70656-.1869785.807168-.4191508.86784z"/></g><path d="m116.466668 7.2359424h-.46523l-.116973.705792h.465231s.467003.06144.512197-.342528c0-.363264-.395225-.363264-.395225-.363264m.116973 1.008384.464344.807168h-.558277l-.37307-.807168h-.325219l-.140012.86784h-.489157l.396997-2.158848h1.14048s.628283.141312.581317.665856c-.06912.625152-.651323.625152-.697403.625152m-.420037-1.896192c-2.630991 0-2.630991 3.309312 0 3.309312 2.65403 0 2.65403-3.309312 0-3.309312m0-.363264c3.143187 0 3.143187 4.055808 0 4.055808-3.143188 0-3.143188-4.055808 0-4.055808" fill="#231f20"/></g></g></svg>