<svg height="60" viewBox="0 0 124 60" width="124" xmlns="http://www.w3.org/2000/svg" xmlns:xlink="http://www.w3.org/1999/xlink"><mask id="a" fill="#fff"><path d="m.07226667.00033333h24.11999433v18.66633337h-24.11999433z" fill="#fff" fill-rule="evenodd"/></mask><g fill="none" fill-rule="evenodd" transform="translate(.740741)"><path d="m36.0384.0002-5.892 13.8566667-30.14666667 13.1886666v1.5246667h119.55799967v-1.5246667l-29.8719997-13.1886666-5.9266666-13.8566667z" fill="#21223f"/><g transform="translate(0 33.331133)"><g fill="#21223f"><path d="m13.2230667.65206667c2.0213333.23933333 4.0766666 1.84933333 4.762 3.80266666.9253333 2.80866667.9593333 6.57666667-1.1993334 8.83799997-1.644 1.61-3.734 2.6033334-6.0633333 2.0553334-.788-.308-1.95266667-.308-2.158-1.37.24-.9593334 1.336-.994 1.9526667-1.6446667 1.6786666-1.7126667 1.4046666-4.45266667 1.1986666-6.74866667-.24-1.06133333-.6166666-2.432-1.84999997-2.706-.54733333-.06933333-1.096 0-1.54133333.274l-.44533333.58266667v16.4773333c.03466666.9593334 1.98666666 1.85.58266666 2.638l-7.60533333-.0346666c-.274-.1366667-.48-.3766667-.548-.6166667-.06866667-.582.61666667-.822.75333333-1.3013333l.29133334-1.1653334v-16.2033333c-.034-.95933333-1.182-1.576-.97666667-2.56933333.138-.20533334.37733333-.27333334.61733333-.308z"/><path d="m80.3331333.9092c.206.034 4.1106667.22266667 4.248.462.1366667 1.096-1.0626666 1.63533333-1.0626666 2.77466667v5.79c1.3706666-.30866667 3.1606666-.274 4.394.44533333v-6.47466667c.0686666-1.09666666-1.9613334-2.124-.5226667-2.98066666h7.3653333c.3086667 0 .6513334.17133333.7193334.514.0686666 1.062-1.0106667 1.56666666-1.0106667 2.74v16.03266663c-.1026667.9933334 2.0726667 1.816.6 2.638h-7.708c-.24-.0346666-.4453333-.3086666-.48-.548-.068-.6853333.72-.9933333.8573333-1.61l.1793334-1.062v-6.0973333c-.1713334-.5826667-.694-1.1653333-1.276-1.3706667-1.062-.3086666-2.09.1366667-3.0833334.3426667v7.502c-.2393333 1.1306667 2.0213334 1.816.6846667 2.8433333-2.5006667.0686667-5.0693333.0686667-7.6046667 0-.274-.0346666-.5133333-.3086666-.6506666-.6166666-.1033334-.5133334.7766666-.822.948-1.2673334v-6.5093333c-2.5693334.9593333-6.3606667 1.816-8.7586667-.1713333-1.268-1.1646667-1.4733333-3.0833334-1.0273333-4.69333337.856-.71933333 1.3013333.75399997 2.0553333.92533337 2.1233333 1.3706666 5.286 1.5753333 7.7533333.822v-7.46800003c-.0346666-1.02733334-1.4506666-1.678-.8-2.77466667.138-.13733333 4.0086667-.11933333 4.18-.188"/><path d="m25.3503333 3.9066c.274.47933333.3426667 1.16466667.1713334 1.71266667-.3766667 1.062-1.4733334 1.67866666-2.5006667 1.81533333-1.2333333.13733333-2.398-.102-3.2546667-.95866667-.4453333-.51466666-.6853333-1.09666666-.6166666-1.816.1026666-.99333333 1.096-1.78133333 1.9873333-2.05533333 1.5066667-.41066667 3.3226667-.10266667 4.2133333 1.302"/><path d="m116.748467 5.82453333.068666 2.77466667c.513334.44533333 1.37.13733333 2.021334.274.239333.03466667.410666.274.445333.48.068.41066667.034.822-.240667 1.13-.513333.5146667-1.369333.1373333-2.020666.3086667l-.205334.24.034 8.7353333c.034.274.274.548.548.6513333.548.3086667 1.268-.6166666 1.473334.2053334-.205334.9593333-.822667 2.0206666-1.85 2.4326666-1.508.582-3.426.342-4.590667-.8573333-.548-.6846667-.805333-1.4386667-.805333-2.3293333v-8.7006667c-.342-.514-1.49-.3773333-1.284-1.268.136666-.99333333 1.198-1.19933333 1.781333-1.84933333l3.734-2.77533334c.410667-.17133333.821333.13733334.890667.548"/><path d="m64.7458667 10.3467333v8.3926667c.1026666.48.2393333 1.0626667.754 1.3366667.274.034.6166666.068.65.4106666-.068.754-.89 1.1993334-1.404 1.6446667-.856.6166667-2.2946667.5133333-3.22.1026667-.4793334-.24-.9246667-.6513334-1.2673334-1.096-1.61 1.4386666-3.94 1.918-6.0293333 1.2326666-1.1306667-.3766666-2.192-1.4726666-2.4666667-2.638-.4453333-1.918.1033334-3.8366666 1.6786667-5.0013333 1.85-1.5753333 4.8986667-.65 6.3033333-2.9806667.1713334-.4453333.1373334-1.0613333-.1026666-1.5066666-.1373334-.3426667-.514-.48000003-.8906667-.48000003-.6513333-.06866667-1.1646667.172-1.61.54800003-.788.686-.4453333 1.9873333-1.61 2.3293333-.48.3086667-1.1306667.3086667-1.6786667.1033333-.4453333-.1713333-.9253333-.6166666-.994-1.1306666-.1366666-1.1646667.5486667-2.12333337 1.4393334-2.8426667 2.2606666-1.33666667 5.686-1.234 8.1866666-.54866667.9253334.308 2.0553334 1.096 2.2613334 2.12399997"/><path d="m5.96426667.00033333c.41133333.20533334.42866666.702.46266666 1.11333334v11.64733333c.034.1706667.22266667.342.428.274l.68533334-.3773333 6.61133333-10.14000003c.0686667-.17066667-.1713333-.24-.3086667-.30866667-1.37-.03333333-2.6026666.172-3.528 1.234-.4453333.61666667-.68466663 1.336-.9253333 2.02066667-.23933333.274-.616.37733333-.95866667.24l-.34266666-.37666667c0-1.576-.13733334-3.28866667.13733333-4.796.27333333-.44533333.75333333-.53066667 1.26733333-.53066667h10.68799997c.308.06866667.582.35933334.6506667.66733334l-.0686667.78866666-7.0566666 11.33866667c2.2953333.034 4.1106666 1.1306667 5.9953333 2.1586667.9246667.4453333 1.884.7873333 3.0146667.6846666.4793333.0346667.89-.4793333 1.37-.1366666.3773333.7186666-.3426667 1.2673333-.754 1.7813333-1.4726667 1.1986667-3.4593334 1.7126667-5.412 1.1646667-1.1646667-.4453334-2.0553334-1.6786667-3.152-2.3293334-1.644-1.1993333-3.6313334-1.7133333-5.85800003-1.5766666l-8.016-.0333334c-.37666667-.0693333-.72-.3086666-.822-.6853333.06866666-.72.856-1.096 1.13-1.7133333v-10.03733337c-.10266667-.68466666-1.26733334-.856-.92466667-1.678.24-.274.548-.32533333.856-.394z" mask="url(#a)" transform="translate(18.666667 8)"/><path d="m52.2078 8.00033333c.2746667.06866667.5826667.35933334.6513333.66733334l-.0346666.72-7.0906667 11.40733333c1.1986667.24 2.5346667.24 3.5966667.8226667 1.3706666.856 2.7406666 1.678 4.282 2.158.9593333.2733333 1.6446666-.514 2.5006666-.3086667.4113334.6853333-.308 1.1993333-.6846666 1.7133333-1.4393334 1.3353334-3.4946667 1.7806667-5.4473334 1.2673334-1.1986666-.4106667-2.0213333-1.644-3.1173333-2.2953334-1.644-1.1653333-3.494-1.7813333-5.6866667-1.6106666-.7193333 0-1.644.172-2.0213333-.5133334 0-1.0273333.788-1.7473333 1.2333333-2.6033333l5.7553334-8.77c.034-.1026667.1033333-.274-.0686667-.3426667-1.3013333-.24-2.6373333.0346667-3.5626667.9593334-.6166666.6166666-.788 1.4046666-1.062 2.1586666-.2053333.3073334-.6166666.4106667-.9593333.2733334l-.342-.3426667v-4.556c.1366667-.48.616-.77066667 1.096-.80466667z"/><path d="m100.853267 8.9424c.376.20533333.530666.61666667.530666.99333333v9.11199997c.136667.5826667.668 1.0966667 1.216 1.3366667.514667.1366667 1.096667 0 1.507334-.3086667.514-.4113333.805333-.9593333.770666-1.6446666v-7.776c-.034-.6166667-1.455333-1.14733337-.530666-1.69600003h4.967333c.376667.06866666.565333.46333333.599333.80466666v11.37399997c.102667.6513334 1.284667.9586667.839334 1.7813334l-.274667.24h-4.316c-.445333-.1373334-.684667-.5826667-.753333-.9933334-1.884 1.164-4.83 1.4386667-6.954667.582-1.13-.4453333-2.1066667-1.6446666-2.2433333-2.8086666v-9.524c-.1026667-.47933337-1.0106667-.6846667-.7366667-1.23333337.1373333-.17066666.3086667-.20533333.514-.23933333z"/></g><path d="m58.6482 19.7672667c-.548.172-1.1306667.0686666-1.5073333-.308-.6506667-.6853334-.7533334-1.85-.3426667-2.6726667.5826667-1.1986667 1.85-1.644 3.0146667-1.952-.1366667 1.7126667.5826666 4.042-1.1646667 4.9326667" fill="#fff"/><path d="m120.7654 21.6748h.308667v-.6913333h.243333c.164 0 .278667.018.344.0566666.11.0653334.165333.1993334.165333.4013334v.1393333l.006667.0566667c.001333.0073333.002.014.003333.02.002.0053333.003334.0113333.004667.0173333h.289333l-.010666-.022c-.007334-.0146667-.012-.0453333-.015334-.0913333-.002666-.046-.004-.09-.004-.13v-.1293334c0-.0873333-.032-.178-.096-.2713333-.063333-.0926667-.164666-.1493333-.302666-.172.108666-.0173333.194-.0453333.254666-.0846667.114667-.074.172-.1893333.172-.3453333 0-.2206667-.090666-.3686667-.272-.444-.102-.042-.260666-.0626667-.478-.0626667h-.613333zm.880667-.946c-.065334.026-.163334.0393333-.293334.0393333h-.278666v-.6353333h.262666c.171334 0 .296.022.373334.0653333.077333.0433334.116666.1293334.116666.2566667 0 .1346667-.06.2266667-.180666.274zm.894-1.0526667c-.312-.31-.688667-.4653333-1.130667-.4653333-.439333 0-.814667.1553333-1.124667.4653333-.311333.312-.467333.6873334-.467333 1.126 0 .444.154667.8213334.462667 1.134.310666.312.686666.4693334 1.129333.4693334.442 0 .818667-.1573334 1.130667-.4693334.311333-.314.466666-.692.466666-1.134 0-.4406666-.155333-.8153333-.466666-1.126zm-.159334.154c.266667.2686667.4.5926667.4.972 0 .3833334-.133333.7093334-.4.9786667-.266666.27-.590666.4053333-.971333.4053333-.381333 0-.706-.1353333-.972-.4053333-.266-.2693333-.398667-.5953333-.398667-.9786667 0-.3793333.133334-.7033333.400667-.972.268-.2693333.590667-.404.97-.404s.703333.1346667.971333.404z" fill="#21223f"/></g></g></svg>