<svg height="40" viewBox="0 0 121 40" width="121" xmlns="http://www.w3.org/2000/svg"><g fill="#21223f" fill-rule="evenodd"><path d="m29.6984 13.9871529h-14.0950588v4.1825883h9.9962353c-.4936471 5.8654117-5.3731765 8.3665882-9.9797647 8.3665882-5.89270592 0-11.03482356-4.6367059-11.03482356-11.1355294 0-6.33082353 4.90164705-11.20658824 11.04799996-11.20658824 4.7421177 0 7.536 3.02305883 7.536 3.02305883l2.9289412-3.03247059s-3.7590588-4.18494118-10.6145882-4.18494118c-8.72988238 0-15.48329414 7.368-15.48329414 15.32611768 0 7.7985882 6.35294118 15.4023529 15.70588234 15.4023529 8.2258824 0 14.2475294-5.6348235 14.2475294-13.968 0-1.7581176-.2550588-2.7741176-.2550588-2.7741176z"/><path d="m41.3022588 14.8376c2.8442353 0 5.5392941 2.2992941 5.5392941 6.0047059 0 3.6263529-2.6837647 5.9915294-5.5524705 5.9915294-3.152 0-5.6385883-2.5247059-5.6385883-6.0202353 0-3.4211765 2.4555294-5.976 5.6517647-5.976m-.0578823-3.8795294c-5.7835294 0-9.9284706 4.5218823-9.9284706 9.7952941 0 5.3515294 4.0207059 9.9571765 9.9967059 9.9571765 5.4103529 0 9.8423529-4.1350588 9.8423529-9.842353 0-6.5411764-5.1557647-9.9101176-9.9105882-9.9101176"/><path d="m62.8952941 14.8376c2.8442353 0 5.5392941 2.2992941 5.5392941 6.0047059 0 3.6263529-2.6837647 5.9915294-5.552 5.9915294-3.1524706 0-5.6390588-2.5247059-5.6390588-6.0202353 0-3.4211765 2.456-5.976 5.6517647-5.976m-.0574117-3.8795294c-5.7835295 0-9.9284706 4.5218823-9.9284706 9.7952941 0 5.3515294 4.0202353 9.9571765 9.9962353 9.9571765 5.4103529 0 9.8423529-4.1350588 9.8423529-9.842353 0-6.5411764-5.1557647-9.9101176-9.9101176-9.9101176"/><path d="m84.4017412 14.8400941c2.6028235 0 5.2752941 2.2225883 5.2752941 6.0178824 0 3.8574117-2.6668235 5.9835294-5.3327059 5.9835294-2.8301176 0-5.4635294-2.2978824-5.4635294-5.9472941 0-3.7915294 2.7350588-6.0541177 5.5209412-6.0541177zm-.384-3.8715294c-5.3091765 0-9.4818824 4.6494118-9.4818824 9.8682353 0 5.9449412 4.8376471 9.8870588 9.3901177 9.8870588 2.8150588 0 4.3115294-1.117647 5.4164706-2.4v1.9472941c0 3.4075295-2.0682353 5.448-5.1915295 5.448-3.0164705 0-4.5298823-2.2428235-5.0555294-3.5162353l-3.7957647 1.5872942c1.3468236 2.8465882 4.0569412 5.816 8.8828236 5.816 5.2781176 0 9.3011764-3.3247059 9.3011764-10.2969412v-17.7468235h-4.1407059v1.6729411c-1.2734117-1.3722353-3.0145882-2.2668235-5.3251764-2.2668235z"/><path d="m112.067671 14.7433882c1.804235 0 3.103058.9595294 3.654588 2.1096471l-8.843765 3.696c-.381647-2.8616471 2.329882-5.8056471 5.189177-5.8056471zm-.172706-3.7985882c-5.008 0-9.212236 3.9844706-9.212236 9.8630588 0 6.2211765 4.686589 9.9105883 9.693177 9.9105883 4.178353 0 6.743059-2.2861177 8.273882-4.3341177l-3.414117-2.2715294c-.885647 1.3745882-2.367059 2.7181176-4.839059 2.7181176-2.776 0-4.052706-1.52-4.843765-2.9929411l13.242824-5.4950589-.68753-1.6103529c-1.279529-3.1534118-4.264-5.7868235-8.212706-5.7868235z"/><path d="m96.3689412 30.1320471h4.3501178v-29.11058828h-4.3501178z"/></g></svg>