<svg height="30" viewBox="0 0 126 30" width="126" xmlns="http://www.w3.org/2000/svg" xmlns:xlink="http://www.w3.org/1999/xlink"><mask id="a" fill="#fff"><path d="m.0000127.00007965h125.1193683v29.99248675h-125.1193683z" fill="#fff" fill-rule="evenodd"/></mask><path d="m91.299 8.8110531c-.6013274 1.9510619-3.3987611 3.2853982-8.3846018 4.0027434l-11.9081416 1.6903539.301593-.9748672c.9860177-3.2070797 2.3899115-5.39442479 4.2002654-6.55513276 1.8092921-1.15805309 4.7564602-1.74212389 8.840177-1.74212389 5.371062 0 7.6861062 1.1960177 6.950708 3.57902655zm-66.0663717 15.4173451c-1.9316814.301593-4.7036283.4537168-8.3251327.4537168-6.2832744 0-9.03185843-1.2679646-8.23592923-3.8052212.57159292-1.8199115 2.21761063-2.9147788 4.95292033-3.2827434l14.2935398-1.9205309zm99.6597347-22.89371678c-.429292-.62522124-.940885-1.05424779-3.073805-1.21646018-.558319-.04327434-2.405576-.10380531-5.513098-.10380531-8.167168 0-13.716372 2.47778761-16.557345 7.36964602.782655-4.92132744-4.0133628-7.3839823-14.4005309-7.3839823-12.1940708 0-19.8084956 4.91044247-22.8406195 14.73026545-1.1277876 3.6520354-1.2424779 6.6430089-.3562832 8.9806195l-2.8778761.1930089c-2.249469.1725663-5.2077876.3244247-7.0215929.3244247-4.4612389 0-7.2315929-.748407-8.3028319-2.2449557-.96-1.3444248-.8654867-3.84.2553983-7.4792921 1.8621239-6.0292035 6.4728318-8.74300881 13.8416814-8.74300881 3.819292-.00743363 7.5382301.40194691 7.5400885.40194691v-.00132744c.5118584-.03238938.7383186-.56548672.6817699-1.00699115l-.0740708-.57663717-.261239-2.02646017c-.1730973-1.33088496-1.1638938-2.1220354-2.9745132-2.36628319-1.6550443-.11150442-2.8866372-.18530973-4.6991151-.18530973-.0342478 0-.0669026.00079646-.1000885.00079646-9.6310619.02176991-16.3428318 3.18451327-20.1361062 9.4858407 1.3940708-6.32442477-3.058938-9.48663716-13.3746902-9.48663716-5.7329204 0-9.8447788.16115044-12.3379646.48690265-1.9117699.23761062-3.07699118 1.03035398-3.49911507 2.37292035l-.8161062 2.60362832c-.14867256.47707965.08097346.71336284.69292036.71336284l.01831858-.00292036c.45292036-.05734513 2.19849553-.22858407 5.17938053-.4680531 3.9432743-.31460177 6.8692035-.4738938 8.7907965-.4738938 5.6758407 0 8.0660177 1.4219469 7.1763716 4.26212389-.1935398.62920356-.6257522 1.01946906-1.2873451 1.17026546-5.3686726.8899115-9.6310619 1.5315929-12.7834513 1.92-8.87097347 1.1293806-13.99592922 3.8904425-15.3761947 8.2924779-1.89345133 6.0499115 2.85106194 9.0756637 14.2269026 9.0756637 5.6745133 0 10.4376107-.3326548 14.2876992-.979115 2.218407-.3719469 3.3427433-.940354 3.788761-2.369469l2.1153983-6.7436284c-.2200885 6.7388496 4.5063716 10.1323009 14.1881415 10.1323009 4.1915045 0 8.1661062-.1383186 10.04177-.4638053 1.9853097-.3440708 2.9344247-.7754867 3.3722124-2.2733628l.429292-2.1262832c2.0628318 3.2158407 6.5885841 4.8233628 13.5753982 4.8233628 7.3683186 0 11.6657522-.2065487 12.8920354-.6172566 1.0269027-.3268142 1.6611505-.8567257 1.8873451-1.5945133.0430089-.1308849.0674337-.2707964.0897346-.4226549l.8830088-2.8627433c.1534513-.4975221-.0772566-.7353982-.6815044-.7138938l-4.7169027.2256637c-3.1478761.1720354-5.6129203.2612389-7.3919469.2612389-3.349115 0-5.6461062-.2269911-6.9023894-.6838938-1.8629203-.7168141-2.7493805-2.1451327-2.6649557-4.2955752l14.9392035-1.9154867c6.6961062-.8559292 11.1756638-2.9163717 13.4447788-6.1823894l-5.0620354 17.6288496c-.0963717.3326548-.0576106.6007964.1115044.798584.1892921.2206195.5121239.3270797.9897345.3270797h6.182389c1.08 0 1.466284-.5577876 1.60062-1.0253098l5.464513-19.029292c.718938-2.50407079 3.022567-3.72159292 7.040708-3.72159292 3.626283 0 6.360797.0321239 8.109027.0961062.04646.00318584.090796.00504424.136194.00504424.341151 0 .957345-.12424778 1.264248-.95203539l.959735-2.61238938c.182655-.50522124.145752-.95230089-.113363-1.33141593z" fill="#21223f" fill-rule="evenodd" mask="url(#a)"/></svg>