<svg height="48" viewBox="0 0 108 48" width="108" xmlns="http://www.w3.org/2000/svg"><path d="m84.0155587 26.4594908h9.8418547c-.30401 2.5737541-2.2266515 4.4637318-4.7272071 4.4637318-2.8134202 0-4.5042664-1.7323648-5.1146476-4.4637318zm-15.081648-8.3495495c3.5727563.0405347 4.4546803 3.6211618 4.4546803 6.2366312 0 3.3092811-1.4608219 6.0733119-4.4546803 6.1138466-3.2764205.0428959-4.5054471-2.9194793-4.5054471-6.1138466 0-2.8879961 1.0812522-6.2366312 4.5054471-6.2366312zm38.2741633 14.4047586c0 3.259695-2.633572 5.8918898-5.890906 5.8918898-1.6839592 0-3.1943672-.7016825-4.2653873-1.8325208-2.4924881 1.732168-5.5123202 2.7471087-8.779886 2.7471087-3.3002296 0-6.3434774-1.0383563-8.8528876-2.8045656-1.1296577 1.0474078-2.631211 1.6839593-4.2891966 1.6839593-1.1852141.0003901-2.3463974-.334261-3.349619-.9653545-2.3022112 4.1077745-6.6915639 6.8808568-11.733013 6.8808568-4.6111126 0-8.6716623-2.3112627-11.1045289-5.8332523-2.0296845 2.0859608-4.8680945 3.3822828-8.0116951 3.3822828-2.0007905.0024926-3.9650183-.5361233-5.6846908-1.5588135-.0403379 3.9680677-3.259695 7.1691252-7.2356335 7.1691252-4.0017154 0-7.2435042-3.2427728-7.2435042-7.2356335l.0169222-.2803975c-.7760616.1149138-1.5678649.1814221-2.3765904.1814221-2.2762032.0027591-4.5257329-.4899445-6.5923917-1.4438997-1.1296577.6025104-2.4092542.9494162-3.7789715.9494162-4.39722346 0-7.97785062-3.5727563-7.97785062-7.9790312 0-2.3348751 1.01494064-4.4220165 2.60759857-5.8828384-.04325101-.4827932-.06544151-.9672419-.06650833-1.4519673 0-8.7291192 7.07900439-15.79907214 15.80812358-15.79907214 3.2616385-.00359383 6.4439446 1.00551724 9.1075083 2.88799604 2.3191335-3.16957419 6.0573736-5.2395966 10.2810457-5.2395966.107043 0 .2062152.00806758.3042067.01672547 1.2219429-3.45666194 4.4973795-5.93222772 8.3664718-5.93222772 3.9117914 0 7.2356334 2.54089348 8.4070064 6.06406375 1.3459081-2.54994491 4.0095862-4.2821129 7.0868752-4.2821129 3.8452831 0 7.0553919 2.71444479 7.8304697 6.3277358.5529243-.07319851 1.1217869-.12396522 1.6918301-.12396522 3.1357298 0 5.9820106 1.18947581 8.1502213 3.12785892 2.4598242-1.67490783 5.437941-2.65698785 8.6389985-2.65698785 8.5071624 0 15.3958905 6.89777905 15.3958905 15.40376085 0 1.0485884-.098976 2.0792706-.305191 3.0692214 2.243574.8333218 3.845283 2.9857909 3.845283 5.5188136zm-8.0364881-6.8639346c0-1.9226415-.577914-2.417125-2.4667111-2.417125h-12.6893161c0-2.9623752 1.9214609-5.123699 5.1890267-5.123699 4.2327236 0 4.2327236 2.7719017 6.5012871 2.7719017 1.3459082 0 2.3100821-1.1556314 2.3100821-2.1941844 0-3.3822828-5.427709-4.9582153-8.8113692-4.9582153-6.3851927 0-9.5378447 3.5141188-10.486277 7.4573935-.8492601-4.1335514-3.5570147-7.4573935-8.3664717-7.4573935-2.5737541 0-4.4950183 1.0385531-5.534752 2.8451002h-.0822499v-7.50028937c0-1.84727856-1.1148999-2.81243634-2.8057461-2.81243634-1.692814 0-2.8057462.96515778-2.8057462 2.81243634v20.92395177l-6.3119942-17.8873942c-1.3437436-3.84410244-2.8879961-5.84899391-6.426908-5.84899391-2.4993749 0-3.5400925 1.23001046-3.5400925 2.58260875 0 1.50253716 1.0812522 2.26954736 2.5837894 2.26954736h.5767334c.7264756 0 1.5342172.03168 1.956486 1.7650286l-5.8423037 16.6573838c-.2062151.6025103-.3628442 1.0552785-.4775612 1.4360288-.1328199-.1735513-.2803976-.3299836-.4549327-.5123895l-4.1494898-4.3476374 5.8501745-7.8460146c.189293-.2634753.5765367-.8831046.5765367-1.8065471 0-1.4271742-1.1544507-2.7303832-2.656004-2.7303832-1.3864428 0-2.1207892.6916472-2.5408935 1.303209l-5.306105 7.5083569-1.9631762-1.7325615v-4.2744389c0-1.8403916-1.113916-2.8045655-2.8057461-2.8045655-1.6995042 0-2.813617.9641739-2.813617 2.8045655v2.0713998c-1.0058892-3.3169551-4.7598709-4.8759653-8.3820166-4.8759653-5.0741129 0-9.30585263 2.2685635-9.30585263 5.0404652 0 1.2288299.69263107 2.3427459 2.26836676 2.3427459 2.42499587 0 2.65698787-3.4645327 6.80647767-3.4645327 1.9968239 0 3.267369.8907786 3.267369 2.0375553 0 1.4269774-1.2300104 1.6579856-3.2258505 2.1613238l-3.3081004.8008546c-3.2675658.8075449-5.80865607 2.1613238-5.80865607 5.9322278 0 4.5695941 4.53791417 6.269295 8.42274807 6.269295 4.2653874 0 8.5805577-1.6995041 8.5805577-4.2732582 0-1.3110798-.8909755-2.4588403-2.3508135-2.4588403-2.1951683 0-2.2695474 2.5747379-5.8084593 2.5747379-1.9631762 0-3.2337213-.5361988-3.2337213-1.7323647 0-1.3043896 1.2705451-1.617451 3.0029099-1.9982013l2.3427459-.5440696c2.6987032-.6103811 5.8253815-1.6749079 6.7320985-4.3476374v17.5483592c0 1.839211 1.1141129 2.8045655 2.813617 2.8045655 1.6918301 0 2.8057461-.9651578 2.8057461-2.8045655v-12.7703854l6.2287604 6.9213915c.5779141.6184487 1.3122604 1.0802683 2.153453 1.0802683.9157685 0 1.8887971-.5936557 2.3596681-1.4519672.4537521.8752338 1.3616498 1.4519672 2.4171251 1.4519672 1.5013565 0 2.5410902-.8492601 2.8789446-2.1198053l3.6223425-13.1184718h.0741823l3.4253755 12.7298507c.3874405 1.4281581 1.1544507 2.5084264 2.6975226 2.5084264 1.328002 0 2.0950122-.6589834 2.5005556-1.3358728.3368705.8661824 1.0881391 1.3358728 2.3012273 1.3358728 1.6579857 0 2.5408935-.9315101 2.5408935-2.656004v-.8829079h.08225c.9248199 2.3832806 3.1931866 3.5389119 5.9155022 3.5389119 4.009783 0 7.5904101-2.5162972 8.5567485-7.7718322 1.0881392 4.7520001 4.7431455 7.7718322 10.2633364 7.7718322 6.4607525.0001968 10.1562934-4.578252 10.1562934-9.1986129zm1.7402351 8.7944469h1.097978s.008068 0 .841389-2.4330634l.783933 2.4330634h1.088139v-3.5391086h-.725492s-.008067 0-.008067 2.5084264l-.867363-2.5084264h-.602511s-.008067 0-.873856 2.4836333v-2.4836333h-.734543v3.5391086zm-3.3002292-.6509158v.6511126h2.8956702v-.6511126h-1.0552786v-2.887996h-.7839324v2.887996z" fill="#21223f" transform="matrix(1 0 0 -1 .082307 47.26877)"/></svg>