<svg height="26" viewBox="0 0 129 26" width="129" xmlns="http://www.w3.org/2000/svg" xmlns:xlink="http://www.w3.org/1999/xlink"><mask id="a" fill="#fff"><path d="m.20834211.51863158h6.00839473v6.00873684h-6.00839473z" fill="#fff" fill-rule="evenodd"/></mask><mask id="b" fill="#fff"><path d="m0 .28641053h120.024895v25.02937897h-120.024895z" fill="#fff" fill-rule="evenodd"/></mask><g fill="none" fill-rule="evenodd"><path d="m2.41834211 3.36631579h.63357894c.30105263 0 .50768421-.04652632.61784211-.1361579.11015789-.08963157.16557895-.20936842.16557895-.35852631 0-.09510526-.02668422-.18063158-.07936843-.25726316-.05336842-.07457895-.12657894-.13205263-.22031579-.16831579-.09510526-.03763158-.26957894-.05542105-.52478947-.05542105h-.59252631zm-.52205264 1.81863158v-3.23221053h1.11047369c.38042105 0 .65478947.02873684.82447368.08826316.17036842.05952632.3051579.16421053.40710527.31268421.10057894.1491579.15052631.30721053.15052631.4741579 0 .23673684-.08415789.442-.25247368.61715789s-.39273685.273-.67189474.29489474c.11426316.04721052.20663158.10468421.27505263.17105263.13.12794737.28942105.34142105.47826316.64178947l.39410526.63221053h-.63768421l-.28668421-.50973684c-.22578947-.39957895-.40573684-.65136842-.54463158-.75194737-.09510526-.07457895-.23536842-.11152632-.41873684-.11152632h-.3058421v1.37321053zm1.31847369-4.16889474c-.42284211 0-.83336842.10878948-1.23294737.325-.39957895.21621053-.71226316.5261579-.93736842.92710526-.22578947.40163158-.33868421.82105264-.33868421 1.25689474 0 .43242105.11152631.84705263.33252631 1.24389474.22236842.3968421.53231579.70678947.93052632.92778947.39821053.22168421.81215789.33321053 1.24594737.33321053.43242105 0 .84773684-.11152632 1.24594737-.33321053.39821052-.221.70747368-.53094737.92710526-.92778947.22031579-.39684211.33047368-.81147369.33047368-1.24389474 0-.4358421-.11152631-.85526316-.33594736-1.25689474-.22373685-.40094736-.53642106-.71089473-.93736843-.92710526-.40094736-.21621052-.81215789-.325-1.23021052-.325zm0-.49742105c.50426316 0 .99621052.12931579 1.47721052.38726316.47963158.26.85457895.62947368 1.12278948 1.1118421.26752631.481.40231579.98389474.40231579 1.50731579 0 .51794737-.13205263 1.01536842-.39684211 1.49226316-.26342105.47826316-.63494737.84978947-1.11047368 1.11321053-.47757895.26547368-.97431579.3968421-1.495.3968421s-1.01947369-.13136842-1.495-.3968421c-.47757895-.26342106-.84842105-.63494737-1.11321053-1.11321053-.26615789-.47689474-.39821052-.97431579-.39821052-1.49226316 0-.52342105.13478947-1.02631579.40368421-1.50731579.26889473-.48236842.64452631-.8518421 1.12552631-1.1118421.47963158-.25794737.97294737-.38726316 1.47721053-.38726316z" fill="#231f20" mask="url(#a)" transform="translate(122.289474 .398005)"/><path d="m81.9992105 7.22909474v-6.90778948h.0998948 6.8783684v6.90778948zm38.0256845.00273684v-6.94542105h-23.902895c-3.8466316 0-7.0008421 3.11178947-7.0692632 6.94268421zm-100.3545266.88331579-11.03699998 17.20105263h-8.63336842l11.6432105-17.66494737zm39.4153158-.88331579v-6.94542105h-22.386c-3.3040526 0-6.0976842 2.29689473-6.8626316 5.37378947v-5.33957895h-13.3619473l-4.5534211 6.90847369h17.7094211zm-29.2486316 18.08436842h23.5176842c3.428579 0 6.3063685-2.4734211 6.9406316-5.7234211.5596842 3.2397369 3.393 5.7234211 6.7777895 5.7234211h15.0259474c3.357421 0 6.1729473-2.4446842 6.763421-5.6447368v5.6447368h24.0910527c3.889737 0 7.071316-3.1822632 7.071316-7.0706316v-1.0016842c0-3.8890526-3.181579-7.0706316-7.071316-7.0706316l-1.320526-.0581579c-7.496895-.32978944-14.9684741-.70747365-22.4557898-1.09405259.5836315 2.93731579 3.0625263 5.38336839 6.9447368 5.90747369l16.318421 1.001c.671211 0 1.219947.549421 1.219947 1.2199474v.0006842c0 .6705263-.548736 1.2199473-1.219947 1.2199473h-23.4629473v-9.35931575l-6.9782632-.35989474v8.00457899c0 1.1207368-.9168421 2.0375789-2.0375789 2.0375789h-10.751c-1.1207369 0-2.037579-.9168421-2.037579-2.0375789v-8.76952636l-6.9789473-.35989473v7.93478949c-.7977895-3.0016316-3.5681579-5.1664737-6.8393685-5.1664737l-30.7367894-2.00952632v17.03136842h6.6457368zm6.8626316-10.3876842 16.1412105 1.001c.6712106 0 1.2199474.549421 1.2199474 1.2199474v.0006842c0 .6705263-.5487368 1.2199473-1.2199474 1.2199473h-23.0038421v-8.99257891c.7067895 2.77652631 3.1398421 5.04878951 6.8626316 5.55100001zm30.3734737-14.60721054h.0998947v6.90778948h-6.9789473v-6.90778948z" fill="#21223f" mask="url(#b)" transform="translate(.5 .398005)"/></g></svg>