<svg height="38" viewBox="0 0 125 38" width="125" xmlns="http://www.w3.org/2000/svg" xmlns:xlink="http://www.w3.org/1999/xlink"><mask id="a" fill="#fff"><path d="m.27617701.26206897h15.81529429v21.54206893h-15.81529429z" fill="#fff" fill-rule="evenodd"/></mask><mask id="b" fill="#fff"><path d="m.24813563.07075862h18.40758107v22.00623678h-18.40758107z" fill="#fff" fill-rule="evenodd"/></mask><mask id="c" fill="#fff"><path d="m.00008736.07075862h18.40693814v22.00623678h-18.40693814z" fill="#fff" fill-rule="evenodd"/></mask><g fill="#21223f" fill-rule="evenodd" transform="translate(.5)"><path d="m59.713069 5.80530805c-7.2282989 5.33441375-17.7084368 8.17174715-26.7327816 8.17174715-12.6478851 0-24.03652878-4.67487359-32.65554027-12.45788509-.67657472-.61062068-.07294253-1.44574712.74034482-.97227586 9.29864365 5.41128736 20.79735635 8.67011495 32.67475865 8.67011495 8.0114483 0 16.8191494-1.66282759 24.9223218-5.09986207 1.2225517-.51889656 2.2468046.80542528 1.0508966 1.68816092" transform="translate(17.471264 23.952143)"/><path d="m80.192754 26.3237356c-.9246666-1.1841149-6.1123218-.5612643-8.4421149-.2821609-.7058391.0842989-.8154713-.5315632-.1786437-.9788276 4.1367586-2.9063448 10.9173563-2.0668505 11.7053103-1.0945747.794069.9818851-.2083448 7.7795173-4.0865287 11.023931-.5957701.4988046-1.1635862.2328046-.8993333-.4267356.8731264-2.1786667 2.825977-7.0575172 1.9013103-8.2416322"/><path d="m71.9147816 4.5320023v-2.8237931c.0017471-.42979311.3254023-.71632184.7163218-.71588506l12.656184-.00087356c.4053333 0 .7294252.2943908.7307356.71326436l-.0013104 2.42195403c-.0030574.40577011-.3446206.93645977-.9526206 1.77770114l-6.556092 9.36066669c2.4341839-.0572184 5.0085747.3070575 7.2195632 1.5501379.4988046.279977.6315862.6953563.6713334 1.1024368v3.0129195c0 .4153793-.4546897.8958391-.932092.6455633-3.896092-2.0402069-9.0654023-2.2638391-13.3729425.0248965-.4402759.2345517-.9006437-.2389195-.9006437-.6542988v-2.8644138c0-.4581839.0078621-1.2422069.4704138-1.9410575l7.5956322-10.89726438-6.6133104-.00131034c-.404023 0-.7281149-.28783908-.7311724-.71064368"/><path d="m25.7453931 22.1700736h-3.8502299c-.3664598-.024023-.6595402-.2996322-.6892414-.6508046l.0026207-19.76305751c0-.39528735.3328276-.71151724.7429655-.71151724l3.5859771-.00087356c.3756321.01921839.6765747.30312644.7005977.66347126v2.58050575h.0720689c.9347127-2.49533333 2.6958161-3.6597931 5.067977-3.6597931 2.407977 0 3.9174943 1.16445977 4.9963449 3.6597931.9342758-2.49533333 3.0548505-3.6597931 5.3195632-3.6597931 1.6174023 0 3.3785057.66521839 4.4569195 2.16250574 1.222115 1.66326437.9705288 4.0756092.9705288 6.19662069l-.0026207 12.47142527c0 .3948506-.3328276.7115173-.7429655.7115173h-3.8458621c-.3865517-.0248966-.6914253-.3310805-.6914253-.7097702l-.0008736-10.4770804c0-.8316322.072069-2.91114944-.107885-3.70128737-.2874023-1.33087356-1.150046-1.7051954-2.2642759-1.7051954-.9347126 0-1.9052414.62372414-2.3005287 1.6222069-.3957242.99804597-.3594713 2.66131034-.3594713 3.78427587v10.4753333c0 .3948506-.3323908.7115173-.7425287.7115173h-3.8462989c-.3861149-.0248966-.6914253-.3310805-.6914253-.7097702l-.0034942-10.4770804c0-2.20400001.3594712-5.44797702-2.3721609-5.44797702-2.7678851 0-2.66 3.16055172-2.66 5.44797702l-.0017472 10.4753333c.0004368.3948506-.3323908.7115173-.7425287.7115173"/><path d="m96.9490943 4.66190115c-2.8395173 0-3.0194713 3.86726437-3.0194713 6.27960915 0 2.4119081-.0358161 7.5689886 2.9836552 7.5689886 2.9840919 0 3.1273558-4.1585978 3.1273558-6.6954253 0-1.6637012-.0720685-3.65979314-.5748041-5.240069-.431977-1.37236782-1.2950575-1.91310345-2.5167356-1.91310345m-.0358161-4.03411494c5.7157238 0 8.8059538 4.90767816 8.8059538 11.14535629 0 6.0302069-3.413885 10.8134023-8.8059538 10.8134023-5.6074023 0-8.6622529-4.9076781-8.6622529-11.0208735 0-6.15512647 3.0906667-10.93788509 8.6622529-10.93788509"/><path d="m4.80953333 21.8041379h-3.83625287c-.38567816-.0248965-.69098851-.3310804-.69098851-.7097701l-.00611494-19.77048274c.03232184-.36121839.3516092-.64512644.73903448-.64512644l3.57243679-.00087356c.33588505.01703448.61324138.24678161.68443678.5534023v3.02296551h.07250574c1.07754023-2.70324138 2.58662069-3.9921839 5.2470575-3.9921839 1.7248506 0 3.4147586.62372413 4.4931724 2.32891954 1.0067816 1.58027586 1.0067816 4.24202298 1.0067816 6.15512643v12.43517246c-.0436782.3507356-.3577241.6228505-.7381609.6228505h-3.8602759c-.3568506-.0231494-.6442529-.2847816-.6861839-.6228505v-10.7304138c0-2.16250578.2524598-5.32305751-2.407977-5.32305751-.93514943 0-1.79691954.62372414-2.22802299 1.58027586-.53898851 1.20595403-.61149425 2.41190805-.61149425 3.74278165v10.6417471c-.00698851.3948506-.34025288.7115172-.74995403.7115172" mask="url(#a)" transform="translate(108.321839 .365936)"/><path d="m15.4769632 21.7546506c-.2550804.2284368-.6224138.2441609-.9098161.0895402-1.2784597-1.0631264-1.5073333-1.5545057-2.2066207-2.5660919-2.114023 2.1533333-3.61131031 2.7988965-6.34862065 2.7988965-3.24179311 0-5.76377012-2.0004598-5.76377012-6.0013793 0-3.126046 1.69296552-5.2514253 4.10662069-6.29358621 2.08912644-.9168046 5.00726437-1.08365518 7.24052878-1.33349426v-.50011494c0-.9168046.0720689-2.00089655-.4682299-2.79234483-.4686667-.70889655-1.36887359-1.00066666-2.16163221-1.00066666-1.46845977 0-2.774.75257471-3.09503448 2.31232183-.06639081.3468046-.31972414.69011495-.66871265.70802299l-3.73229885-.40402299c-.31491954-.0711954-.66521839-.32365517-.57436781-.8049885.85783908-4.52811494 4.94655172-5.89611494 8.61114942-5.89611494 1.87291958 0 4.32282758.50011494 5.79914938 1.91747126 1.8733564 1.75062069 1.6925288 4.08478161 1.6925288 6.62685058v5.99919537c0 1.8047816.749954 2.5962299 1.4544827 3.5689426.2454713.3502988.3005058.7669885-.0131034 1.0225057-.7866437.6595402-2.1839081 1.8733563-2.9530805 2.5577931zm-3.8816781-9.3886207c0 1.5007816.035816 2.7508506-.7206897 4.0847816-.6123678 1.0836552-1.58508046 1.7506207-2.66567816 1.7506207-1.47675862 0-2.34114942-1.1255862-2.34114942-2.7927816 0-3.2793563 2.94172413-3.876 5.72751728-3.876z" mask="url(#b)" transform="translate(50.229885 .365936)"/><path d="m15.2289149 21.7546506c-.2550804.2284368-.6228505.2441609-.909816.0895402-1.2793334-1.0631264-1.5082069-1.5545057-2.2074943-2.5660919-2.11358621 2.1533333-3.61043678 2.7988965-6.34818391 2.7988965-3.24222989 0-5.76333333-2.0004598-5.76333333-6.0013793 0-3.126046 1.69296551-5.2514253 4.1061839-6.29358621 2.08912644-.9168046 5.00726437-1.08365518 7.24009194-1.33349426v-.50011494c0-.9168046.072069-2.00089655-.4677931-2.79234483-.4682299-.70889655-1.36931033-1.00066666-2.16119539-1.00066666-1.46889655 0-2.77487356.75257471-3.09503448 2.31232183-.06682759.3468046-.32016092.69011495-.66914943.70802299l-3.73186206-.40402299c-.31535633-.0711954-.66609196-.32365517-.5748046-.8049885.8574023-4.52811494 4.94611494-5.89611494 8.61071264-5.89611494 1.87335632 0 4.32282762.50011494 5.79958622 1.91747126 1.8733563 1.75062069 1.6929655 4.08478161 1.6929655 6.62685058v5.99919537c0 1.8047816.7495172 2.5962299 1.4536092 3.5689426.2454713.3502988.3009425.7669885-.0126667 1.0225057-.7866436.6595402-2.1843448 1.8733563-2.9526436 2.5577931zm-3.8825517-9.3886207c0 1.5007816.0362529 2.7508506-.7202529 4.0847816-.611931 1.0836552-1.58464363 1.7506207-2.66567812 1.7506207-1.47632184 0-2.34114942-1.1255862-2.34114942-2.7927816 0-3.2793563 2.94172414-3.876 5.72708044-3.876z" mask="url(#c)" transform="translate(0 .365936)"/></g></svg>