<svg height="60" viewBox="0 0 124 60" width="124" xmlns="http://www.w3.org/2000/svg"><g fill="#21223f" fill-rule="evenodd"><path d="m34.8977379 19.4815034-1.4217931-.7497931s1.324138-.7187586 1.608-.5122758c.2797242.2110345.0128276 1.4428965-.1862069 1.2620689zm-2.2191724-2.8340689-1.4275862-.7535173s1.3278621-.7171034 1.6108966-.5122758c.2809655.2085517.009931 1.4395862-.1833104 1.2657931zm-.5441379 2.34-1.4234483-.7551724s1.3282759-.7162759 1.6075862-.5064828c.2842759.2131035.0099311 1.4433104-.1841379 1.2616552zm-.5035862 2.289931-1.4242759-.7651034s1.3266207-.7096552 1.6084138-.4982069c.2846897.2052414.0186207 1.44-.1841379 1.2633103zm-1.7937931-5.1355862-1.4197242-.7564138s1.324138-.7146207 1.6071725-.5081379c.2780689.2093793.0115862 1.4433103-.1874483 1.2645517zm-.5387586 2.4173793-1.4209656-.7601379s1.3228966-.7096552 1.6046897-.5073104c.2822069.2118621.0165517 1.4474483-.1837241 1.2674483zm-.456 2.3619311-1.4246897-.7613794s1.3245517-.715862 1.6063448-.5006896c.2813793.2064827.0198621 1.4383448-.1816551 1.262069zm-1.9630345-4.9899311-1.4246897-.7564138s1.3266207-.7208276 1.6084138-.5064827c.2846897.2089655.0153104 1.4433103-.1837241 1.2628965zm-.5329655 2.4893793-1.4271725-.756s1.3286897-.7212413 1.6104828-.5073103c.2793103.2114483.0128276 1.4412414-.1833103 1.2633103zm-.470069 2.5005518-1.4205517-.7576552s1.3241379-.7195862 1.605931-.5044138c.2817931.2064827.0144828 1.4383448-.1853793 1.262069zm-1.9725517-4.8575173-1.4267587-.7564138s1.3266207-.7233103 1.6113104-.5077241c.2813793.2110345.0177931 1.4404138-.1845517 1.2641379zm-.4688276 2.4848276-1.4251035-.756s1.3282759-.722069 1.6075862-.5064828c.2813793.2035862.0148966 1.4424828-.1824827 1.2624828zm-.3885517 2.3288276-1.4234483-.7588966s1.3224827-.7171034 1.6071724-.5073103c.2842759.2118621.0161379 1.4408276-.1837241 1.2662069zm-2.1798621-4.4122759-1.4271724-.7535172s1.3291034-.7204138 1.608-.5126897c.2813793.2131035.0148965 1.4486897-.1808276 1.2662069zm-.4944828 2.4451035-1.425931-.7539311s1.3249655-.715862 1.6051034-.5093793c.2888276.2114483.0182069 1.4482759-.1791724 1.2633104zm-.3889655 2.493931-1.4242759-.7506207s1.3262069-.7175172 1.6046897-.5085517c.2855172.2089655.0186207 1.4395862-.1804138 1.2591724zm-2.1417931-4.1308965-1.4222069-.7588966s1.3241379-.7137931 1.6071724-.506069c.280138.2147587.0148966 1.4437242-.1849655 1.2649656zm-.4961379 2.599862-1.4217931-.7617931s1.3266207-.7146207 1.6067586-.5064827c.2822069.2126896.0148965 1.4395862-.1849655 1.2682758zm-.4779311 2.532-1.4271724-.7572414s1.3266207-.7175172 1.6108966-.5085517c.2793103.2155862.0103448 1.4482759-.1837242 1.2657931zm-1.9986206-4.4308965-1.4230345-.758069s1.3245517-.7104828 1.6092413-.504c.2797242.2102069.0128276 1.4408276-.1862068 1.262069zm-.516 2.5075862-1.4217932-.7555862s1.3257932-.7204138 1.608-.5073104c.2772414.2035862.0099311 1.4395862-.1862068 1.2628966zm-.6165518 2.3677241-1.4222069-.7626207s1.324138-.7108965 1.6084138-.5048276c.2842759.2097931.0148966 1.4474483-.1862069 1.2674483zm-2.0011034-4.3377931-1.4217931-.7588965s1.3237241-.7125518 1.608-.5035862c.2817931.2122758.0128276 1.4395862-.1862069 1.2624827zm-.4704828 2.2473104-1.42220688-.7572414s1.32372418-.7125517 1.60427588-.5027586c.2813793.2077241.0194483 1.4412413-.182069 1.26zm-.6835862 2.3776551-1.42055171-.7576551s1.31834481-.7162759 1.60344831-.506069c.2805517.2114483.0190344 1.4371034-.1828966 1.2637241zm-1.89393102-3.6955862-1.42427586-.7609655s1.32662069-.7125517 1.60841379-.5085517c.2817931.2114483.01489655 1.4433103-.18413793 1.2695172zm-.63806897 2.5816552-1.42303448-.7551724s1.32662069-.7183448 1.608-.5102069c.27931035.2068965.01034483 1.4478621-.18496552 1.2653793zm-2.04082758-1.6535172-1.42344828-.7588966s1.3262069-.7183448 1.60841379-.5077241c.2822069.211862.01282759 1.4428965-.18496551 1.2666207zm-2.54110345-2.784s1.32496552-.7125518 1.60634483-.5031725c.28386207.2077242.01365517 1.4433104-.18206897 1.264138zm1.87241379-2.9433104c.2822069.2089655.01779311 1.4482759-.1857931 1.2657931l-1.42096552-.7564138s1.32537931-.7121379 1.60675862-.5093793zm1.28151724-2.4848276c.28096552.2052414.01531035 1.4395862-.18331034 1.2616552l-1.42013793-.7605517s1.31875862-.7129655 1.60344827-.5011035zm1.01379311 5.1769655-1.42137931-.7609655s1.3257931-.7129655 1.60593103-.5027586c.28262069.2097931.01737931 1.4408276-.18455172 1.2637241zm-1.092-3.0856551s1.32910345-.7216552 1.60675862-.508138c.28344827.2093793.01655172 1.4412414-.18206897 1.2624828zm2.54193103-2.9466207c.27931035.2102069.01489655 1.4395862-.18206896 1.2649655l-1.42468966-.7576552s1.32537931-.7204138 1.60675862-.5073103zm1.23765515-1.87737933c.2830345.2102069.0157242 1.43917243-.1828965 1.26413793l-1.42675865-.75972414s1.32868965-.71751724 1.60965515-.50441379zm.026069 7.22317243-1.42220691-.7572414s1.32413791-.7154483 1.60593101-.5085517c.2817931.2085517.0190345 1.4395862-.1837241 1.2657931zm.2681379-2.4388966-1.42593101-.7576551s1.32662071-.7187587 1.60800001-.5068966c.2846896.2097931.0128276 1.4457931-.182069 1.2645517zm1.358069-3.2342069c.2813793.2106207.0173793 1.4474483-.1837242 1.2686897l-1.4246896-.7651035s1.3249655-.7125517 1.6084138-.5035862zm.8023448-2.40868962c.2805517.20896552.0177931 1.44372412-.1808276 1.26l-1.4222069-.756s1.3208276-.71793104 1.6030345-.504zm2.3193104-.78662069c.2780689.21393103.012 1.4457931-.1857931 1.26372414l-1.4263449-.75393104s1.3282759-.71751724 1.612138-.5097931zm30.8064827 7.99241381s.1257931-.1593104.3707586-.24c.2412414-.0877242.6057931-.1026207 1.0886897.2085517.5553103.3525517.5412414.6281379.5412414.6281379-.0182069.0095173-.0430345.0186207-.0707586.028138-.4026207.1555862-2.054069.3583448-2.054069.3583448-.3211035-.5917241.1241379-.9831724.1241379-.9831724zm3.7158621-.2855173c.1365517-.2201379.2656552-.3446896.3844138-.4046896.5068965-.2884138.8308965.6144827.7692414.6475862-.0028966.002069-.0144828.0053793-.0194483.0074483-.0008276.0012413-.0008276.0045517-.0012414.0053793-.0802759.0384827-1.0584828.3161379-1.1553103.2528276-.1932414-.1344828.0223448-.5085518.0223448-.5085518zm13.4958621 10.430069c-.2478621-.3235862-.6484138-.4531034-.9252414-.5772414-.2706207-.1274482-.2313104-.391862-.458069-.4684138-.2317241-.0744827-.6368276.3976552-.9517241.2995862-.3144828-.1030344-.2913104-.6910344-.554069-.7775172-.2689655-.0848276-.7365517.3558621-.9811034.2776552-.2462069-.0715862-.2942069-.6889655-.5317242-.7675862-.2354483-.0715862-.7344827.3674482-.9777931.2921379-.2441379-.0823448-.2598621-.6835862-.5317241-.7729655-.2702069-.0827586-.7448276.3666207-.9811035.2855172-.2437241-.0753103-.2673103-.6748965-.5263448-.7622069-.261931-.0831724-.7423448.3571035-.984.278069-.2491034-.0806897-.3169655-.6972414-.5441379-.7713104-.2313104-.0711724-.684.2929656-1.0518621.2714483-2.5526897-.2375172-3.5292414-1.8434483-3.7030345-1.3684138-.1704827.4651035.532138 1.598069 1.4151724 1.9804138.7042759.3062069 8.308138 2.4111724 8.5075862 2.5051035.1936552.096.6744828.309931.5031725.5871724-.2644138.3546207-1.0067587.0037241-1.1958621-.1526897-.1911724-.1588965-.1481379-.2164138-.3268966-.2644138-.4084138-.0968276-.633931.6459311-1.0646896.5466207-.3926897-.0881379-.3649655-.8764138-.7634483-.9682758-.4394483-.1067587-.6384828.6409655-1.0568276.5428965-.3471724-.0782069-.3947586-.8809655-.7667586-.9703448-.4282759-.1034483-.621931.6451034-1.0675862.5412414-.3831724-.0897931-.362069-.8726897-.7626207-.9691035-.4005517-.0947586-.6798621.6310345-1.058069.5457931-.3794482-.0881379-.4348965-.8884138-.7717241-.967862-.3446897-.0765518-.6161379.3302068-1.0795862.3906206 0 0-1.329931.3595862-3.4328276-1.8376551-2.1074483-2.1922759-2.9714483-2.6184828-4.1710345-1.7251035-1.9580689 1.4586207-3.1737931.4944828-3.5284138.0604138-.4257931-.4969655.0198621-.9537931.0198621-.9537931s.621931.96 1.4048276.9773793c1.2608276.0376552 2.2121379-1.6837241 4.3742069-1.713931 2.7384827-.0984828 3.4522758.8743448 4.2008276.9517241.6935172.0678621.9252413-.0442758 1.4048276-.3227586h-.0028966c.3881379-.1382069.7257931.612 1.1325517.4609655.4299311-.1622069.1154483-.9182069.5788966-1.0924138.4324138-.1547586.7154483.6049655 1.1296551.4506207.4357242-.1588965.158069-.936.5764138-1.0878621.4307587-.1555862.6823449.612 1.1288276.4485518.4489655-.1597242.1588966-.9289655.5677242-1.0837242.4216551-.153931.7266207.6016552 1.1408276.4543449.3922758-.1402759.168-.9446897.5764137-1.0911725.424138-.1522758.6976552.6057932 1.1499311.4394483.3715862-.1295172.165931-.9347586.5511724-1.0808276.3848276-.1435862.7423448.6028966 1.1428965.4531035.3757242-.1390345.156-.9388966.5553104-1.0886897.4237241-.1526896.7497931.5937931 1.1503448.4531035.396-.1427586.0955862-.7878621.6115862-1.0448276 0 0 .7150345-.2350345.6699311-.7597241-.0053794-.088138-.1535173-1.2099311-1.3307587-1.4478621-1.1329655-.2275862-10.075862 2.246069-10.1917241 2.1033103-.8234483-1.6257931-1.8777931-1.1743448-2.0383448-1.1375172-.1638621.0409655-1.1623449.4663448-2.2684138.0409655-2.172-.9827586-3.9057931 1.5169655-5.0954483 1.188-1.0953103-.3078621-1.9328276-.1303448-2.3921379.0256552-.4204138.1456552-1.1019311.6931034-2.5468966.1961379-11.1666207-3.8126896-19.893931-.4795862-19.893931-.4795862-4.9204138 1.644-5.5502069 0-5.5502069 0s-1.61917242-2.1997241 9.7824827-4.8231724c16.3886897-3.76468967 16.8827587-9.99517242 16.6886897-10.38910346-.2689655-.57144827-.3715862.10179311-.9111724.72124138-.4531035.51475862-.9794483.26027586-.9794483.26027586-.5155862-.24744827-.8453793.34137931-.8453793.34137931s-.6633103 1.02951724-1.250069.444c-.5635862-.5635862-1.3121379.7084138-1.591862.75889655-.3343449.05917242-.4982069-.10427586-.9475862-.31075862-.6732414-.29793103-1.3957242.92855173-1.7652414 1.01586207-.566069.12951724-.9641379-.66744827-1.4511724-.33144827-1.456138 1.00593103-1.6849655 1.14537931-2.078069.75393103-.2892414-.29586207-.3318621-.61655172-1.3046897.31489655-.8284137.79406897-1.2248275.9422069-1.5566896.43779311-.3422069-.50813793-.254069-1.20165518-1.6762759.16344827-.6790345.65213793-1.0270345.66455173-1.416.37158621-.2929655-.22013793-.2904827-1.27034483-1.3113103-.31986207-.9248276.85572414-1.5968276 1.23062069-1.8583448.47089655-.2896552-.85365517-1.3791725.15724138-1.6311725.39475862-.261931.23834483-.8217931.86731035-1.2140689.21806897-.3926897-.65337931-1.3328276.32193103-1.8918621.94096552-.4315862.48082758-.7795862.10965517-1.2347586-.19489656-.5172414-.35462069-2.0648276 1.80579311-2.20551725 1.93531035-.14151724.12331034-.24951724 0-.60413793-.30082759-.54496552-.4617931-2.01475862 2.10579312-2.25268966 2.27296552 0 0-.10096552.2217931-.50151724-.1609655-.57062069-.54248278-3.59875862 3.4435862-4.74124138 7.9531034-1.46193103 5.7815173.86689655 10.2148966.86689655 10.2148966s.69972414.0215172.99806897-.4514483l.45310345-1.022069c.36744827-.852.96993103-.583862.96993103-.583862l-1.42634483 4.2513103c-.22551724.5598621-.0897931 1.3514483.40965518 2.1004138.47006896.7522759.79406896 1.2608276 1.17062069 1.610069 1.15903448 1.0915862 1.04110344-.1994483 1.07131034-.3608276.13531035-.6906207.90082759-.1597241 1.50206897.1708965 1.09034482.612.96910344-.7394482 1.20827586-1.1801379.16593103-.3153103.70220689-.3293793 1.28358621.1576552.45310344.3786207.90331034-.9037242.90331034-.9037242.5652414-2.7331034-.76262069-3.0492413-1.48096552-3.0897931l-1.45365517-.0662069s.09558621-.415862.24703448-.8052413l.06496552-.276c1.58524138-3.9517242-1.06427586-4.7143449-1.85710345-4.6514483-.87475862.0782069-.81351724-.4787586-.81351724-.4787586s4.78965517-.9430345 3.89710345 4.1362758c0 0-.17668966.8842759-.2822069 1.346069l1.31627586.1535172c1.13255177.1411035 1.33365517 1.4813793 1.33365517 1.4813793s4.166069 1.1006897 6.5288276.6608276c0 0 1.056-.2515862 1.3493793-.9086896 0 0 1.5302069-3.6053793 5.9975172-3.7576552 0 0 .1576552.4667586-.5565517.7096552-.8553103.2884138-3.7071724.5147586-4.2997241 3.7903448v.0128276c-.0641379.5375172.0798621 1.682069 1.245931 2.2121379.9931035.448138 1.3427586 2.2568276 1.5492414 2.7451035.5788965 1.3866207 1.4449655.0612414 1.4449655.0612414s.5486897-1.1188966 1.0191724-.4982069c.796138 1.0468965 1.1656552.5197241 1.3464828-.1473104.1977931-.72.4857931-1.0332414 1.3187586-.1584827.3558621.379862 1.0547586.0864827 1.1238621-.5635863.1473103-1.4313103 1.113931-.2929655 1.2521379-.237931.1655172.0628966 1.1776552-.1651034.6115862-1.7784827 0 0-.7655172-1.538069-4.2144827-2.2013794-.8093794-.1531034-.6811035-.7394482-.6811035-.7394482l.7597241.1067586c.2271725.0368276 2.2332414.2594483 2.4467587.2933793 8.4140689.8304828 14.7984827-2.0238621 14.9904827-2.2274483 6.5362759 1.252138 15.424138.8251035 17.0925517.2238621 1.6754483-.590069 1.8004138-1.5695173 1.6075863-1.8310345z" transform="translate(30.62069 .384)"/><path d="m26.6703724 51.2768276c-.708 0-4.5231724.0008276-4.802069.0008276.5176552-1.4176552 1.8074483-5.0056552 2.3577932-6.4576552.475862 1.4648276 2.431862 6.4092414 2.4442758 6.4568276m1.4371035-9.8371035c-.2971035-.7895172-.8615173-1.1292413-1.8964138-1.1453793-.0943449-.0024827-4.8802759.0045518-4.8802759.0045518l-7.0837241 19.2885517h3.4481379c.2966897.0215172.5735172-.0252414.8217931-.1369655.6707586-.3057931 1.0001379-1.0833104 1.0957241-1.3489656 0 .0066207.9633104-2.6867586 1.0299311-2.8634482.4932414 0 6.7473103-.0024828 7.1267586-.0024828.1489655.4547586 1.4478621 4.3431724 1.4478621 4.3431724h4.6667586l-2.9606897-9.3868965z"/><path d="m61.8266069 55.4834483c-2.8142069 0-5.0193103-2.4335173-5.0193103-5.5423449 0-3.0802758 2.1575172-5.4004137 5.0155862-5.4004137 2.8377931 0 4.8947586 2.2696551 4.8947586 5.4004137 0 3.1617932-2.104138 5.5423449-4.8910345 5.5423449m-.1386207-15.3384828h-.0024828c-5.5208275.0070345-9.523862 4.1511724-9.523862 9.8478621 0 5.5824827 4.092 9.7936552 9.5263448 9.7936552 5.4314483 0 9.6902069-4.2988966 9.6902069-9.7936552 0-5.5228966-4.2587586-9.8478621-9.6902069-9.8478621"/><path d="m83.8667586 48.2628828-.1808276-.0529656c.0045518.0024828-1.7950344-.5449655-1.7995862-.549931l-.2693793-.0951724c-1.4697931-.5317241-2.5142069-.9765517-2.5142069-1.8326897v-.0633103c.146069-1.4205517 2.7835862-1.4354483 2.8092414-1.4354483 1.454069 0 2.5721379.2226207 3.9885517.7911724l.0302069.0115862.0612414.0177931c.3268966.0662069.6132414.0753104.8449655.024l.3922759-.1489655c.5627586-.3095172 1.1226207-1.9493793 1.3373793-2.64l.0695172-.2213793-.1733793-.1588965c-.067862-.0653793-.4804138-.4051035-1.9808276-.9649656-1.5256551-.5714482-3.6873103-.6612413-3.6873103-.6612413l-1.0663448-.0045518c-5.5688276 0-7.6948966 3.4365518-7.7623449 5.7446897-.045931 2.2994483 1.2628966 3.4828965 3.2416552 4.557931.8275862.4584828 2.34.880138 3.4357241 1.1867587-.0057931-.0045518 1.1346207.3326896 1.1346207.3326896 2.0743449.6517241 2.8671724 1.3754483 2.7198621 2.498069-.0662069.3711724-.7667586.9848276-2.3598621.9848276-1.2115862 0-2.3068965-.1857931-3.4468965-.5834483-.5474483-.218069-1.1139311-.4986207-1.7122759-.8536552l-.0285517-.0182069-.0612414-.0268965c-.3310345-.1233104-.6277241-.1746207-.8822069-.1531035l-.4382069.093931c-.6393103.2391725-1.5285517 1.8624828-1.8835862 2.5489656l-.1398621.2710344.2416552.1915863c.0430345.0285517 1.0324138.8155862 1.8728276 1.3075862.9897931.5482758 2.1008276.9451034 3.4129655 1.2107586.5288276.0964138 1.3688276.2184827 2.6851035.2184827 4.3150345 0 7.449931-2.1856551 7.8103448-5.4409655.156-2.9524138-1.6564138-4.8794483-5.7012414-6.0860689"/><path d="m93.0918207 40.3230207c-.1791724-.0028966-1.1205517.0157241-1.6617931.5164138-.2486897.2284138-.3794483.5346207-.3794483.8793103l-.0024827 3.0517242s5.205931-.004138 5.8874482-.004138v14.8291035l4.8227582-.0045517v-14.8245518c.643035-.0008276 3.789931-.0008276 3.789931-.0008276.177932 0 1.117656-.019862 1.660552-.5184827.246207-.2337931.380276-.5325517.380276-.8822069v-3.0417931z"/><path d="m10.3631172 55.2298759h-5.41406892c0-.7113104-.01489656-13.1474483-.01489656-13.1474483 0-.5457931-.16344827-.9790345-.492-1.2823448-.52468965-.4924138-1.30551724-.4895173-1.59682758-.4837242l-2.84524138-.0057931.00744827 19.2769655h12.06951727l.0091034-3.0633103c0-.3922759-.1675862-1.2943448-1.7230345-1.2943448"/><path d="m44.8728 44.4205241c1.1697931-.0777931 2.1542069 0 3.0827586.254069.4986207.1663448.9492414.1994483 1.3303448.0918621.0016552-.0008276.3852414-.1708966.3852414-.1708966.5395862-.3326896.926069-2.0275862 1.1085518-3.0037241l.0417931-.2292414-.1965518-.1411034c-.0492413-.0364138-.2027586-.1435863-1.9506207-.6153104-1.591862-.4286896-3.0086896-.4816552-3.7071724-.4766896l-.0769655.0008275c-3.993931 0-10.0092414 2.6366897-10.1822069 9.8966897v.0417931c.1729655 7.2624828 6.1882759 9.8983448 10.1851035 9.8983448l.0740689.0028966c.6984828.0028965 2.1128276-.0542069 3.7071724-.482069 1.7478621-.4675862 1.9013794-.576 1.9518621-.6128276l.1953104-.1382069-.0417931-.2300689c-.1824828-.9823449-.5689656-2.6731035-1.1085518-3.0078621v-.0024828l-.3835862-.1688275c-.3827586-.1042759-.8333793-.0703449-1.3390345.0993103-.924.2478621-1.9075862.3285517-3.0897931.2507586-3.0252413-.2958621-4.8422069-2.3548965-4.9791724-5.6453793.1369655-3.2594483 1.9539311-5.3184828 4.9932414-5.6118621"/><path d="m121.877917 59.5787586c.744828-.0165517 2.010621-.4555862 2.010621-1.9365517l-.014483-2.4186207-8.49931.0033104s.014483-2.7724138.014483-3.2317242h7.015862l-.012-4.4598621s-6.297518.0074483-6.991862.0074483c-.001656-.5275862 0-2.2415172 0-2.7724138.694344 0 6.440689-.0074482 6.440689-.0074482.17669.0028965 1.138345.0037241 1.659311-.516.363724-.3645518.380275-1.0282759.380275-1.3737932v-2.5464827h-13.370069l.002483 19.2674483z"/></g></svg>