<svg height="50" viewBox="0 0 52 50" width="52" xmlns="http://www.w3.org/2000/svg"><path d="m36.75 25.769-7.503 2.377 4.665 6.22a2.024 2.024 0 0 1 -3.239 2.429l-4.74-6.321-4.56 6.204a2.021 2.021 0 0 1 -2.83.432 2.024 2.024 0 0 1 -.432-2.83l4.507-6.132-7.44-2.38a2.024 2.024 0 0 1 1.234-3.857l7.48 2.394v-7.753a2.024 2.024 0 1 1 4.048 0v7.761l7.587-2.404a2.024 2.024 0 1 1 1.223 3.86zm14.895-7.065c-.764-2.353-2.847-3.873-5.305-3.873h-10.357c-.686 0-1.259-.395-1.456-1.003l-3.202-9.918c-.76-2.342-2.844-3.856-5.308-3.856-2.463 0-4.547 1.514-5.309 3.86l-3.2 9.91c-.198.612-.77 1.007-1.457 1.007h-10.357c-2.458 0-4.54 1.52-5.305 3.873-.767 2.361.028 4.825 2.025 6.275l8.379 6.088c.538.392.762 1.08.556 1.714l-3.2 9.85c-.761 2.342.035 4.792 2.027 6.24 1.993 1.447 4.569 1.447 6.562 0l8.378-6.088a1.528 1.528 0 0 1 1.802 0l8.379 6.087a5.566 5.566 0 0 0 3.28 1.086 5.565 5.565 0 0 0 3.281-1.086c1.993-1.447 2.789-3.897 2.027-6.24l-2.19-6.743a2.024 2.024 0 0 0 -3.85 1.251l2.19 6.743c.32.983-.345 1.56-.557 1.714-.211.154-.966.607-1.801 0l-8.38-6.088a5.567 5.567 0 0 0 -6.56 0l-8.38 6.088c-.835.607-1.59.153-1.8 0-.212-.154-.877-.73-.558-1.714l3.2-9.85a5.568 5.568 0 0 0 -2.027-6.24l-8.378-6.087c-.843-.612-.637-1.494-.554-1.75.082-.252.429-1.074 1.454-1.074h10.357c2.436 0 4.569-1.53 5.31-3.809l3.199-9.91c.319-.982 1.196-1.059 1.457-1.059.262 0 1.139.077 1.457 1.056l3.201 9.917c.74 2.276 2.873 3.805 5.309 3.805h10.356c1.025 0 1.373.822 1.455 1.075.083.255.288 1.137-.554 1.75l-5.713 4.15a2.024 2.024 0 1 0 2.38 3.275l5.713-4.15c1.997-1.451 2.791-3.915 2.024-6.276z" fill="#fff"/></svg>